<?xml version="1.0" encoding="UTF-8"?>
<!DOCTYPE svg PUBLIC "-//W3C//DTD SVG 1.1//EN" "http://www.w3.org/Graphics/SVG/1.1/DTD/svg11.dtd">
<!-- Creator: CorelDRAW X6 -->
<svg xmlns="http://www.w3.org/2000/svg" xml:space="preserve" width="460.38mm" height="217.089mm" version="1.1" style="shape-rendering:geometricPrecision; text-rendering:geometricPrecision; image-rendering:optimizeQuality; fill-rule:evenodd; clip-rule:evenodd"
viewBox="0 0 46038 21709"
 xmlns:xlink="http://www.w3.org/1999/xlink">
 <defs>
  <style type="text/css">
   <![CDATA[
    .fil0 {fill:#1A1A1A}
   ]]>
  </style>
 </defs>
 <g id="w">
  <metadata id="CorelCorpID_0Corel-Layer"/>
  <path id="c" class="fil0" d="M22335 38c-2062,233 -3527,1377 -4333,2534 -599,859 -1305,884 -2628,756 -1362,-132 -1176,-1063 -933,-2208 311,-1460 -954,-1413 -1296,-185 -375,1347 -380,1372 -954,2468 -694,1327 1148,1088 2051,1088 1358,0 2294,-351 2137,1312 -122,1288 -418,5163 -1162,5676 -832,573 -4139,-95 -4754,376 -363,279 -488,888 -6,1123 341,166 2736,28 3310,34 980,11 2233,567 1387,1665 -1097,1423 -4720,-697 -5613,710 -213,336 -1283,4837 -1362,5479 -129,1053 1504,1067 1914,163 238,-525 507,-2144 650,-2809 269,-1243 349,-1639 1749,-1682 1051,-32 2575,-232 2370,1023 -157,963 -358,2007 -465,2968 -93,830 323,721 972,679 619,-40 782,506 1288,426 793,-127 1060,-4647 1179,-5670 240,-2046 481,-4108 721,-6151 162,-1372 427,-5026 822,-6062 1466,-3847 6970,-3282 7467,1067l1440 12287c121,1013 228,2039 377,3038 70,469 119,1020 388,1324 411,466 836,-75 1194,-210 1143,-433 1601,899 1173,-1841 -114,-727 -670,-2452 48,-2742 531,-215 2624,-209 3104,71 632,367 712,1728 900,2560 206,915 269,2081 1102,2317 1569,445 1212,-876 992,-1827 -213,-924 -428,-1852 -643,-2774 -233,-1003 -278,-2012 -1322,-2145 -739,-94 -2194,272 -3141,280 -1001,8 -2199,-311 -1763,-1520 524,-1452 6257,374 5037,-1551 -770,-1215 -5064,703 -5458,-1383 -189,-997 -929,-5387 -471,-5994 307,-406 2514,-193 3213,-217 1664,-56 640,-1207 311,-1892 -338,-702 -390,-2144 -967,-2455 -1359,-734 -604,1617 -643,2210 -73,1096 -1390,1102 -2439,995 -1145,-117 -1323,-927 -1925,-1538 -1019,-1034 -2844,-2018 -5016,-1773zm-14039 122c-856,234 -1021,1161 -1391,2053 -278,673 -989,2200 473,1985 912,-134 1057,-1208 1358,-2061 220,-623 1009,-2373 -441,-1977zm28901 -3c-815,296 -37,1737 202,2421 260,743 615,2017 1712,1578 893,-357 64,-1708 -206,-2369 -274,-672 -701,-1996 -1709,-1631zm5235 14188c-890,239 -323,1280 -101,1874 259,693 516,1369 774,2050 428,1130 888,3532 2444,3143 897,-224 326,-1256 99,-1868 -260,-702 -514,-1349 -774,-2050 -415,-1118 -912,-3560 -2442,-3148zm-39465 14c-1135,271 -1595,2427 -2031,3599 -334,897 -1988,3909 104,3445 1110,-246 1582,-2459 2014,-3593 318,-834 1991,-3946 -87,-3450z"/>
 </g>
</svg>
