<?xml version="1.0" encoding="UTF-8"?>
<!DOCTYPE svg PUBLIC "-//W3C//DTD SVG 1.1//EN" "http://www.w3.org/Graphics/SVG/1.1/DTD/svg11.dtd">
<!-- Creator: CorelDRAW X6 -->
<svg xmlns="http://www.w3.org/2000/svg" xml:space="preserve" width="71.047mm" height="28.462mm" version="1.1" style="shape-rendering:geometricPrecision; text-rendering:geometricPrecision; image-rendering:optimizeQuality; fill-rule:evenodd; clip-rule:evenodd"
viewBox="0 0 7105 2846"
 xmlns:xlink="http://www.w3.org/1999/xlink">
 <defs>
  <style type="text/css">
   <![CDATA[
    .fil1 {fill:#093A81}
    .fil0 {fill:#189B70}
    .fil2 {fill:white;fill-rule:nonzero}
   ]]>
  </style>
 </defs>
 <g id="w">
  <metadata id="CorelCorpID_0Corel-Layer"/>
  <path id="z" class="fil0" d="M4467 873l124 -867c-882,0 -1801,0 -2675,5l-123 863c1665,8 683,8 2675,0zm1740 0l-124 867c296,0 596,0 897,0l124 -871c-207,1 -490,2 -897,4zm-5310 0l124 -867c-296,0 -596,0 -897,0l-124 871c207,-1 490,-2 897,-4z"/>
  <path id="d" class="fil1" d="M5435 4l-123 863c-882,0 -1800,0 -2674,5l-123 863 861 4 -136 1096 871 12 158 -1108 922 -4 123 -863c295,0 595,0 896,0l124 -871c-207,1 -490,2 -897,4zm-4536 871l-124 867c296,0 596,0 897,0l124 -871c-207,1 -490,2 -897,4z"/>
  <path id="s" class="fil2" d="M2631 874l-165 0 -233 -579 -121 579 -165 0 181 -862 165 0 234 577 121 -577 165 0 -181 862zm603 555l172 26c-34,91 -84,161 -151,210 -67,48 -146,73 -236,73 -102,0 -181,-30 -238,-90 -57,-60 -86,-148 -86,-262 0,-93 19,-178 58,-255 38,-77 91,-136 160,-177 68,-41 142,-61 222,-61 90,0 163,24 218,71 56,48 88,112 98,194l-164 16c-9,-48 -27,-82 -52,-104 -26,-21 -60,-32 -103,-32 -47,0 -91,14 -132,42 -41,28 -73,73 -98,133 -25,60 -37,120 -37,180 0,66 16,116 48,152 32,36 71,54 119,54 44,0 84,-14 121,-42 37,-28 64,-70 82,-125z"/>
 </g>
</svg>
