<?xml version="1.0" encoding="UTF-8"?>
<!DOCTYPE svg PUBLIC "-//W3C//DTD SVG 1.1//EN" "http://www.w3.org/Graphics/SVG/1.1/DTD/svg11.dtd">
<!-- Creator: CorelDRAW X6 -->
<svg xmlns="http://www.w3.org/2000/svg" xml:space="preserve" width="35.206mm" height="28.402mm" version="1.1" style="shape-rendering:geometricPrecision; text-rendering:geometricPrecision; image-rendering:optimizeQuality; fill-rule:evenodd; clip-rule:evenodd"
viewBox="0 0 3521 2840"
 xmlns:xlink="http://www.w3.org/1999/xlink">
 <defs>
  <style type="text/css">
   <![CDATA[
    .fil0 {fill:#093A81}
    .fil1 {fill:#189B70}
    .fil2 {fill:white;fill-rule:nonzero}
   ]]>
  </style>
 </defs>
 <g id="w">
  <metadata id="CorelCorpID_0Corel-Layer"/>
  <path id="x" class="fil0" d="M1583 1732l-136 1096 871 12 158 -1108 922 -4 124 -867c-882,0 -1801,0 -2675,5l-123 863 861 4z"/>
  <path id="d" class="fil1" d="M2675 867l124 -867c-882,0 -1801,0 -2675,5l-123 863c1665,8 683,8 2675,0z"/>
  <polygon id="s" class="fil2" points="839,868 674,868 441,289 319,868 155,868 335,6 500,6 734,583 854,6 1019,6 "/>
  <path id="a" class="fil2" d="M1442 1423l172 26c-34,91 -84,161 -151,210 -67,48 -146,73 -236,73 -102,0 -181,-30 -238,-90 -57,-60 -86,-148 -86,-262 0,-93 19,-178 58,-255 38,-77 91,-136 160,-177 68,-41 142,-61 222,-61 90,0 163,24 218,71 56,48 88,112 98,194l-164 16c-9,-48 -27,-82 -52,-104 -26,-21 -60,-32 -103,-32 -47,0 -91,14 -132,42 -41,28 -73,73 -98,133 -25,60 -37,120 -37,180 0,66 16,116 48,152 32,36 71,54 119,54 44,0 84,-14 121,-42 37,-28 64,-70 82,-125z"/>
 </g>
</svg>
