<?xml version="1.0" encoding="UTF-8"?>
<!DOCTYPE svg PUBLIC "-//W3C//DTD SVG 1.1//EN" "http://www.w3.org/Graphics/SVG/1.1/DTD/svg11.dtd">
<!-- Creator: CorelDRAW X6 -->
<svg xmlns="http://www.w3.org/2000/svg" xml:space="preserve" width="54.457mm" height="30.582mm" version="1.1" style="shape-rendering:geometricPrecision; text-rendering:geometricPrecision; image-rendering:optimizeQuality; fill-rule:evenodd; clip-rule:evenodd"
viewBox="0 0 5446 3058"
 xmlns:xlink="http://www.w3.org/1999/xlink">
 <defs>
  <style type="text/css">
   <![CDATA[
    .fil0 {fill:#292929}
    .fil2 {fill:#CC9933}
    .fil1 {fill:#E6E6E6;fill-rule:nonzero}
   ]]>
  </style>
 </defs>
 <g id="l">
  <metadata id="CorelCorpID_0Corel-Layer"/>
  <path id="y" class="fil0" d="M0 0l5446 0 0 3058 -5446 0 0 -3058zm93 93l5259 0 0 2872 -5259 0 0 -2872zm-31 -31l5320 0 0 2933 -5320 0 0 -2933z"/>
  <path id="q" class="fil1" d="M877 874c0,11 -2,21 -6,30 -4,9 -10,17 -19,23 -8,6 -18,11 -30,14 -12,3 -25,5 -41,5 -14,0 -27,-1 -38,-3 -11,-2 -21,-6 -29,-11 -8,-5 -15,-11 -20,-19 -5,-8 -9,-18 -12,-30l38 -7c2,8 4,14 8,19 3,5 8,9 13,11 5,3 11,5 17,6 7,1 14,1 22,1 8,0 15,-1 22,-2 7,-1 12,-3 17,-6 5,-3 9,-7 11,-11 3,-5 4,-10 4,-17 0,-7 -2,-13 -5,-17 -4,-4 -8,-8 -15,-11 -6,-3 -14,-5 -22,-7 -8,-2 -17,-4 -27,-6 -9,-2 -19,-4 -27,-7 -9,-3 -17,-7 -24,-12 -7,-5 -13,-11 -17,-19 -4,-8 -6,-17 -6,-29 0,-11 2,-20 6,-29 4,-9 10,-16 17,-22 8,-6 17,-10 28,-14 11,-3 24,-5 39,-5 12,0 23,1 33,3 10,2 19,6 27,11 8,5 14,11 19,19 5,8 9,17 11,28l-39 6c-1,-6 -3,-12 -6,-16 -3,-4 -7,-8 -11,-10 -5,-3 -10,-4 -15,-5 -6,-1 -12,-2 -18,-2 -16,0 -28,3 -36,8 -8,6 -12,13 -12,23 0,6 2,11 5,15 3,4 7,7 13,10 5,3 12,5 19,7 7,2 16,4 25,7 10,2 20,5 30,8 10,3 19,7 27,13 8,5 14,12 19,20 5,8 7,18 7,31l-2 -1zm143 73c-18,0 -34,-3 -47,-9 -13,-6 -25,-14 -33,-25 -9,-11 -16,-24 -20,-38 -4,-15 -7,-32 -7,-50 0,-20 3,-37 7,-53 5,-15 12,-29 21,-39 9,-11 21,-19 34,-24 13,-6 29,-8 46,-8 14,0 27,2 39,6 11,4 21,9 29,16 8,7 15,15 20,24 5,10 9,20 11,32l-45 4c-2,-15 -8,-26 -17,-33 -9,-7 -21,-11 -37,-11 -20,0 -36,7 -46,22 -11,15 -16,36 -16,64 0,30 5,52 17,67 11,15 26,22 46,22 7,0 14,-1 20,-3 6,-2 12,-5 17,-9 5,-4 9,-9 12,-15 3,-6 5,-13 7,-21l45 5c-1,11 -5,21 -9,31 -5,10 -12,18 -20,25 -8,7 -19,13 -30,17 -12,4 -25,6 -41,6l-3 -3zm195 -342l0 101c0,5 0,10 0,15 0,5 0,10 -1,15 0,4 0,8 0,12 0,3 0,6 0,7l1 0c9,-19 20,-33 33,-41 13,-9 29,-13 47,-13 14,0 26,2 36,7 10,4 18,11 25,19 7,8 11,18 14,29 3,11 5,24 5,38l0 150 -44 0 0 -136c0,-10 -1,-20 -3,-28 -2,-9 -5,-16 -9,-22 -4,-6 -10,-11 -16,-14 -7,-3 -15,-5 -24,-5 -9,0 -17,2 -25,6 -8,4 -14,9 -20,16 -6,7 -10,15 -13,25 -3,10 -5,20 -5,31l0 127 -44 0 0 -337 44 0 -1 -2zm436 218c0,18 -2,35 -7,50 -5,15 -12,28 -21,39 -10,11 -21,19 -36,25 -14,6 -31,9 -50,9 -18,0 -34,-3 -48,-9 -14,-6 -25,-14 -35,-25 -9,-11 -17,-24 -22,-39 -5,-15 -7,-32 -7,-50 0,-18 2,-34 7,-49 5,-15 12,-28 21,-39 9,-11 21,-20 35,-26 14,-6 31,-9 50,-9 20,0 37,3 51,9 14,6 26,15 35,26 9,11 16,24 20,39 4,15 6,32 6,49l1 0zm-47 0c0,-15 -1,-28 -4,-39 -3,-11 -7,-20 -12,-27 -6,-7 -12,-12 -20,-16 -8,-3 -17,-5 -28,-5 -22,0 -38,7 -50,21 -12,14 -17,36 -17,66 0,15 2,29 5,40 3,11 8,20 13,28 6,7 12,13 20,16 8,4 17,5 26,5 11,0 20,-2 29,-5 8,-3 15,-9 21,-16 6,-7 10,-16 13,-28 3,-11 5,-24 5,-40l-1 0zm132 9c0,12 1,22 4,32 2,10 6,18 11,25 5,7 12,13 20,16 8,4 17,6 29,6 7,0 14,-1 21,-2 6,-1 12,-4 18,-7 5,-3 10,-7 13,-11 4,-4 7,-10 8,-15l40 9c-3,7 -6,14 -11,21 -5,7 -12,14 -20,20 -8,6 -18,11 -29,15 -11,4 -25,6 -40,6 -36,0 -63,-10 -81,-31 -19,-21 -28,-52 -28,-93 0,-23 3,-42 9,-58 6,-16 14,-28 25,-38 10,-10 22,-16 35,-20 13,-4 27,-6 41,-6 19,0 34,3 48,9 13,6 24,15 33,26 9,11 15,25 19,40 4,16 6,33 6,52l0 5 -169 0 -2 -1zm125 -32c-1,-11 -2,-20 -5,-28 -3,-8 -7,-15 -12,-21 -5,-6 -11,-10 -18,-13 -7,-3 -16,-5 -26,-5 -8,0 -15,1 -23,3 -7,2 -14,6 -20,11 -6,5 -11,12 -15,21 -4,9 -6,19 -7,32l125 0 1 0zm255 141l0 -134c0,-11 -1,-21 -3,-29 -2,-9 -5,-16 -9,-22 -4,-6 -10,-11 -16,-14 -7,-3 -15,-5 -24,-5 -9,0 -17,2 -25,6 -8,4 -14,9 -20,16 -6,7 -10,15 -13,25 -3,9 -5,20 -5,31l0 127 -44 0 0 -184c0,-5 0,-11 0,-16 0,-6 0,-11 0,-16 0,-5 -1,-12 -1,-21l42 0c0,9 1,16 1,21 0,5 1,10 1,15 0,5 0,10 0,13l1 0c9,-19 20,-33 33,-42 13,-9 29,-13 47,-13 15,0 28,2 38,7 10,5 18,12 25,20 6,9 11,19 14,30 3,12 4,24 4,37l0 147 -44 0 -2 1zm142 -110c0,12 1,22 4,32 2,10 6,18 11,25 5,7 12,13 20,16 8,4 17,6 29,6 7,0 14,-1 21,-2 6,-1 12,-4 18,-7 5,-3 10,-7 13,-11 4,-4 7,-10 8,-15l40 9c-3,7 -6,14 -11,21 -5,7 -12,14 -20,20 -8,6 -18,11 -29,15 -11,4 -25,6 -40,6 -36,0 -63,-10 -81,-31 -19,-21 -28,-52 -28,-93 0,-23 3,-42 9,-58 6,-16 14,-28 25,-38 10,-10 22,-16 35,-20 13,-4 27,-6 41,-6 19,0 34,3 48,9 13,6 24,15 33,26 9,11 15,25 19,40 4,16 6,33 6,52l0 5 -169 0 -2 -1zm125 -32c-1,-11 -2,-20 -5,-28 -3,-8 -7,-15 -12,-21 -5,-6 -11,-10 -18,-13 -7,-3 -16,-5 -26,-5 -8,0 -15,1 -23,3 -7,2 -14,6 -20,11 -6,5 -11,12 -15,21 -4,9 -6,19 -7,32l125 0 1 0zm255 141l0 -134c0,-11 -1,-21 -3,-29 -2,-9 -5,-16 -9,-22 -4,-6 -10,-11 -16,-14 -7,-3 -15,-5 -24,-5 -9,0 -17,2 -25,6 -8,4 -14,9 -20,16 -6,7 -10,15 -13,25 -3,9 -5,20 -5,31l0 127 -44 0 0 -184c0,-5 0,-11 0,-16 0,-6 0,-11 0,-16 0,-5 -1,-12 -1,-21l42 0c0,9 1,16 1,21 0,5 1,10 1,15 0,5 0,10 0,13l1 0c9,-19 20,-33 33,-42 13,-9 29,-13 47,-13 15,0 28,2 38,7 10,5 18,12 25,20 6,9 11,19 14,30 3,12 4,24 4,37l0 147 -44 0 -2 1z"/>
  <path id="t" class="fil2" d="M339 2145l4794 0 0 151 -4794 0 0 -151zm335 -182c-57,0 -106,-9 -148,-28 -42,-19 -77,-45 -104,-78 -28,-34 -48,-73 -62,-120 -13,-46 -20,-96 -20,-151 0,-57 7,-108 20,-154 13,-46 34,-85 61,-117 28,-32 62,-57 103,-74 41,-18 89,-26 145,-26 42,0 78,5 109,14 31,10 57,23 80,39 22,16 41,34 56,53 15,20 27,40 37,60l-65 25c-8,-16 -18,-32 -30,-48 -12,-16 -27,-29 -44,-41 -18,-12 -38,-22 -61,-29 -23,-7 -50,-11 -79,-11 -44,0 -82,7 -115,22 -32,15 -58,35 -79,62 -21,27 -36,59 -46,97 -10,38 -15,80 -15,127 0,46 5,89 16,127 11,39 27,72 49,100 21,28 48,50 81,65 32,16 70,23 113,23 31,0 59,-4 84,-13 25,-9 46,-21 65,-35 19,-14 35,-31 48,-49 13,-18 24,-36 32,-54l62 29c-12,23 -27,46 -44,68 -17,22 -38,42 -62,59 -24,17 -51,31 -82,42 -31,11 -66,16 -104,16l-1 0zm916 -11l-86 -225 -325 0 -85 225 -77 0 282 -726 87 0 282 726 -78 0 0 0zm-204 -540c-6,-15 -11,-29 -17,-44 -5,-15 -10,-28 -14,-40 -4,-12 -8,-21 -10,-29 -3,-8 -4,-12 -5,-13 0,2 -1,6 -3,14 -2,8 -6,18 -10,30 -4,12 -9,25 -14,39 -5,14 -11,28 -16,43l-97 255 283 0 -97 -255 0 0zm827 540l-197 -311 -175 0 0 311 -74 0 0 -726 258 0c39,0 74,5 106,14 31,9 57,23 79,40 21,17 38,39 49,64 11,25 17,54 17,86 0,23 -4,45 -11,67 -7,22 -18,43 -33,61 -15,19 -34,34 -58,47 -24,13 -52,22 -85,27l212 320 -88 0zm-12 -522c0,-24 -4,-44 -12,-63 -8,-18 -21,-33 -36,-46 -16,-12 -35,-22 -58,-28 -22,-6 -48,-9 -76,-9l-177 0 0 298 181 0c31,0 58,-4 80,-12 23,-8 41,-19 56,-32 14,-13 25,-30 32,-48 7,-19 11,-39 11,-60l-1 0zm718 522l-86 -225 -325 0 -85 225 -77 0 282 -726 87 0 282 726 -78 0 0 0zm-204 -540c-6,-15 -11,-29 -17,-44 -5,-15 -10,-28 -14,-40 -4,-12 -8,-21 -10,-29 -3,-8 -4,-12 -5,-13 0,2 -1,6 -3,14 -2,8 -6,18 -10,30 -4,12 -9,25 -14,39 -5,14 -11,28 -16,43l-97 255 283 0 -97 -255 0 0zm1056 540l0 -509c0,-18 0,-35 1,-51 0,-16 1,-31 1,-43 0,-15 1,-29 1,-42 -6,14 -11,29 -17,44 -5,13 -10,27 -16,41 -6,15 -12,29 -18,42l-220 518 -66 0 -225 -519c-5,-10 -10,-23 -16,-37 -6,-14 -11,-28 -17,-42 -6,-15 -12,-31 -18,-48 1,16 1,32 2,48 0,14 1,28 1,44 0,16 0,31 0,44l0 510 -67 0 0 -726 98 0 239 545c1,2 3,8 7,18 4,10 8,21 12,33 5,14 10,29 16,46 8,-18 15,-34 21,-48 5,-13 10,-24 14,-35 4,-10 7,-16 8,-18l229 -540 98 0 0 726 -67 0 -1 -1zm266 0l0 -726 480 0 0 61 -406 0 0 261 374 0 0 60 -374 0 0 282 426 0 0 61 -500 0 0 1zm649 0l0 -726 74 0 0 664 356 0 0 62 -429 0 -1 0z"/>
 </g>
</svg>
