<?xml version="1.0" encoding="UTF-8"?>
<!DOCTYPE svg PUBLIC "-//W3C//DTD SVG 1.1//EN" "http://www.w3.org/Graphics/SVG/1.1/DTD/svg11.dtd">
<!-- Creator: CorelDRAW X6 -->
<svg xmlns="http://www.w3.org/2000/svg" xml:space="preserve" width="90.719mm" height="54.491mm" version="1.1" style="shape-rendering:geometricPrecision; text-rendering:geometricPrecision; image-rendering:optimizeQuality; fill-rule:evenodd; clip-rule:evenodd"
viewBox="0 0 9072 5449"
 xmlns:xlink="http://www.w3.org/1999/xlink">
 <defs>
  <style type="text/css">
   <![CDATA[
    .fil2 {fill:#9E7986}
    .fil1 {fill:#CCCCCC}
    .fil0 {fill:#E6E6E6}
    .fil3 {fill:white}
   ]]>
  </style>
 </defs>
 <g id="l">
  <metadata id="CorelCorpID_0Corel-Layer"/>
  <path id="j" class="fil0" d="M6072 51c-82,52 -191,143 -306,229 -105,79 -205,127 -337,188 -108,50 -274,100 -407,119 -189,27 -285,-3 -449,84 -114,59 -207,150 -267,258 -95,173 -64,244 -91,445 -20,151 -63,277 -114,409 -29,76 -142,248 -189,340 -47,91 -246,184 -292,500 -13,91 -7,186 18,272 55,194 141,237 235,358 157,203 314,513 346,840 22,221 3,297 119,465 69,100 182,204 341,252 191,58 456,-22 935,250 206,117 188,136 332,252 109,88 274,150 455,135 421,-35 432,-421 1186,-582 227,-49 601,25 805,-380 33,-65 59,-145 66,-229 6,-73 2,-203 25,-263 23,-218 183,-538 286,-680 144,-198 331,-303 299,-657 -23,-249 -144,-333 -254,-466 -165,-199 -321,-562 -349,-846 -18,-187 0,-239 -80,-401 -52,-105 -142,-190 -230,-244 -126,-78 -215,-89 -383,-97 -343,-16 -782,-219 -995,-439 -231,-238 -625,-159 -707,-108l2 -4z"/>
  <path id="h" class="fil1" d="M5165 51c-82,52 -191,143 -306,229 -105,79 -205,127 -337,188 -108,50 -274,100 -407,119 -189,27 -285,-3 -449,84 -114,59 -207,150 -267,258 -95,173 -64,244 -91,445 -20,151 -63,277 -114,409 -29,76 -142,248 -189,340 -47,91 -246,184 -292,500 -13,91 -7,186 18,272 55,194 141,237 235,358 157,203 314,513 346,840 22,221 3,297 119,465 69,100 182,204 341,252 191,58 456,-22 935,250 206,117 188,136 332,252 109,88 274,150 455,135 421,-35 432,-421 1186,-582 227,-49 601,25 805,-380 33,-65 59,-145 66,-229 6,-73 2,-203 25,-263 23,-218 183,-538 286,-680 144,-198 331,-303 299,-657 -23,-249 -144,-333 -254,-466 -165,-199 -321,-562 -349,-846 -18,-187 0,-239 -80,-401 -52,-105 -142,-190 -230,-244 -126,-78 -215,-89 -383,-97 -343,-16 -782,-219 -995,-439 -231,-238 -625,-159 -707,-108l2 -4z"/>
  <path id="g" class="fil0" d="M2459 51c-82,52 -191,143 -306,229 -105,79 -205,127 -337,188 -108,50 -274,100 -407,119 -189,27 -285,-3 -449,84 -114,59 -207,150 -267,258 -95,173 -64,244 -91,445 -20,151 -63,277 -114,409 -29,76 -142,248 -189,340 -47,91 -246,184 -292,500 -13,91 -7,186 18,272 55,194 141,237 235,358 157,203 314,513 346,840 22,221 3,297 119,465 69,100 182,204 341,252 191,58 456,-22 935,250 206,117 188,136 332,252 109,88 274,150 455,135 421,-35 432,-421 1186,-582 227,-49 601,25 805,-380 33,-65 59,-145 66,-229 6,-73 2,-203 25,-263 23,-218 183,-538 286,-680 144,-198 331,-303 299,-657 -23,-249 -144,-333 -254,-466 -165,-199 -321,-562 -349,-846 -18,-187 0,-239 -80,-401 -52,-105 -142,-190 -230,-244 -126,-78 -215,-89 -383,-97 -343,-16 -782,-219 -995,-439 -231,-238 -625,-159 -707,-108l2 -4z"/>
  <path id="d" class="fil1" d="M3366 51c-82,52 -191,143 -306,229 -105,79 -205,127 -337,188 -108,50 -274,100 -407,119 -189,27 -285,-3 -449,84 -114,59 -207,150 -267,258 -95,173 -64,244 -91,445 -20,151 -63,277 -114,409 -29,76 -142,248 -189,340 -47,91 -246,184 -292,500 -13,91 -7,186 18,272 55,194 141,237 235,358 157,203 314,513 346,840 22,221 3,297 119,465 69,100 182,204 341,252 191,58 456,-22 935,250 206,117 188,136 332,252 109,88 274,150 455,135 421,-35 432,-421 1186,-582 227,-49 601,25 805,-380 33,-65 59,-145 66,-229 6,-73 2,-203 25,-263 23,-218 183,-538 286,-680 144,-198 331,-303 299,-657 -23,-249 -144,-333 -254,-466 -165,-199 -321,-562 -349,-846 -18,-187 0,-239 -80,-401 -52,-105 -142,-190 -230,-244 -126,-78 -215,-89 -383,-97 -343,-16 -782,-219 -995,-439 -231,-238 -625,-159 -707,-108l2 -4z"/>
  <path id="a" class="fil2" d="M4275 51c-82,52 -191,143 -306,229 -105,79 -205,127 -337,188 -108,50 -274,100 -407,119 -189,27 -285,-3 -449,84 -114,59 -207,150 -267,258 -95,173 -64,244 -91,445 -20,151 -63,277 -114,409 -29,76 -142,248 -189,340 -47,91 -246,184 -292,500 -13,91 -7,186 18,272 55,194 141,237 235,358 157,203 314,513 346,840 22,221 3,297 119,465 69,100 182,204 341,252 191,58 456,-22 935,250 206,117 188,136 332,252 109,88 274,150 455,135 421,-35 432,-421 1186,-582 227,-49 601,25 805,-380 33,-65 59,-145 66,-229 6,-73 2,-203 25,-263 23,-218 183,-538 286,-680 144,-198 331,-303 299,-657 -23,-249 -144,-333 -254,-466 -165,-199 -321,-562 -349,-846 -18,-187 0,-239 -80,-401 -52,-105 -142,-190 -230,-244 -126,-78 -215,-89 -383,-97 -343,-16 -782,-219 -995,-439 -231,-238 -625,-159 -707,-108l2 -4z"/>
  <path id="s" class="fil3" d="M5237 1135c-16,105 -5,309 -5,425 0,186 -12,1145 10,1250 75,359 519,468 765,202 33,-35 59,-76 82,-130l24 -166 -42 0c-1,2 -2,5 -3,7l-5 14c-1,3 -1,5 -2,7 -23,101 -30,194 -162,286 -225,155 -533,43 -597,-229 -18,-77 -15,-379 -9,-469l384 -5 -1 -55 -385 -2c11,-341 0,-699 1,-1042 0,-98 7,-145 66,-196 52,-44 127,-52 197,-18 99,48 232,156 298,218 197,183 325,329 456,585 677,1331 -316,2947 -1874,2873 -1101,-53 -2024,-1063 -1848,-2261 90,-614 427,-1033 776,-1301 99,-76 237,-187 356,-108 115,76 80,280 80,435 0,164 9,937 -2,1029 -29,-32 -41,-59 -68,-85 -206,-203 -575,-170 -717,130 -167,351 178,729 540,608 150,-50 267,-174 299,-337 21,-108 8,-1068 8,-1260 0,-93 14,-386 -20,-462 -33,-76 -51,-58 -55,-89 -186,-98 -254,-66 -468,100 -120,93 -252,218 -349,337 -1095,1336 -114,3412 1689,3323 992,-49 1771,-809 1907,-1742 71,-489 -52,-1060 -336,-1445 -70,-95 -130,-170 -205,-252 -92,-101 -389,-366 -536,-375 -126,-8 -240,89 -248,198l-1 2zm-740 1202c-197,28 -363,199 -333,434 25,193 210,361 437,328 190,-28 358,-205 324,-436 -27,-188 -206,-357 -429,-325l1 -1zm-1134 0c-523,87 -382,837 113,760 189,-29 354,-211 319,-438 -29,-188 -211,-359 -432,-322l0 0zm739 1930l46 0c2,-3 3,-9 4,-8l9 -651c0,-217 -5,-441 1,-657 20,8 118,204 376,209 187,4 324,-104 389,-213 189,-318 -59,-690 -405,-673 -176,8 -299,112 -366,233 -79,143 -53,372 -53,552 0,403 -1,806 0,1209l-1 -1z"/>
 </g>
</svg>
