<?xml version="1.0" encoding="UTF-8"?>
<!DOCTYPE svg PUBLIC "-//W3C//DTD SVG 1.1//EN" "http://www.w3.org/Graphics/SVG/1.1/DTD/svg11.dtd">
<!-- Creator: CorelDRAW X6 -->
<svg xmlns="http://www.w3.org/2000/svg" xml:space="preserve" width="84mm" height="41.943mm" version="1.1" style="shape-rendering:geometricPrecision; text-rendering:geometricPrecision; image-rendering:optimizeQuality; fill-rule:evenodd; clip-rule:evenodd"
viewBox="0 0 8400 4194"
 xmlns:xlink="http://www.w3.org/1999/xlink">
 <defs>
  <style type="text/css">
   <![CDATA[
    .fil0 {fill:#212121}
    .fil1 {fill:#DB2828}
    .fil2 {fill:white;fill-rule:nonzero}
   ]]>
  </style>
 </defs>
 <g id="l">
  <metadata id="CorelCorpID_0Corel-Layer"/>
  <path id="b" class="fil0" d="M0 0l6218 0 0 2025 -6218 0 0 -2025zm0 2169l8400 0 0 2025 -8400 0 0 -2025z"/>
  <polygon id="v" class="fil1" points="6366,0 8400,0 8400,2025 6366,2025 "/>
  <path id="c" class="fil2" d="M653 1607l0 -1170 155 0 0 576 474 -576 170 0 -461 559 541 611 -210 0 -515 -593 0 593 -155 0zm6307 27l0 -40 0 -1130 0 -40 389 0c150,0 264,22 342,65 78,43 138,107 182,190 44,84 66,184 66,302 0,7 0,13 0,20 0,7 0,13 0,20 0,111 -20,213 -60,306 -40,93 -102,167 -184,223 -82,56 -197,84 -343,84l-391 0zm167 -165l212 0c111,0 193,-18 248,-53 55,-35 98,-90 129,-166 29,-70 44,-148 46,-233 -2,-74 -15,-143 -40,-205 -27,-68 -70,-122 -130,-163 -60,-41 -170,-61 -329,-61l-137 0 0 397 222 -161 0 18 0 39 0 12 0 6 0 12 0 39 0 18 -104 76 104 75 0 18 0 39 0 13 0 5 0 13 0 39 0 18 -222 -161 0 368zm-6473 2342l0 -1170 389 0c150,0 264,22 342,65 78,43 138,107 182,190 44,84 66,184 66,302 0,111 -20,213 -60,306 -40,93 -102,167 -184,223 -82,56 -197,84 -343,84l-391 0zm167 -125l212 0c111,0 193,-18 248,-53 55,-35 98,-90 129,-166 31,-76 47,-160 47,-254 0,-82 -13,-157 -40,-225 -27,-68 -70,-122 -130,-163 -60,-41 -170,-61 -329,-61l-137 0 0 921zm1389 125l0 -1170 657 0 0 125 -490 0 0 372 411 0 0 125 -411 0 0 424 524 0 0 125 -691 0zm1152 -23l0 -165c94,43 163,70 207,79 44,9 84,13 121,13 67,0 121,-18 159,-55 39,-37 59,-80 59,-131 0,-39 -10,-74 -30,-107 -21,-32 -72,-71 -154,-118l-81 -47c-108,-61 -180,-117 -217,-168 -37,-51 -56,-107 -56,-169 0,-55 15,-107 44,-156 29,-49 69,-87 119,-114 49,-27 112,-41 187,-41 91,0 186,15 287,45l0 152c-88,-34 -148,-55 -181,-62 -33,-7 -66,-11 -98,-11 -68,0 -119,18 -151,53 -33,35 -49,71 -49,108 0,25 8,51 23,77 15,26 36,48 62,67 26,19 62,41 108,67l84 47c109,62 182,118 218,169 36,52 55,111 55,178 0,91 -35,171 -104,237 -70,67 -172,100 -308,100 -42,0 -82,-3 -121,-8 -39,-6 -100,-20 -182,-43zm1283 23l0 -1170 167 0 0 1170 -167 0zm1692 -32c-103,30 -178,47 -225,53 -47,6 -96,8 -147,8 -141,0 -251,-25 -332,-76 -81,-51 -142,-124 -184,-219 -42,-96 -63,-202 -63,-319 0,-180 48,-327 143,-442 96,-115 241,-172 435,-172 118,0 241,17 370,52l0 152c-119,-39 -201,-62 -245,-69 -45,-7 -87,-10 -127,-10 -141,0 -243,48 -306,143 -63,96 -94,211 -94,347 0,84 13,163 40,236 27,73 71,133 134,181 63,48 147,72 253,72 27,0 52,-1 76,-4 24,-3 58,-11 104,-25l0 -284 -201 -5 0 -171 367 0 0 553zm631 32l0 -1170 163 0 588 903 0 -903 142 0 0 1170 -162 0 -589 -905 0 905 -142 0zm-4744 -2205l0 -1170 167 0 0 1170 -167 0zm978 0l0 -1170 389 0c150,0 264,22 342,65 78,43 138,107 182,190 44,84 66,184 66,302 0,111 -20,213 -60,306 -40,93 -102,167 -184,223 -82,56 -197,84 -343,84l-391 0zm167 -125l212 0c111,0 193,-18 248,-53 55,-35 98,-90 129,-166 31,-76 47,-160 47,-254 0,-82 -13,-157 -40,-225 -27,-68 -70,-122 -130,-163 -60,-41 -170,-61 -329,-61l-137 0 0 921zm1490 102l0 -165c94,43 163,70 207,79 44,9 84,13 121,13 67,0 121,-18 159,-55 39,-37 59,-80 59,-131 0,-39 -10,-74 -30,-107 -21,-32 -72,-71 -154,-118l-81 -47c-108,-61 -180,-117 -217,-168 -37,-51 -56,-107 -56,-169 0,-55 15,-107 44,-156 29,-49 69,-87 119,-114 49,-27 112,-41 187,-41 91,0 186,15 287,45l0 152c-88,-34 -148,-55 -181,-62 -33,-7 -66,-11 -98,-11 -68,0 -119,18 -151,53 -33,35 -49,71 -49,108 0,25 8,51 23,77 15,26 36,48 62,67 26,19 62,41 108,67l84 47c109,62 182,118 218,169 36,52 55,111 55,178 0,91 -35,171 -104,237 -70,67 -172,100 -308,100 -42,0 -82,-3 -121,-8 -39,-6 -100,-20 -182,-43z"/>
 </g>
</svg>
