<?xml version="1.0" encoding="UTF-8"?>
<!DOCTYPE svg PUBLIC "-//W3C//DTD SVG 1.1//EN" "http://www.w3.org/Graphics/SVG/1.1/DTD/svg11.dtd">
<!-- Creator: CorelDRAW X6 -->
<svg xmlns="http://www.w3.org/2000/svg" xml:space="preserve" width="95.321mm" height="94.996mm" version="1.1" style="shape-rendering:geometricPrecision; text-rendering:geometricPrecision; image-rendering:optimizeQuality; fill-rule:evenodd; clip-rule:evenodd"
viewBox="0 0 9532 9500"
 xmlns:xlink="http://www.w3.org/1999/xlink">
 <defs>
  <style type="text/css">
   <![CDATA[
    .fil0 {fill:white}
   ]]>
  </style>
 </defs>
 <g id="L">
  <metadata id="CorelCorpID_0Corel-Layer"/>
  <path id="C" class="fil0" d="M3317 1066c-7,257 72,198 95,237 42,72 -82,805 688,665 209,-38 328,-127 431,-263 168,-221 90,-474 281,-401 56,21 92,157 120,221 129,295 240,425 593,455 253,21 410,-30 494,-201 63,-128 67,-309 103,-414 26,-76 36,-48 88,-87l16 -182c-159,-60 -538,-87 -728,-78 -250,12 -473,110 -707,111 -472,2 -425,-219 -1474,-63zm-2773 5575l131 -59c10,-5 18,-9 24,-15 6,-5 10,-10 12,-15 2,-5 3,-10 3,-14 0,-5 -1,-9 -3,-13l-21 -46 26 -12c3,2 6,6 9,10 3,4 7,9 11,14 4,5 7,11 10,16 3,6 6,11 8,16 5,11 8,22 10,33 2,11 1,21 -2,31 -3,10 -9,20 -19,29 -9,9 -23,18 -41,26l-131 59 13 28 -39 17 -13 -28 -62 28 -28 -62 62 -28 -31 -70 28 -13c6,7 13,15 21,26 7,11 14,23 20,36l1 3zm-20 -356l54 137c30,-12 49,-25 57,-41 8,-15 7,-34 -1,-57l-23 -58 26 -10c6,7 12,16 19,27 7,11 13,24 18,37 8,20 12,39 13,56 1,17 -2,32 -9,46 -7,14 -18,27 -34,38 -15,12 -36,22 -61,32 -25,10 -47,16 -66,18 -19,2 -36,1 -50,-3 -14,-4 -26,-12 -36,-22 -10,-11 -18,-24 -24,-39 -6,-16 -9,-31 -9,-45 0,-14 4,-28 11,-41 8,-13 19,-25 35,-36 16,-11 36,-22 61,-32l18 -7zm-12 77c-17,7 -31,13 -41,19 -10,6 -18,12 -23,18 -5,6 -8,11 -8,17 0,5 0,11 2,16 2,5 5,10 9,13 4,4 10,6 17,7 8,1 17,0 29,-2 12,-2 26,-7 43,-14l-29 -74zm-160 -205c3,8 7,15 12,20 5,5 12,9 22,11 9,2 21,2 35,0 14,-2 31,-6 51,-13 20,-7 36,-14 48,-21 12,-7 21,-14 27,-22 6,-8 9,-16 10,-24 1,-8 -1,-17 -4,-26l-20 -59 27 -9c6,7 12,17 18,28 6,12 12,24 16,38 6,19 9,36 9,52 0,16 -4,30 -12,43 -8,13 -20,25 -36,36 -16,11 -37,20 -62,29 -25,9 -48,13 -67,15 -19,1 -36,-1 -50,-6 -14,-5 -26,-14 -35,-25 -9,-12 -17,-26 -23,-44 -5,-14 -8,-27 -10,-40 -2,-13 -3,-24 -3,-33l27 -9 20 59zm187 -256l15 66 -385 88 -15 -66 121 -28c-7,-6 -13,-13 -18,-22 -5,-9 -9,-19 -11,-30 -3,-12 -4,-23 -4,-34 0,-11 2,-21 7,-30 5,-9 12,-17 23,-25 10,-7 24,-13 42,-17l193 -44 15 66 -193 44c-10,2 -17,5 -23,9 -6,4 -10,9 -13,13 -3,5 -5,10 -5,16 0,6 0,11 2,17 2,7 4,13 7,17 3,5 7,8 10,10l231 -53zm-354 -284c-2,-12 -3,-23 -2,-34 1,-11 4,-21 9,-30 5,-9 13,-17 24,-23 11,-7 25,-12 43,-15l195 -34 12 67 -195 34c-10,2 -17,4 -24,8 -6,4 -11,8 -14,13 -3,5 -5,10 -6,16 -1,6 0,11 1,17 1,7 3,13 7,18 3,5 6,8 10,11l233 -41 12 67 -278 49 -8 -47 15 -11 0 -3c-7,-5 -13,-12 -20,-21 -6,-9 -11,-22 -14,-39zm250 -279l8 67 -280 35 -8 -67 280 -35zm-381 48l67 -8 8 67 -67 8 -8 -67zm115 -215c1,9 3,16 6,23 4,7 10,12 18,16 8,4 20,8 34,9 14,2 32,2 53,0 21,-2 38,-4 52,-8 14,-4 24,-9 32,-15 8,-6 13,-13 15,-21 3,-8 4,-17 3,-27l-5 -62 28 -2c4,8 7,19 10,32 3,13 5,26 6,41 1,20 0,37 -4,52 -4,15 -12,28 -23,39 -11,11 -25,19 -44,26 -18,6 -41,10 -67,12 -27,2 -49,1 -68,-2 -19,-4 -35,-10 -47,-18 -12,-9 -22,-20 -28,-33 -6,-14 -10,-29 -11,-48 -1,-14 -1,-28 0,-41 1,-13 3,-24 6,-33l28 -2 5 62zm100 -255l1 31c0,5 1,10 3,15 2,5 4,10 9,13 4,4 9,7 16,10 7,2 15,4 25,3 10,0 18,-2 24,-5 7,-3 12,-6 16,-10 4,-4 6,-9 8,-14 1,-5 2,-10 2,-15 0,-7 -1,-13 -4,-19 -2,-5 -5,-9 -8,-12l-90 2zm142 50c0,12 -1,23 -3,34 -2,11 -7,20 -13,28 -7,8 -16,15 -27,20 -12,5 -27,8 -45,8 -18,0 -34,-2 -45,-6 -12,-4 -21,-11 -28,-19 -7,-8 -12,-18 -15,-29 -3,-11 -4,-24 -5,-37 0,-9 0,-17 1,-25 1,-8 2,-16 3,-23l-23 1c-23,1 -37,6 -45,17 -7,11 -11,25 -10,44l1 56 -28 1c-3,-9 -6,-19 -9,-32 -3,-13 -4,-24 -4,-36 0,-19 0,-36 3,-50 2,-14 7,-27 14,-36 7,-10 16,-18 29,-23 12,-5 29,-8 48,-8l192 -4 1 48 -17 9 0 3c6,6 11,14 16,23 5,10 8,22 8,38zm-404 -208l2 -68 395 11 -2 68 -395 -11zm196 -338c10,1 18,-2 25,-8 7,-6 13,-14 18,-23 5,-9 11,-20 16,-31 5,-11 12,-21 19,-30 7,-9 16,-17 27,-22 11,-6 24,-8 40,-7 17,1 31,5 41,11 11,6 19,14 24,25 6,11 9,24 10,39 1,15 1,33 -1,53 -1,14 -3,28 -7,41 -3,13 -7,23 -10,32l-28 -2 5 -62c2,-21 0,-38 -5,-49 -5,-11 -15,-18 -29,-19 -10,-1 -18,2 -25,8 -7,6 -13,14 -18,23 -5,9 -11,20 -16,31 -5,11 -12,21 -19,30 -7,9 -16,17 -27,23 -11,6 -24,8 -40,7 -15,-1 -28,-5 -38,-10 -10,-6 -17,-13 -23,-23 -5,-10 -9,-21 -10,-35 -1,-14 -1,-30 0,-47 1,-14 3,-28 7,-41 3,-13 7,-23 10,-32l28 2 -5 62c-1,16 1,29 5,39 5,10 13,16 24,17zm249 -255c-2,12 -4,23 -8,33 -4,10 -10,19 -17,26 -8,7 -18,12 -30,15 -12,3 -27,4 -46,1l-196 -25 9 -67 196 25c10,1 18,1 25,-1 7,-2 13,-4 17,-8 4,-4 8,-8 10,-13 2,-5 4,-11 4,-16 1,-7 1,-13 -1,-19 -2,-6 -4,-10 -6,-13l-235 -30 9 -67 280 36 -6 48 -18 6 0 3c5,7 9,15 12,26 3,11 4,24 2,41zm-6 -273c4,-2 7,-6 11,-10 3,-5 6,-10 8,-17 2,-7 2,-14 0,-21 -2,-7 -6,-13 -13,-20 -7,-6 -17,-12 -30,-18 -13,-6 -30,-11 -50,-16 -21,-5 -38,-7 -52,-8 -14,-1 -26,0 -35,3 -9,3 -16,7 -20,12 -5,5 -8,11 -9,18 -2,7 -2,13 -1,18 1,5 3,10 5,15l187 44zm-224 -107c3,-14 9,-26 16,-36 8,-10 18,-18 32,-24 13,-6 30,-9 49,-9 19,0 42,3 68,9 26,6 48,14 65,22 17,9 30,19 40,30 9,11 15,24 17,37 2,13 2,28 -2,43 -2,10 -6,18 -10,25 -4,7 -9,13 -15,18l118 28 -15 66 -385 -90 11 -47 18 -4 1 -3c-4,-7 -7,-16 -10,-27 -2,-11 -2,-24 2,-39zm290 -164c4,-2 7,-5 11,-10 4,-4 6,-10 8,-17 2,-7 2,-14 1,-21 -1,-7 -5,-14 -12,-20 -7,-7 -16,-13 -29,-19 -13,-6 -29,-12 -49,-18 -20,-6 -37,-9 -52,-11 -14,-1 -26,-1 -35,1 -9,2 -16,6 -21,11 -5,5 -8,11 -10,18 -2,7 -3,13 -2,18 1,5 2,10 4,15l184 53zm-219 -118c4,-13 10,-25 18,-35 8,-10 19,-17 33,-22 14,-5 30,-7 49,-6 19,1 42,5 67,12 26,7 47,16 63,26 17,10 29,20 38,32 9,12 14,24 16,38 2,14 0,28 -4,43 -3,9 -6,18 -11,25 -5,7 -10,13 -16,18l117 33 -19 65 -380 -109 13 -46 19 -3 1 -3c-4,-7 -7,-16 -8,-27 -2,-11 -1,-24 4,-39zm115 -244c-2,6 -2,12 -1,18 1,6 5,13 12,19 7,7 16,13 29,20 13,7 30,14 50,21 21,7 38,12 52,14 14,2 26,3 35,2 9,-1 16,-4 21,-8 5,-4 8,-9 10,-15 2,-6 2,-12 1,-18 -1,-6 -5,-13 -12,-19 -7,-7 -16,-13 -29,-20 -13,-7 -30,-14 -50,-21 -21,-7 -38,-12 -52,-14 -14,-2 -26,-3 -35,-2 -9,1 -16,4 -21,8 -5,4 -8,9 -10,15zm-35 -12c6,-17 14,-32 23,-43 9,-11 21,-20 35,-25 14,-5 31,-7 50,-6 19,1 41,6 67,15 25,9 46,18 62,29 16,11 28,22 36,35 8,13 12,27 13,42 1,15 -2,31 -8,48 -6,17 -14,32 -23,43 -9,11 -21,20 -35,25 -14,5 -31,7 -50,6 -19,-1 -41,-6 -67,-15 -25,-9 -46,-18 -62,-29 -16,-11 -28,-22 -36,-35 -8,-13 -12,-27 -13,-42 0,-15 2,-31 8,-49zm129 -322l45 18 -23 58c-3,7 -4,13 -4,19 0,6 1,11 3,14l207 82 -25 63 -262 -104 18 -45 24 0 1 -3c-3,-8 -5,-17 -5,-28 -1,-11 2,-25 8,-40l14 -34zm98 -98l131 60c10,5 19,8 27,8 8,1 14,1 19,-1 5,-2 10,-4 13,-7 3,-3 6,-7 8,-11l21 -46 26 12c0,4 -1,8 -2,14 -1,6 -2,11 -4,17 -2,6 -3,12 -6,18 -2,6 -4,12 -7,17 -5,11 -11,21 -18,29 -7,9 -15,15 -25,19 -10,4 -21,6 -34,5 -13,-1 -29,-5 -47,-14l-131 -60 -13 28 -39 -18 13 -28 -62 -28 28 -62 62 28 32 -69 28 13c-1,9 -3,20 -6,33 -3,13 -8,26 -14,39l-1 3zm3643 6276c-3,-3 -6,-6 -11,-9 -5,-3 -11,-5 -18,-6 -7,-1 -14,0 -20,2 -7,2 -13,7 -18,15 -5,7 -10,18 -15,31 -4,14 -8,31 -10,52 -3,21 -3,38 -3,53 1,14 3,26 7,34 3,9 8,15 14,19 6,4 12,6 19,7 7,1 13,0 18,-1 5,-2 10,-4 14,-6l24 -190zm-83 234c-14,-2 -27,-6 -38,-13 -11,-7 -20,-16 -27,-29 -7,-13 -12,-28 -14,-48 -2,-19 -2,-42 1,-68 3,-27 8,-49 15,-67 7,-18 16,-32 26,-43 10,-10 22,-18 35,-21 13,-4 27,-5 43,-3 10,1 18,4 26,7 8,4 14,8 20,13l15 -120 67 8 -49 392 -48 -6 -6 -18 -3 0c-7,5 -15,9 -25,12 -10,3 -23,4 -39,2zm405 -86l-146 -11c-2,32 2,55 12,69 11,14 28,22 52,23l62 4 -2 28c-9,2 -20,4 -33,6 -13,1 -27,1 -41,0 -22,-2 -40,-6 -56,-12 -16,-6 -28,-16 -38,-28 -9,-12 -16,-28 -20,-47 -4,-19 -5,-42 -3,-68 2,-27 6,-49 12,-67 6,-18 14,-33 24,-44 10,-11 22,-19 35,-23 14,-4 29,-6 46,-5 17,1 32,5 45,11 13,6 23,15 32,28 8,12 14,28 18,47 4,19 4,42 2,68l-1 20zm-65 -44c1,-18 1,-33 0,-45 -1,-12 -3,-21 -6,-28 -3,-7 -7,-12 -11,-15 -5,-3 -10,-4 -16,-5 -6,0 -11,0 -16,3 -5,2 -10,6 -13,13 -4,7 -7,16 -10,27 -3,11 -5,26 -6,45l79 6zm168 -44c0,10 3,18 9,24 6,6 15,12 24,17 10,5 20,10 32,15 11,5 22,11 32,17 10,7 18,15 24,26 6,11 9,24 9,39 0,17 -3,31 -8,42 -5,11 -13,19 -23,25 -10,6 -23,10 -38,12 -15,2 -33,3 -53,3 -14,0 -28,-2 -41,-4 -13,-3 -24,-5 -32,-9l1 -28 62 1c21,0 38,-2 49,-8 11,-6 17,-16 17,-30 0,-10 -3,-18 -9,-24 -6,-6 -15,-12 -24,-17 -10,-5 -20,-10 -32,-14 -11,-5 -22,-11 -32,-17 -10,-7 -18,-15 -24,-26 -6,-10 -9,-24 -9,-40 0,-15 3,-28 8,-38 5,-10 12,-18 22,-24 9,-6 21,-10 35,-12 14,-2 30,-3 47,-3 14,0 28,2 41,4 13,3 24,5 32,9l-1 28 -62 -1c-16,0 -29,2 -39,8 -10,5 -15,14 -15,25zm252 216l-68 2 -9 -282 68 -2 9 282zm-12 -384l2 68 -68 2 -2 -68 68 -2zm223 367c-5,5 -12,9 -20,12 -8,3 -17,5 -27,6 -15,1 -30,0 -43,-5 -13,-4 -24,-12 -34,-23 -10,-11 -18,-25 -24,-44 -6,-18 -10,-41 -12,-67 -2,-27 -1,-49 2,-68 4,-19 10,-35 19,-47 9,-12 21,-22 37,-28 15,-7 33,-11 54,-12 20,-2 37,-2 51,0 14,2 29,5 43,9l20 248c4,51 -3,88 -21,111 -18,23 -48,36 -89,40 -14,1 -28,1 -41,0 -13,-1 -24,-3 -33,-5l-2 -28 62 -5c21,-2 37,-9 47,-23 10,-14 14,-37 11,-69zm-19 -239l-25 2c-9,1 -16,3 -23,7 -6,4 -12,10 -16,18 -4,8 -7,20 -9,34 -2,14 -1,32 0,53 2,21 4,38 8,52 4,14 8,24 13,32 5,8 11,13 17,16 6,3 13,4 20,3 7,-1 13,-2 18,-5 5,-3 9,-6 12,-9l-16 -203zm246 -63c12,-2 23,-2 34,-1 11,1 21,4 29,10 9,6 16,14 22,25 6,11 10,26 13,44l26 196 -67 9 -26 -196c-1,-10 -4,-18 -7,-24 -3,-6 -8,-11 -12,-14 -5,-3 -10,-5 -15,-6 -6,-1 -11,-1 -17,0 -7,1 -13,3 -18,6 -5,3 -9,6 -11,9l31 235 -67 9 -37 -280 48 -6 11 16 3 0c5,-6 13,-13 22,-19 9,-6 23,-10 39,-12zm3718 -5694c-2,4 -3,8 -4,14 -1,6 0,12 2,19 2,7 5,13 10,18 5,5 12,9 21,11 9,2 21,3 35,1 14,-1 31,-5 52,-11 20,-6 37,-12 49,-18 13,-6 22,-13 29,-19 7,-7 11,-13 12,-20 1,-7 1,-14 -1,-21 -2,-7 -5,-12 -8,-16 -3,-4 -7,-7 -11,-11l-185 53zm248 -15c4,13 5,27 3,39 -2,13 -7,25 -16,36 -9,11 -22,22 -38,31 -17,10 -38,18 -63,25 -26,7 -48,11 -67,12 -19,1 -36,-2 -49,-7 -14,-5 -25,-13 -33,-24 -9,-11 -15,-23 -19,-38 -3,-9 -4,-18 -4,-27 0,-9 2,-16 4,-23l-117 33 -19 -65 380 -108 13 46 -14 13 1 3c7,4 14,10 21,19 7,8 13,20 17,35zm78 321l-47 11 -14 -60c-2,-7 -4,-13 -8,-17 -3,-5 -7,-8 -11,-10l-217 50 -15 -66 275 -64 11 47 -20 13 1 3c7,5 14,11 21,20 7,9 12,21 16,38l8 36zm1 152c-1,-6 -4,-12 -8,-17 -4,-5 -11,-9 -19,-11 -9,-3 -21,-4 -35,-3 -14,0 -32,2 -54,6 -21,4 -39,8 -53,13 -14,5 -24,10 -32,15 -7,6 -12,11 -14,17 -2,6 -3,12 -2,18 1,6 4,12 8,17 4,5 11,9 19,11 9,3 21,4 35,3 14,0 32,-2 54,-6 21,-4 39,-8 53,-13 14,-5 24,-10 32,-15 7,-6 12,-11 14,-17 2,-6 3,-12 2,-18zm36 -6c3,18 4,35 1,49 -3,15 -9,28 -19,39 -10,12 -23,21 -41,29 -17,8 -39,15 -66,19 -26,5 -49,6 -68,5 -19,-2 -35,-6 -49,-13 -13,-7 -24,-17 -31,-30 -8,-13 -13,-28 -16,-46 -3,-18 -4,-35 -1,-49 3,-15 9,-28 19,-39 10,-12 23,-21 41,-29 17,-8 39,-15 66,-19 26,-5 49,-6 68,-5 19,2 35,6 49,13 13,7 24,17 31,30 8,13 13,28 16,46zm-227 354c-5,-5 -9,-12 -13,-19 -4,-8 -6,-17 -7,-26 -2,-15 -1,-30 2,-43 4,-13 11,-25 21,-35 10,-10 25,-19 42,-26 18,-7 40,-12 67,-16 27,-3 49,-4 68,-1 19,3 35,8 48,17 13,9 23,20 30,35 7,15 12,33 15,54 3,20 3,37 2,51 -1,14 -3,29 -7,44l-246 32c-50,6 -88,1 -112,-16 -24,-17 -39,-46 -44,-87 -2,-14 -2,-28 -2,-41 1,-13 2,-24 4,-33l28 -4 8 62c3,21 11,36 25,45 14,9 37,12 70,8zm238 -31l-3 -25c-1,-9 -4,-16 -8,-22 -4,-6 -10,-11 -19,-15 -9,-4 -20,-6 -34,-7 -14,-1 -32,0 -53,3 -21,3 -38,6 -52,11 -13,4 -24,9 -31,15 -7,6 -12,12 -15,18 -2,7 -3,13 -2,20 1,7 3,13 6,18 3,5 6,9 9,11l202 -26zm63 310l-48 4 -5 -62c-1,-7 -2,-13 -5,-18 -3,-5 -6,-9 -9,-12l-222 17 -5 -68 281 -22 4 48 -22 10 0 3c6,6 12,13 17,23 5,10 9,23 10,40l3 37zm-141 182l-1 -31c0,-5 -1,-10 -3,-15 -2,-5 -4,-9 -9,-13 -4,-4 -9,-7 -16,-9 -7,-2 -15,-4 -25,-3 -10,0 -18,2 -24,5 -7,3 -12,6 -16,10 -4,4 -6,9 -8,14 -1,5 -2,10 -2,15 0,7 1,13 4,19 2,5 5,9 8,12l90 -2zm-142 -50c0,-12 1,-23 3,-34 2,-11 7,-20 13,-28 7,-8 16,-15 27,-20 12,-5 27,-8 45,-8 18,0 34,1 45,6 12,4 21,11 28,19 7,8 12,18 15,29 3,11 4,24 5,37 0,9 0,17 -1,25 -1,8 -2,16 -3,23l23 -1c23,-1 37,-6 45,-17 7,-11 11,-25 10,-44l-1 -56 28 -1c3,9 6,19 9,32 3,13 4,24 4,36 1,19 0,36 -3,50 -2,14 -7,27 -13,37 -7,10 -16,18 -29,23 -12,5 -28,8 -48,9l-192 5 -1 -48 17 -9 0 -3c-6,-6 -11,-14 -16,-23 -5,-10 -8,-22 -8,-38zm1 400l5 -68 197 15c10,1 18,0 25,-2 7,-2 12,-5 16,-8 4,-4 7,-8 9,-12 2,-5 3,-9 3,-13 1,-7 0,-13 -2,-19 -2,-5 -4,-10 -7,-13l-236 -18 5 -68 281 21 -4 48 -18 7 0 3c5,6 10,15 14,25 4,10 5,24 4,41 -1,14 -4,26 -9,36 -5,10 -11,18 -19,24 6,9 11,20 14,32 3,12 4,26 3,43 -1,11 -3,22 -6,32 -3,10 -8,19 -16,26 -7,7 -17,13 -29,17 -12,4 -27,5 -46,3l-197 -15 5 -68 197 15c10,1 18,0 25,-2 7,-2 12,-5 16,-9 4,-4 7,-8 9,-13 2,-5 3,-10 3,-15 1,-7 0,-14 -1,-19 -1,-6 -3,-11 -5,-15 -4,1 -10,2 -18,3 -8,1 -16,1 -25,0l-197 -15zm-43 415l8 -67 196 25c10,1 18,1 25,-1 7,-2 12,-4 17,-8 4,-3 8,-7 10,-12 2,-4 3,-9 4,-13 1,-7 1,-13 -1,-19 -2,-6 -4,-10 -6,-13l-235 -30 8 -67 280 35 -6 48 -18 6 0 3c5,7 9,15 12,26 3,11 4,24 2,41 -2,14 -5,26 -10,35 -5,9 -12,17 -20,23 6,9 10,20 13,32 2,12 3,27 1,43 -1,11 -4,22 -8,31 -4,10 -9,18 -17,25 -8,7 -18,12 -30,15 -12,3 -27,3 -46,1l-196 -25 8 -67 196 25c10,1 18,1 25,-1 7,-2 13,-4 17,-8 4,-3 8,-8 10,-12 2,-5 4,-10 4,-15 1,-7 1,-14 0,-19 -1,-6 -2,-11 -4,-15 -4,1 -10,2 -18,2 -8,0 -16,0 -25,-1l-196 -25zm-52 277l15 -66 275 63 -15 66 -275 -63zm374 86l-66 -15 15 -66 66 15 -15 66zm-144 187c-3,12 -8,22 -13,32 -5,9 -12,17 -21,23 -9,6 -19,9 -32,11 -13,1 -28,0 -45,-6l-190 -54 18 -65 190 54c9,3 18,4 25,3 7,-1 13,-3 18,-5 5,-3 9,-7 12,-12 3,-5 5,-10 7,-15 2,-7 3,-13 2,-19 -1,-6 -2,-10 -4,-14l-228 -64 18 -65 272 77 -13 46 -19 4 -1 3c4,7 7,17 8,28 2,11 0,25 -4,41zm-355 208c-2,-7 -3,-14 -3,-23 0,-9 2,-18 5,-27 5,-15 12,-27 21,-37 9,-10 20,-18 34,-22 14,-5 30,-6 50,-5 19,1 41,7 67,15 25,9 46,18 62,29 16,11 28,23 36,36 8,13 12,28 12,45 0,16 -3,35 -10,55 -6,19 -13,34 -20,47 -7,12 -16,24 -26,36l-235 -79c-48,-16 -79,-37 -93,-63 -14,-26 -15,-58 -2,-97 5,-14 10,-26 16,-38 6,-12 12,-21 18,-28l27 9 -20 59c-7,20 -6,37 3,52 9,15 28,27 59,38zm227 77l8 -24c3,-8 4,-16 3,-23 -1,-7 -4,-15 -10,-22 -6,-7 -15,-15 -28,-22 -12,-7 -29,-14 -48,-21 -20,-7 -37,-11 -51,-13 -14,-2 -26,-2 -35,0 -9,2 -16,5 -21,10 -5,5 -9,11 -11,17 -2,7 -3,13 -3,19 0,6 2,10 4,14l193 65zm-5632 -5774l-65 19 -54 -190c-3,-9 -6,-17 -10,-23 -4,-6 -9,-10 -14,-13 -5,-3 -10,-4 -15,-4 -5,0 -9,0 -13,1 -7,2 -13,5 -17,8 -4,4 -8,7 -10,11l65 228 -65 19 -77 -271 46 -13 13 14 3 -1c4,-7 11,-14 19,-22 8,-7 21,-13 37,-18 14,-4 26,-5 37,-4 11,1 20,4 29,9 6,-9 15,-17 25,-24 10,-7 23,-13 40,-17 11,-3 22,-5 32,-5 10,0 20,2 30,6 9,4 18,12 25,22 8,10 14,24 19,42l54 190 -65 19 -54 -190c-3,-9 -6,-17 -11,-23 -4,-6 -9,-10 -14,-13 -5,-3 -10,-4 -15,-4 -5,0 -10,1 -15,2 -7,2 -13,5 -18,8 -5,3 -9,6 -13,10 3,4 5,9 9,16 3,7 6,15 8,23l54 190zm298 -213l-30 7c-5,1 -9,3 -14,6 -5,3 -8,6 -11,11 -3,5 -5,11 -6,18 -1,7 -1,15 2,25 2,10 5,17 9,23 4,6 8,10 13,13 5,3 10,5 15,5 5,0 10,0 15,-1 7,-2 13,-4 17,-7 5,-3 8,-7 10,-11l-20 -88zm-21 150c-12,3 -23,4 -34,4 -11,0 -21,-2 -30,-7 -9,-5 -17,-12 -25,-23 -7,-10 -13,-24 -17,-42 -4,-18 -5,-33 -3,-46 2,-12 6,-23 13,-31 7,-8 15,-15 25,-20 10,-5 22,-9 35,-12 8,-2 17,-3 25,-4 8,-1 16,-1 23,-1l-5 -22c-5,-22 -14,-35 -26,-40 -12,-5 -27,-5 -45,-1l-55 13 -6 -28c8,-5 18,-10 29,-15 12,-5 23,-9 34,-11 19,-4 35,-7 50,-7 15,-1 27,1 38,6 11,5 20,12 28,24 8,11 14,26 18,45l43 187 -47 11 -12 -15 -3 1c-5,7 -11,14 -20,20 -8,7 -20,12 -36,16zm276 -346c12,-2 23,-2 34,-1 11,1 21,5 29,10 9,6 16,14 22,25 6,11 10,26 13,44l25 196 -67 9 -25 -196c-1,-10 -4,-18 -7,-24 -3,-6 -7,-11 -12,-14 -5,-3 -10,-5 -15,-6 -6,-1 -11,-1 -17,0 -7,1 -13,3 -18,6 -5,3 -9,6 -11,9l30 235 -67 9 -36 -280 48 -6 11 16 3 0c5,-6 13,-13 22,-18 9,-6 23,-10 39,-12zm312 120l-31 2c-5,0 -10,2 -15,3 -5,2 -9,5 -13,9 -4,4 -7,10 -9,17 -2,7 -3,15 -2,25 1,10 3,18 6,24 3,6 7,11 11,15 4,4 9,6 14,7 5,1 10,1 15,1 7,-1 13,-2 18,-5 5,-3 9,-6 12,-9l-7 -90zm-43 145c-12,1 -23,1 -34,-1 -11,-2 -20,-6 -29,-12 -8,-6 -15,-15 -21,-26 -6,-11 -9,-26 -10,-45 -1,-18 0,-34 4,-46 4,-12 10,-22 17,-29 8,-7 17,-13 28,-16 11,-3 23,-5 37,-6 9,-1 17,-1 25,0 8,1 16,1 23,2l-2 -23c-2,-23 -8,-37 -19,-44 -11,-7 -26,-9 -44,-8l-56 4 -2 -28c8,-4 19,-7 31,-10 12,-3 24,-5 35,-6 19,-1 36,-1 50,0 14,2 27,5 37,12 10,6 18,15 24,28 6,12 9,28 11,48l15 191 -48 4 -10 -16 -3 0c-6,6 -13,12 -22,17 -9,5 -22,9 -38,10zm329 -31c-6,4 -12,8 -21,11 -8,3 -17,4 -27,5 -15,0 -30,-2 -42,-7 -13,-5 -24,-13 -33,-25 -9,-11 -16,-26 -21,-45 -5,-19 -8,-41 -9,-68 -1,-27 1,-49 6,-68 5,-19 12,-34 22,-46 10,-12 23,-21 38,-26 15,-6 34,-9 55,-9 20,-1 37,0 51,3 14,2 28,6 43,12l6 248c1,51 -8,87 -27,109 -19,22 -50,34 -91,35 -14,0 -28,0 -41,-2 -13,-2 -24,-4 -33,-7l-1 -28 62 -2c21,-1 37,-7 48,-21 11,-13 16,-36 15,-68zm-6 -240l-25 1c-9,0 -16,2 -23,5 -7,3 -12,9 -17,17 -5,8 -8,19 -11,33 -2,14 -3,32 -3,53 1,21 2,39 5,52 3,14 7,25 12,33 5,8 10,13 17,17 6,3 13,4 20,4 7,0 13,-1 19,-4 5,-2 9,-5 12,-8l-5 -203zm351 133l-147 -4c-1,32 4,55 15,68 11,13 29,20 53,21l62 2 -1 28c-9,3 -20,5 -33,7 -13,2 -27,3 -41,2 -22,-1 -41,-4 -57,-9 -16,-6 -29,-14 -39,-26 -10,-12 -17,-27 -22,-46 -5,-19 -7,-41 -6,-68 1,-27 4,-49 9,-68 5,-18 13,-33 22,-45 9,-11 21,-20 34,-25 13,-5 29,-7 46,-7 17,0 32,3 45,9 13,6 24,14 33,26 9,12 15,27 20,46 4,19 6,41 6,68l-1 20zm-67 -41c0,-18 0,-34 -2,-45 -2,-12 -4,-21 -7,-28 -3,-7 -7,-12 -12,-14 -5,-3 -10,-4 -16,-4 -6,0 -11,1 -16,3 -5,2 -9,7 -13,14 -4,7 -7,16 -9,27 -2,12 -4,27 -4,45l79 2zm328 190l-67 -9 25 -196c1,-10 1,-18 -1,-25 -2,-7 -4,-12 -8,-17 -3,-4 -7,-8 -12,-10 -4,-2 -9,-3 -13,-4 -7,-1 -13,-1 -19,1 -6,2 -10,4 -13,6l-30 235 -67 -9 36 -280 48 6 6 18 3 0c7,-5 15,-9 26,-12 11,-3 24,-4 41,-2 14,2 26,5 35,10 9,5 17,12 23,20 9,-6 20,-10 32,-13 12,-2 27,-3 43,0 11,1 22,4 31,8 10,4 18,9 25,17 7,8 12,18 15,30 3,12 3,27 1,46l-25 196 -67 -9 25 -196c1,-10 1,-18 -1,-25 -2,-7 -4,-13 -8,-17 -3,-4 -8,-8 -12,-10 -5,-2 -10,-4 -15,-4 -7,-1 -14,-1 -19,0 -6,1 -11,2 -15,4 1,4 2,10 2,18 0,8 0,16 -1,25l-25 196zm428 -54l-144 -26c-6,32 -4,55 5,70 9,15 25,24 49,29l61 11 -5 28c-9,1 -20,2 -33,2 -13,0 -27,-1 -41,-4 -21,-4 -40,-10 -54,-18 -15,-8 -26,-19 -34,-32 -8,-13 -13,-30 -15,-49 -2,-19 0,-42 4,-68 5,-26 11,-48 19,-66 8,-17 18,-31 29,-41 11,-10 23,-16 38,-19 14,-3 29,-3 46,0 17,3 31,8 43,16 12,8 22,18 29,31 7,13 11,29 13,48 2,19 0,42 -5,68l-3 19zm-60 -51c3,-18 5,-33 5,-45 0,-12 -1,-21 -3,-29 -2,-7 -5,-13 -10,-16 -4,-3 -9,-5 -15,-6 -6,-1 -11,-1 -16,1 -5,2 -10,5 -15,11 -5,6 -9,15 -13,26 -4,11 -8,26 -11,44l78 14zm281 -66c12,3 22,6 32,11 10,5 18,11 24,20 6,8 10,19 12,31 2,12 1,28 -3,46l-44 192 -66 -15 44 -192c2,-10 3,-18 2,-25 -1,-7 -3,-13 -6,-18 -3,-5 -7,-9 -12,-11 -5,-3 -10,-5 -16,-6 -7,-2 -13,-2 -19,-1 -6,1 -10,3 -14,5l-53 231 -66 -15 63 -275 47 11 4 18 3 1c7,-4 16,-7 27,-10 11,-2 25,-2 41,2zm235 125l-46 136c-4,11 -6,20 -6,28 0,8 1,14 3,19 2,5 5,9 8,12 4,3 7,5 11,6l48 16 -9 27c-4,0 -8,0 -14,0 -6,-1 -12,-1 -18,-2 -6,-1 -12,-2 -19,-4 -6,-2 -12,-3 -17,-5 -11,-4 -22,-9 -31,-15 -9,-6 -16,-13 -22,-22 -5,-9 -8,-20 -9,-34 0,-13 2,-29 9,-48l46 -136 -29 -10 14 -40 29 10 22 -64 64 22 -22 64 72 24 -10 29c-9,0 -20,-1 -33,-3 -13,-2 -26,-5 -40,-10l-3 -1zm228 192c1179,459 2118,1397 2579,2575l-48 15c-455,-1163 -1383,-2088 -2546,-2542l15 -48zm2531 5989c-581,1371 -1818,2397 -3318,2683l-8 -49c1482,-283 2705,-1297 3280,-2652l47 18zm-5148 2659c-1312,-288 -2411,-1144 -3026,-2298l41 -20 0 -8c607,1143 1695,1992 2994,2278l-10 49zm-3037 -6531c499,-948 1324,-1698 2327,-2100l18 47c-989,397 -1804,1137 -2298,2072l-46 -19zm5695 -2251c1223,473 2196,1445 2671,2667l-49 15c-469,-1206 -1431,-2165 -2637,-2633l15 -49zm2621 6172c-599,1417 -1877,2477 -3426,2772l-8 -51c1531,-292 2795,-1339 3387,-2740l48 18zm-5306 2747c-1355,-296 -2490,-1181 -3124,-2373l46 -23c627,1178 1748,2052 3088,2346l-10 50zm-3139 -6721c514,-984 1369,-1762 2407,-2178l18 48c-1025,411 -1869,1178 -2378,2149l-48 -20zm1299 -545c78,44 147,100 221,153 122,88 116,71 137,199 -20,1 -89,-12 -110,-22 -39,-21 -223,-289 -248,-330zm4751 5197c-28,-4 1,8 -28,-12 -13,-9 -22,-19 -34,-32 -112,-123 -50,-220 -5,-402 11,-46 19,-28 -25,-75 -44,78 -75,246 -59,335 2,9 3,18 4,28 2,19 1,15 0,31 -137,-144 -131,-185 -76,-390 19,-72 47,-82 -1,-136 -33,61 -62,189 -61,259 1,38 13,51 -20,80 -51,-47 6,-288 49,-369 -222,-248 -800,-803 -1072,-1075l-712 -712 -712 712c-271,271 -850,827 -1072,1075 43,81 99,322 49,369 -33,-29 -21,-42 -20,-80 1,-70 -28,-198 -61,-259 -48,54 -20,64 -1,136 55,205 60,246 -76,390 -1,-17 -1,-12 0,-31 1,-10 3,-19 4,-28 15,-89 -16,-258 -59,-335 -44,47 -36,28 -25,75 45,182 107,279 -5,402 -11,13 -21,22 -34,32 -29,20 0,7 -28,12 -3,-19 -1,0 -3,-27l-20 -166c-32,-142 -60,-132 -20,-192 52,107 82,294 43,384l-112 105c1,-12 2,-16 3,-28l-3 -139c-10,-60 -26,-135 -56,-197 -46,48 -36,29 -25,75 52,221 123,277 -55,453 -6,-37 8,-64 8,-105 1,-81 -29,-210 -60,-283 -53,24 -26,65 -11,118 64,226 67,267 -71,404 -1,-141 21,-232 -49,-379l-81 52 -21 -22 57 -72c-145,-87 -327,-48 -382,-51 121,-109 139,-125 267,-105 190,31 195,81 261,25 -128,-70 -260,-57 -393,-52 125,-125 137,-127 263,-105 218,38 202,83 266,21 -66,-33 -136,-44 -205,-56 -104,-18 -81,-4 -185,7 22,-31 88,-93 123,-108 62,-27 245,21 315,41 42,12 21,19 66,4 -7,-22 9,-1 -15,-23l-76 -24c-76,-17 -107,-29 -192,-27 -60,1 -47,15 -99,9 133,-125 155,-144 395,-77 54,15 82,43 134,-6 -49,-28 -160,-49 -204,-56 -109,-18 -90,4 -187,7 88,-113 160,-122 257,-109 45,6 84,17 131,29 132,34 85,44 136,-3 -179,-94 -329,-31 -328,-79 0,-37 158,-12 174,-9 46,9 143,34 184,56 363,-330 733,-730 1083,-1081l703 -703 -2206 -2206c-127,-128 -135,-100 -275,-138 2,23 -16,129 -21,168 -9,68 -12,110 -28,177 -34,-59 -64,-152 -89,-221 -66,-180 -214,-527 -254,-675 141,51 823,299 912,350l-292 43c-41,6 -62,11 -98,-25 104,111 -19,106 145,267 624,611 1271,1271 1890,1890l342 342 342 -342c619,-619 1266,-1280 1890,-1890 165,-161 41,-156 145,-267 -36,36 -57,30 -98,25l-292 -43c89,-51 771,-299 912,-350 -40,148 -188,495 -254,675 -25,68 -55,161 -89,221 -16,-67 -19,-109 -28,-177 -5,-39 -22,-145 -21,-168 -140,38 -148,9 -275,138l-2206 2206 703 703c350,350 721,751 1083,1081 41,-22 138,-47 184,-56 16,-3 174,-28 174,9 0,48 -150,-14 -328,79 52,46 4,37 136,3 47,-12 86,-23 131,-29 97,-13 169,-3 257,109 -97,-3 -78,-25 -187,-7 -44,7 -155,29 -204,56 52,49 80,22 134,6 240,-67 263,-49 395,77 -52,7 -39,-8 -99,-9 -84,-1 -116,10 -192,27l-76 24c-24,21 -8,1 -15,23 45,16 23,8 66,-4 70,-20 252,-68 315,-41 35,15 101,77 123,108 -104,-11 -82,-25 -185,-7 -69,12 -139,23 -205,56 64,61 48,17 266,-21 126,-22 138,-20 263,105 -133,-5 -265,-18 -393,52 66,56 71,6 261,-25 128,-21 146,-4 267,105 -55,3 -237,-36 -382,51l57 72 -21 22 -81 -52c-70,147 -48,237 -49,379 -138,-137 -135,-178 -71,-404 15,-52 42,-94 -11,-118 -31,73 -60,202 -60,283 0,41 14,67 8,105 -178,-176 -108,-232 -55,-453 11,-46 21,-27 -25,-75 -30,63 -47,137 -56,197l-3 139c1,12 3,16 3,28l-112 -105c-39,-90 -8,-277 43,-384 40,59 11,49 -20,192l-20 166c-1,27 0,8 -3,27zm239 -189c36,43 30,34 15,83l-62 254c-38,-83 13,-269 46,-337zm-139 -130c60,27 6,99 -5,153l-37 179c-36,-75 6,-247 42,-332zm301 236c83,-40 260,-77 335,-42 -36,14 -154,23 -248,56 -60,21 -47,30 -87,-14zm-423 -365c40,44 28,33 13,82l-40 165c-8,38 -5,52 -16,88 -33,-48 -15,-112 -5,-167 11,-60 18,-117 47,-169zm29 -27c74,-41 274,-78 334,-43 -45,17 -103,16 -167,33 -160,43 -120,55 -167,10zm-163 -109c61,71 9,35 -28,244 -3,17 -4,26 -7,43 -6,42 7,-25 -2,18 -6,27 4,-6 -9,32 -28,-48 -14,-34 -13,-85 2,-73 26,-183 59,-253zm423 370c85,-43 268,-81 336,-45l-245 55c-66,20 -41,35 -91,-9zm-136 -135c52,-28 193,-58 245,-62 66,-4 64,1 92,18l-84 15c-31,5 -49,9 -78,17 -157,40 -118,60 -175,12zm-261 -261c76,-39 268,-86 337,-43 -36,12 -3,3 -41,10 -87,14 -109,13 -200,42 -70,22 -43,37 -96,-9zm501 556c44,43 34,27 16,80 -37,110 -44,216 -60,254 -37,-61 5,-257 43,-333zm-5156 -5050c58,73 113,152 165,226 46,65 29,127 4,230l-154 -387c-1,-2 -9,-26 -9,-27l-6 -42zm125 -141c30,22 183,71 235,90 54,20 201,71 240,99 -149,34 -170,38 -239,-13 -63,-47 -187,-123 -236,-176zm5331 49c-78,44 -147,100 -221,153 -122,88 -116,71 -137,199 20,1 89,-12 110,-22 39,-21 223,-289 248,-330zm-4990 5008c-36,43 -30,34 -15,83l62 254c38,-83 -13,-269 -46,-337zm139 -130c-60,27 -6,99 5,153l37 179c36,-75 -6,-247 -42,-332zm-301 236c-83,-40 -260,-77 -335,-42 36,14 154,23 248,56 60,21 47,30 87,-14zm423 -365c-40,44 -28,33 -13,82l40 165c8,38 5,52 16,88 33,-48 15,-112 5,-167 -11,-60 -18,-117 -47,-169zm-29 -27c-74,-41 -274,-78 -334,-43 45,17 103,16 167,33 160,43 120,55 167,10zm163 -109c-61,71 -9,35 28,244 3,17 4,26 7,43 6,42 -7,-25 2,18 6,27 -4,-6 9,32 28,-48 14,-34 13,-85 -2,-73 -26,-183 -59,-253zm-423 370c-85,-43 -268,-81 -336,-45l245 55c66,20 41,35 91,-9zm136 -135c-52,-28 -193,-58 -245,-62 -66,-4 -64,1 -92,18l84 15c31,5 49,9 78,17 157,40 118,60 175,12zm261 -261c-76,-39 -268,-86 -337,-43 36,12 3,3 41,10 87,14 109,13 200,42 70,22 43,37 96,-9zm-501 556c-44,43 -34,27 -16,80 37,110 44,216 60,254 37,-61 -5,-257 -43,-333zm5156 -5050c-58,73 -113,152 -165,226 -46,65 -29,127 -4,230l154 -387c1,-2 9,-26 9,-27l6 -42zm-125 -141c-30,22 -183,71 -235,90 -54,20 -201,71 -240,99 149,34 170,38 239,-13 63,-47 187,-123 236,-176zm-4699 2514l-2 788c-369,221 -696,294 -1107,258 -177,-15 -192,-93 -214,-244 -156,-44 -196,-125 -190,-283 -179,-113 -303,-235 -84,-426 -29,-362 187,-317 466,-317 243,0 503,-21 426,317 188,181 105,263 -32,413 30,145 7,159 -76,261l9 125c213,38 499,-62 658,-196l2 -623c-160,-123 -229,-148 -348,-306 -117,-154 -138,-387 -209,-448 -118,75 -97,234 -100,357l-138 -23c-68,-409 313,-687 429,-295 128,433 178,390 511,641zm-835 -43l-1 86c-95,48 -522,48 -609,4l-16 -95c88,-57 558,-61 626,5zm-116 923c-71,36 -176,48 -228,-21 50,-82 221,-99 228,21zm80 -258c-83,58 -419,62 -494,-2l-5 -85c94,-46 207,-28 307,-29 111,-1 210,-18 192,116zm123 -376l-9 101c-107,34 -713,37 -793,-14l-12 -88c81,-55 744,-62 814,0zm2786 2249l110 108c76,-47 248,-284 388,-349 326,-150 691,211 565,535 -46,118 -148,198 -220,271 -47,47 -705,714 -735,730l-702 -702c-70,-64 -189,-178 -232,-261 -183,-349 249,-767 597,-546 28,18 51,43 72,55 41,-41 97,-89 131,-135 -355,-346 -886,-131 -1012,291 -47,157 -15,330 58,453 56,95 178,205 261,288l758 758c19,20 50,54 71,68 23,-13 128,-124 156,-152l771 -771c94,-94 202,-190 235,-386 57,-339 -203,-662 -509,-712 -207,-34 -355,32 -477,126l-156 152c-50,47 -104,108 -151,158l21 22zm3973 -2514c97,109 42,186 36,289 -1,23 16,39 30,75 13,32 23,51 30,88 19,112 -43,205 -99,249 -94,74 -169,63 -304,63l-1468 0c-97,0 -264,14 -346,-21 -191,-81 -227,-392 -72,-462 -13,-120 -38,-152 25,-259 36,-62 90,-102 177,-126 59,-150 116,-256 339,-233 20,-112 139,-191 243,-197 125,-8 85,55 172,-7 108,-77 283,-70 365,41 50,-7 58,-27 124,-25 107,3 212,74 248,169 299,2 284,230 314,245 2,1 5,3 7,4 92,30 111,34 177,108zm-917 167c-14,67 -45,1 -167,85 -49,34 -83,91 -72,175l1 229 745 1c-11,-58 -58,-101 -108,-120 -73,-28 -131,8 -118,-97 73,-51 170,-8 226,33 33,24 50,44 75,82 19,30 26,72 48,100 143,3 402,-90 249,-269 -36,-42 -210,-29 -253,-24 -111,2 -192,-8 -258,-71 -179,-170 -89,-335 -14,-262 62,60 -47,219 280,226 30,5 111,0 153,1 36,1 46,8 67,-19 13,-17 15,-50 17,-78 -28,-121 -121,-181 -201,-153 -52,18 -140,197 -200,91 -14,-56 32,-78 63,-109 28,-29 65,-57 85,-95 -46,-205 -236,-110 -272,-146 -29,-30 -13,-89 -85,-135 -55,-36 -147,-37 -164,-6l-10 20c-4,12 -5,17 -8,28 -69,253 -426,247 -320,121 25,-30 228,-10 224,-205 -29,-23 -54,-51 -113,-57 -53,-5 -105,10 -132,36 -21,21 -42,75 -93,62 -41,-10 -42,-37 -116,-38 -87,-1 -184,88 -161,158 3,11 56,89 65,101 25,36 60,57 36,108 -65,105 -150,-110 -193,-153 -48,-47 -203,-22 -230,105 86,52 111,31 175,116 23,31 87,158 48,210 -28,37 -78,18 -91,-11 -17,-37 -1,-66 -31,-116 -32,-52 -97,-108 -194,-90 -72,13 -128,80 -135,157 -5,59 14,68 30,112 18,48 -14,51 -40,74 -110,95 -113,307 130,312 16,-87 47,-122 98,-166 128,-112 279,-87 241,1 -26,61 -179,1 -225,165l342 1c1,-67 -24,-193 54,-196 80,-3 55,129 56,196l150 -1 -1 -204c-30,-18 -62,-22 -97,-44 -171,-104 -181,-345 -67,-301 38,14 28,50 37,93 14,65 73,120 136,135 61,-242 368,-297 340,-167zm-79 424c-61,-40 24,-195 69,-247 55,-62 189,-122 242,-82 41,30 23,85 -35,96 -99,18 -120,25 -163,95 -45,74 5,171 -113,137zm21 -520c-121,0 -201,3 -325,-8 -72,-172 221,-76 386,-103 157,-25 152,-194 167,-216 62,-90 151,46 40,205 -53,75 -131,122 -268,122zm-3734 -2235c-186,-226 -562,313 -54,457 497,141 882,-179 906,-177 18,1 404,312 861,185 497,-139 243,-624 -5,-480l21 6c3,1 8,2 11,2 200,36 121,192 48,209 -206,49 -355,-250 -609,-273 -161,-14 -315,83 -356,71 -78,-23 -167,-107 -361,-65 -117,26 -208,103 -286,164 -59,45 -207,158 -311,84 -56,-39 -49,-118 -11,-162 64,-75 109,-7 145,-22zm-139 -1167c-142,27 -230,57 -249,207 -30,230 1,561 303,591 678,68 721,-547 676,-643 -44,-94 -167,-129 -299,-146 -140,-18 -296,-35 -431,-9zm1567 2c-327,53 -448,130 -291,478 106,233 275,339 599,316 154,-11 235,-53 283,-169 45,-109 64,-258 55,-392 -10,-144 -80,-207 -215,-233 -139,-27 -293,-21 -431,1z"/>
 </g>
</svg>
