<svg width="130" height="130" viewBox="0 0 130 130" fill="none" xmlns="http://www.w3.org/2000/svg">
<g clip-path="url(#clip0_180_20)">
<path fill-rule="evenodd" clip-rule="evenodd" d="M64.9977 0.160156C100.621 0.160156 129.796 29.3356 129.796 64.9587C129.796 100.582 100.621 129.757 64.9977 129.757C29.3747 129.757 0.199219 100.582 0.199219 64.9587C0.199219 29.3356 29.3747 0.160156 64.9977 0.160156Z" fill="#E30E12"/>
<path d="M105.943 53.252C107.163 53.252 108.302 53.4556 109.394 53.8193C110.358 54.1408 111.221 54.5857 112.035 55.1182L112.381 55.3516L112.388 55.3555L112.394 55.3604C113.287 56.0099 114.097 56.8201 114.747 57.7129C115.436 58.6453 115.961 59.6549 116.36 60.7334L116.734 61.7432H113.936L113.749 61.2666C113.435 60.4649 113.018 59.7359 112.498 59.0771C111.966 58.4031 111.381 57.8242 110.713 57.3896L110.694 57.3779L110.677 57.3643C110.044 56.8981 109.292 56.5509 108.466 56.2627C107.668 56.0219 106.803 55.8857 105.943 55.8857C104.775 55.8858 103.71 56.1223 102.67 56.5703C101.612 57.0642 100.713 57.6906 99.958 58.5146L99.9531 58.5205L99.9473 58.5264C99.1839 59.3245 98.5573 60.2991 98.1396 61.3779L98.1357 61.3877L98.1318 61.3965C97.685 62.4622 97.4727 63.6466 97.4727 64.9238C97.4727 66.201 97.6849 67.3854 98.1318 68.4512C98.5958 69.5575 99.1927 70.5323 99.9473 71.3213C100.716 72.1252 101.624 72.7878 102.671 73.2764C103.691 73.7522 104.789 73.9619 105.943 73.9619C106.807 73.9619 107.631 73.8248 108.419 73.5508C109.239 73.2656 109.959 72.9178 110.601 72.4453C111.265 71.9557 111.861 71.3953 112.427 70.7256C112.956 70.0538 113.404 69.3262 113.711 68.543L113.897 68.0664H116.696L116.322 69.0771C115.917 70.1702 115.353 71.1769 114.673 72.0967C113.98 73.0345 113.17 73.801 112.298 74.4746C111.385 75.1803 110.361 75.6672 109.326 76.0254L109.317 76.0283C108.231 76.3905 107.13 76.5957 105.943 76.5957C104.396 76.5956 102.971 76.2689 101.598 75.6631L101.59 75.6592C100.252 75.0509 99.0781 74.2004 98.0713 73.1533C97.0504 72.0916 96.2864 70.838 95.6924 69.4521L95.6895 69.4434L95.6855 69.4355C95.1233 68.0299 94.8008 66.4987 94.8008 64.8857C94.8008 63.2834 95.0816 61.7827 95.6924 60.3574C96.259 58.9475 97.0674 57.7384 98.0713 56.6943C99.0781 55.6473 100.252 54.7968 101.59 54.1885C102.934 53.5774 104.4 53.252 105.943 53.252Z" fill="white"/>
<path d="M39.4346 56.377H32.3672V76.2178H29.7334V56.377H22.4395V53.7432H39.4346V56.377Z" fill="white"/>
<path fill-rule="evenodd" clip-rule="evenodd" d="M52.7783 53.252C53.862 53.252 54.8708 53.4613 55.8359 53.8809C56.7792 54.291 57.6172 54.8321 58.335 55.5498C59.0445 56.2594 59.5889 57.0563 60.0039 58.0107C60.4227 58.974 60.6328 59.9833 60.6328 61.0312V76.2178H57.999V67.8281H47.6328V76.2178H44.999V61.0312C44.999 59.9529 45.2068 58.9418 45.6299 58.0078C46.0447 57.0548 46.5881 56.2586 47.2969 55.5498C48.0133 54.8334 48.8484 54.2943 49.7471 53.8857L49.7578 53.8809C50.7211 53.462 51.7303 53.252 52.7783 53.252ZM52.7783 55.8477C52.0425 55.8477 51.3857 55.9803 50.7637 56.2422C50.1411 56.5044 49.6162 56.8633 49.1133 57.3662C48.6642 57.8153 48.2953 58.3739 47.9834 59.0283C47.7248 59.6468 47.5947 60.3001 47.5947 61.0312V65.1943H57.9619V61.0312C57.9619 60.3046 57.8569 59.6163 57.6045 59.0166C57.3359 58.3787 56.9758 57.8298 56.499 57.3848L56.4805 57.3662C56.029 56.9149 55.4664 56.5463 54.8076 56.2334C54.1955 55.9795 53.51 55.8477 52.7783 55.8477Z" fill="white"/>
<path d="M69.5869 69.4971C69.587 70.0403 69.6888 70.5858 69.8428 71.0352L69.9111 71.2217L69.9141 71.2285L69.917 71.2363C70.1021 71.7299 70.38 72.1329 70.7285 72.4814C71.0654 72.8182 71.5047 73.1029 71.9824 73.2949C72.4935 73.4853 73.0431 73.584 73.6748 73.584H80.207V76.2178H73.6748C72.7219 76.2178 71.7889 76.053 70.9648 75.7061C70.1687 75.3708 69.4509 74.9074 68.8555 74.3545L68.8457 74.3457L68.8359 74.3359C68.2496 73.7496 67.7736 73.0638 67.4658 72.207L67.3447 71.8945C67.0811 71.1591 66.9532 70.3658 66.9531 69.4971V53.7432H69.5869V69.4971Z" fill="white"/>
<path d="M88.8965 76.2178H86.2627V53.7812H88.8965V76.2178Z" fill="white"/>
<path d="M16.3838 76.1807H13.75V53.7432H16.3838V76.1807Z" fill="white"/>
<path d="M68.333 36.3516L64.333 47.5703H61.6992L65.6992 36.3516H68.333Z" fill="white"/>
</g>
<defs>
<clipPath id="clip0_180_20">
<rect width="130" height="130" fill="white"/>
</clipPath>
</defs>
</svg>
