<?xml version="1.0" encoding="UTF-8"?>
<!DOCTYPE svg PUBLIC "-//W3C//DTD SVG 1.1//EN" "http://www.w3.org/Graphics/SVG/1.1/DTD/svg11.dtd">
<!-- Creator: CorelDRAW X6 -->
<svg xmlns="http://www.w3.org/2000/svg" xml:space="preserve" width="180.534mm" height="50.786mm" version="1.1" style="shape-rendering:geometricPrecision; text-rendering:geometricPrecision; image-rendering:optimizeQuality; fill-rule:evenodd; clip-rule:evenodd"
viewBox="0 0 18053 5079"
 xmlns:xlink="http://www.w3.org/1999/xlink">
 <defs>
  <style type="text/css">
   <![CDATA[
    .fil0 {fill:#1A1A1A;fill-rule:nonzero}
   ]]>
  </style>
 </defs>
 <g id="layer">
  <metadata id="CorelCorpID_0Corel-Layer"/>
  <path id="t3" class="fil0" d="M516 4437l0 -251 31 0c57,0 96,-7 116,-20 20,-13 29,-30 29,-51 0,-26 -10,-46 -29,-61 -20,-14 -58,-22 -116,-22l-102 0 0 603 71 0c44,0 80,-2 107,-7 27,-5 48,-11 63,-20 15,-8 25,-19 30,-30 5,-12 8,-25 8,-39 0,-30 -11,-55 -33,-74 -22,-20 -70,-29 -143,-29l-31 0zm-71 -2989l-441 0 0 -868c0,-102 9,-188 26,-258 18,-70 47,-126 88,-167 41,-42 95,-72 162,-90 67,-18 149,-27 249,-27l165 0 0 403 -84 0c-34,0 -62,2 -83,7 -22,5 -38,13 -50,25 -12,12 -20,31 -24,55 -5,24 -7,56 -7,95l0 824zm1427 0l-433 0 0 -311 -302 0 0 311 -435 0 0 -803c0,-89 14,-172 41,-250 27,-78 67,-145 118,-203 51,-57 113,-103 186,-137 73,-34 156,-51 249,-51 93,0 175,16 247,49 72,33 132,78 181,136 49,58 86,127 111,206 25,79 37,165 37,258l0 795zm-734 -683l302 0 0 -125c0,-64 -10,-112 -31,-144 -21,-32 -58,-48 -112,-48 -50,0 -88,16 -117,48 -28,32 -42,81 -42,146l0 123zm1306 683l-513 0 0 -409 84 0 0 -368c0,-97 13,-186 38,-267 25,-82 63,-152 112,-211 49,-59 109,-105 181,-138 72,-33 154,-50 247,-50 95,0 179,18 250,55 71,37 131,86 178,148 48,62 84,133 108,213 24,80 36,164 36,252l0 776 -441 0 0 -764c0,-55 -3,-100 -8,-134 -5,-35 -14,-62 -25,-81 -12,-20 -26,-33 -44,-39 -18,-7 -38,-10 -62,-10 -25,0 -46,3 -64,10 -18,7 -32,20 -44,39 -12,20 -20,47 -25,81 -5,35 -8,79 -8,134l0 764zm1772 -860l0 253 -372 0c-38,0 -69,8 -94,24 -25,16 -37,39 -37,70 0,69 60,104 180,104l323 0 0 409 -386 0c-183,0 -321,-37 -416,-111 -95,-74 -142,-187 -142,-340 0,-55 6,-104 18,-147 12,-43 39,-89 82,-139 -34,-37 -59,-75 -75,-116 -16,-40 -24,-80 -24,-118 0,-82 15,-151 44,-208 29,-56 69,-102 119,-136 50,-35 109,-59 177,-74 68,-15 140,-23 217,-23l386 0 0 405 -366 0c-51,0 -86,5 -107,16 -20,10 -30,29 -30,55 0,26 11,45 32,57 22,12 57,18 107,18l364 0zm646 462l0 -409c42,0 76,-7 103,-20 27,-13 40,-38 40,-74 0,-29 -12,-53 -35,-71 -24,-19 -59,-28 -108,-28l-76 0 0 1001 -441 0 0 -1410 525 0c86,0 165,11 238,32 72,22 135,54 188,96 53,42 94,94 124,156 30,61 45,133 45,213 0,178 -53,308 -160,391 -106,83 -254,124 -444,124zm1606 -462l0 253 -372 0c-38,0 -69,8 -94,24 -25,16 -37,39 -37,70 0,69 60,104 180,104l323 0 0 409 -386 0c-183,0 -322,-37 -416,-111 -95,-74 -142,-187 -142,-340 0,-55 6,-104 18,-147 12,-43 39,-89 82,-139 -34,-37 -59,-75 -75,-116 -16,-40 -24,-80 -24,-118 0,-82 15,-151 44,-208 29,-56 69,-102 119,-136 50,-35 109,-59 177,-74 68,-15 140,-23 217,-23l386 0 0 405 -366 0c-51,0 -86,5 -107,16 -20,10 -30,29 -30,55 0,26 11,45 32,57 22,12 57,18 107,18l364 0zm797 860l0 -1001 -76 0c-61,0 -102,9 -121,27 -20,18 -29,46 -29,86 0,38 9,67 26,86 18,19 48,29 91,29l33 0 0 315 -33 0c-47,0 -80,12 -99,35 -19,24 -28,66 -28,127l0 296 -447 0 0 -296c0,-81 8,-149 25,-203 17,-54 54,-103 112,-146 -48,-35 -82,-81 -101,-138 -19,-57 -28,-113 -28,-169 0,-84 16,-154 47,-212 31,-58 74,-105 129,-142 55,-37 118,-63 191,-79 72,-16 150,-24 232,-24l513 0 0 1410 -437 0zm-6561 389l435 0 0 347c0,80 -10,144 -29,192 -20,48 -54,93 -102,133 56,37 95,81 116,134 21,53 31,126 31,218l0 386 -435 0 0 -362c0,-42 -3,-76 -10,-102 -7,-26 -17,-46 -31,-60 -14,-14 -34,-23 -58,-27 -24,-5 -54,-7 -89,-7l-92 0 0 558 -435 0 0 -1410 435 0 0 541 86 0c74,0 123,-16 145,-48 22,-32 33,-87 33,-165l0 -327zm1259 1443c-98,0 -192,-19 -281,-57 -89,-38 -168,-90 -235,-157 -67,-67 -121,-145 -162,-234 -40,-89 -61,-186 -61,-289 0,-102 20,-198 61,-288 40,-90 94,-168 162,-235 67,-67 146,-119 235,-159 89,-39 183,-59 281,-59 102,0 198,20 288,59 90,39 168,92 235,160 67,67 119,147 158,238 39,91 58,189 58,292 0,101 -19,195 -58,283 -39,88 -91,165 -158,231 -67,66 -145,118 -235,157 -90,39 -186,58 -288,58zm-2 -415c39,0 76,-8 112,-24 35,-16 67,-39 94,-67 27,-28 49,-62 65,-101 16,-39 24,-82 24,-129 0,-47 -8,-90 -23,-129 -15,-39 -36,-73 -63,-103 -27,-29 -58,-52 -93,-69 -35,-16 -73,-24 -114,-24 -42,0 -80,8 -116,24 -35,16 -66,39 -92,69 -26,29 -47,64 -62,103 -15,39 -23,82 -23,129 0,47 8,90 23,129 15,39 36,73 63,101 27,28 58,50 93,67 35,16 72,24 112,24zm1570 -1028l441 0 0 1410 -441 0 0 -558 -290 0 0 558 -441 0 0 -1410 441 0 0 505 290 0 0 -505zm1290 0l441 0 0 1001 100 0 0 409 -754 0c-89,0 -165,-8 -228,-24 -63,-16 -115,-44 -156,-84 -40,-40 -70,-93 -89,-159 -19,-66 -28,-148 -28,-246l0 -897 435 0 0 826c0,74 10,122 30,143 20,21 54,31 101,31l149 0 0 -1001zm1504 550l0 253 -372 0c-38,0 -69,8 -94,24 -25,16 -37,39 -37,70 0,69 60,104 180,104l323 0 0 409 -386 0c-183,0 -321,-37 -416,-111 -95,-74 -142,-187 -142,-340 0,-55 6,-104 18,-147 12,-43 39,-89 82,-139 -34,-37 -59,-75 -75,-116 -16,-40 -24,-80 -24,-118 0,-82 15,-151 44,-208 29,-56 69,-102 119,-136 50,-35 109,-59 177,-74 68,-15 140,-23 217,-23l386 0 0 405 -366 0c-51,0 -86,5 -107,16 -20,10 -30,29 -30,55 0,26 11,45 32,57 22,12 57,18 107,18l364 0zm556 860l-441 0 0 -777c0,-97 13,-186 40,-267 27,-82 65,-152 116,-211 50,-59 112,-105 185,-138 73,-33 156,-50 249,-50 95,0 179,18 250,55 71,37 131,86 178,148 48,62 84,133 108,213 24,80 36,164 36,252l0 776 -441 0 0 -764c0,-55 -3,-100 -8,-134 -5,-35 -14,-62 -25,-81 -12,-20 -26,-33 -44,-39 -18,-7 -39,-10 -64,-10 -24,0 -44,3 -62,10 -18,7 -32,20 -44,39 -12,20 -20,47 -25,81 -5,35 -8,79 -8,134l0 764zm1839 -1410l0 409 -306 0 0 1001 -441 0 0 -1001 -306 0 0 -409 1052 0zm60 0l433 0 0 349c0,34 8,63 25,88 17,25 48,37 92,37l102 0 0 -474 435 0 0 907c0,93 -13,171 -38,235 -25,64 -63,116 -112,156 -49,40 -109,69 -180,86 -71,18 -152,26 -244,26l-429 0 0 -409 388 0c120,0 180,-35 180,-104l0 -76 -163 0c-172,0 -297,-33 -374,-98 -77,-65 -116,-179 -116,-341l0 -382zm2383 1410l-433 0 0 -311 -302 0 0 311 -435 0 0 -803c0,-89 14,-172 41,-250 27,-78 67,-145 118,-203 51,-57 113,-103 186,-137 73,-34 156,-51 249,-51 93,0 175,16 247,49 72,33 132,78 181,136 49,58 86,127 111,206 25,79 37,165 37,258l0 795zm-734 -683l302 0 0 -125c0,-64 -10,-112 -31,-144 -21,-32 -58,-48 -112,-48 -50,0 -88,16 -117,48 -28,32 -42,81 -42,146l0 123zm1306 683l-513 0 0 -409 84 0 0 -368c0,-97 13,-186 38,-267 25,-82 63,-152 112,-211 49,-59 109,-105 181,-138 72,-33 154,-50 247,-50 95,0 179,18 250,55 71,37 131,86 178,148 48,62 84,133 108,213 24,80 36,164 36,252l0 776 -441 0 0 -764c0,-55 -3,-100 -8,-134 -5,-35 -14,-62 -25,-81 -12,-20 -26,-33 -44,-39 -18,-7 -38,-10 -62,-10 -25,0 -46,3 -64,10 -18,7 -32,20 -44,39 -12,20 -20,47 -25,81 -5,35 -8,79 -8,134l0 764zm856 0l0 -1410 441 0 0 1001 76 0c95,0 143,-33 143,-98 0,-38 -13,-63 -40,-76 -27,-13 -61,-20 -103,-20l0 -398c192,0 340,41 446,124 105,83 158,209 158,379 0,81 -15,152 -45,213 -30,61 -71,113 -124,156 -53,42 -116,74 -188,96 -72,22 -152,32 -238,32l-525 0zm1937 -1410l441 0 0 1410 -441 0 0 -558 -290 0 0 558 -441 0 0 -1410 441 0 0 505 290 0 0 -505zm1784 0l441 0 0 1410 -441 0 0 -1410zm-1200 1410l0 -1410 441 0 0 1001 76 0c95,0 143,-33 143,-98 0,-38 -13,-63 -40,-76 -27,-13 -61,-20 -103,-20l0 -398c192,0 340,41 446,124 105,83 158,209 158,379 0,81 -15,152 -45,213 -30,61 -71,113 -124,156 -53,42 -116,74 -188,96 -72,22 -152,32 -238,32l-525 0zm2356 -864c51,0 88,-13 112,-39 24,-26 35,-77 35,-153l0 -354 435 0 0 358c0,47 -3,86 -8,117 -5,31 -14,57 -25,78 -12,22 -27,41 -46,59 -19,18 -42,38 -70,60 54,46 92,94 115,145 23,51 34,118 34,202l0 392 -435 0 0 -392c0,-61 -12,-104 -35,-129 -24,-25 -61,-37 -112,-37 -50,0 -86,12 -110,37 -24,25 -35,68 -35,129l0 392 -435 0 0 -392c0,-84 11,-151 34,-202 23,-51 61,-99 115,-145 -27,-22 -51,-42 -70,-60 -19,-18 -34,-37 -46,-59 -12,-22 -20,-48 -25,-78 -5,-31 -8,-70 -8,-117l0 -358 435 0 0 354c0,76 12,127 35,153 24,26 60,39 110,39zm-17462 2657l0 -1410 568 0c184,0 324,37 421,112 97,74 145,181 145,319 0,43 -8,85 -23,125 -15,40 -41,78 -77,114 40,33 74,76 101,130 27,54 40,107 40,158 0,159 -55,275 -164,346 -109,71 -269,107 -479,107l-533 0zm2201 -860l0 253 -372 0c-38,0 -69,8 -94,24 -25,16 -37,39 -37,70 0,69 60,104 180,104l323 0 0 409 -386 0c-183,0 -322,-37 -416,-111 -95,-74 -142,-187 -142,-340 0,-55 6,-104 18,-147 12,-43 39,-89 82,-139 -34,-37 -59,-75 -75,-116 -16,-40 -24,-80 -24,-118 0,-82 15,-151 44,-208 29,-56 69,-102 119,-136 50,-35 109,-59 177,-74 68,-15 140,-23 217,-23l386 0 0 405 -366 0c-51,0 -86,5 -107,16 -20,10 -30,29 -30,55 0,26 11,45 32,57 22,12 57,18 107,18l364 0zm129 860l0 -1410 1069 0 0 403 -629 0 0 603 71 0c44,0 80,-2 107,-7 27,-5 48,-11 63,-20 15,-8 25,-19 30,-30 5,-12 8,-25 8,-39 0,-30 -11,-55 -33,-74 -22,-20 -70,-29 -143,-29l-31 0 0 -251 31 0c214,0 373,31 477,93 104,62 156,165 156,308 0,159 -55,275 -164,346 -109,71 -269,107 -479,107l-533 0zm1772 -905l0 347 -499 0 0 -347 499 0zm1046 466l0 435c-33,13 -69,22 -110,27 -40,5 -84,8 -129,8 -101,0 -194,-19 -280,-56 -86,-37 -162,-89 -226,-155 -65,-66 -115,-144 -152,-233 -37,-89 -55,-187 -55,-293 0,-102 19,-197 58,-287 39,-89 92,-167 160,-234 68,-67 148,-119 241,-159 93,-39 193,-59 300,-59 77,0 142,11 194,33l0 429c-35,-17 -70,-29 -104,-36 -34,-7 -67,-11 -100,-11 -93,0 -166,31 -220,92 -54,61 -81,138 -81,231 0,93 27,169 80,230 54,61 123,91 208,91 29,0 61,-4 98,-12 37,-8 76,-22 119,-43zm1277 439l-433 0 0 -311 -302 0 0 311 -435 0 0 -803c0,-89 14,-172 41,-250 27,-78 67,-145 118,-203 51,-57 113,-103 186,-137 73,-34 156,-51 249,-51 93,0 175,16 247,49 72,33 132,78 181,136 49,58 86,127 111,206 25,79 37,165 37,258l0 795zm-734 -683l302 0 0 -125c0,-64 -10,-112 -31,-144 -21,-32 -58,-48 -112,-48 -50,0 -88,16 -117,48 -28,32 -42,81 -42,146l0 123zm1627 -727l441 0 0 1410 -660 0c-89,0 -165,-8 -228,-24 -63,-16 -115,-44 -156,-84 -40,-40 -70,-93 -89,-159 -19,-66 -28,-148 -28,-246l0 -897 441 0 0 826c0,74 9,122 27,143 18,21 51,31 98,31l155 0 0 -1001zm-25 -329l227 0c-13,93 -51,165 -115,217 -63,52 -137,78 -222,78 -85,0 -159,-26 -222,-78 -63,-52 -102,-125 -115,-217l227 0c10,30 24,50 39,60 16,10 39,15 71,15 30,0 53,-5 69,-15 16,-10 29,-30 41,-60zm1598 329l0 409 -306 0 0 1001 -441 0 0 -1001 -306 0 0 -409 1052 0zm732 1443c-98,0 -192,-19 -281,-57 -89,-38 -168,-90 -235,-157 -67,-67 -121,-145 -162,-234 -40,-89 -61,-186 -61,-289 0,-102 20,-198 61,-288 40,-90 94,-168 162,-235 67,-67 146,-119 235,-159 89,-39 183,-59 281,-59 102,0 198,20 288,59 90,39 168,92 235,160 67,67 119,147 158,238 39,91 58,189 58,292 0,101 -19,195 -58,283 -39,88 -91,165 -158,231 -67,66 -145,118 -235,157 -90,39 -186,58 -288,58zm-2 -415c39,0 76,-8 112,-24 35,-16 67,-39 94,-67 27,-28 49,-62 65,-101 16,-39 24,-82 24,-129 0,-47 -8,-90 -23,-129 -15,-39 -36,-73 -63,-103 -27,-29 -58,-52 -93,-69 -35,-16 -73,-24 -114,-24 -42,0 -80,8 -116,24 -35,16 -66,39 -92,69 -26,29 -47,64 -62,103 -15,39 -23,82 -23,129 0,47 8,90 23,129 15,39 36,73 63,101 27,28 58,50 93,67 35,16 72,24 112,24zm1351 -221l0 -251 31 0c57,0 96,-7 116,-20 20,-13 29,-30 29,-51 0,-26 -10,-46 -29,-61 -20,-14 -58,-22 -116,-22l-102 0 0 603 71 0c44,0 80,-2 107,-7 27,-5 48,-11 63,-20 15,-8 25,-19 30,-30 5,-12 8,-25 8,-39 0,-30 -11,-55 -33,-74 -22,-20 -70,-29 -143,-29l-31 0zm-511 603l0 -1410 568 0c184,0 324,37 421,112 97,74 145,181 145,319 0,43 -8,85 -23,125 -15,40 -41,78 -77,114 40,33 74,76 101,130 27,54 40,107 40,158 0,159 -55,275 -164,346 -109,71 -269,107 -479,107l-533 0z"/>
 </g>
</svg>
