<?xml version="1.0" encoding="UTF-8"?>
<!DOCTYPE svg PUBLIC "-//W3C//DTD SVG 1.1//EN" "http://www.w3.org/Graphics/SVG/1.1/DTD/svg11.dtd">
<!-- Creator: CorelDRAW X6 -->
<svg xmlns="http://www.w3.org/2000/svg" xml:space="preserve" width="32.258mm" height="32.258mm" version="1.1" style="shape-rendering:geometricPrecision; text-rendering:geometricPrecision; image-rendering:optimizeQuality; fill-rule:evenodd; clip-rule:evenodd"
viewBox="0 0 3226 3226"
 xmlns:xlink="http://www.w3.org/1999/xlink">
 <defs>
  <style type="text/css">
   <![CDATA[
    .fil0 {fill:#E30E12}
    .fil1 {fill:white}
   ]]>
  </style>
 </defs>
 <g id="layer">
  <metadata id="CorelCorpID_0Corel-Layer"/>
  <path id="logo" class="fil0" d="M1613 5l0 0c884,0 1608,724 1608,1608l0 0c0,884 -724,1608 -1608,1608l0 0c-884,0 -1608,-724 -1608,-1608l0 0c0,-884 724,-1608 1608,-1608z"/>
  <path id="text" class="fil1" d="M445 1893l-30 0 0 -554 30 0 0 554zm935 -714l97 -173 33 0 -97 173 -33 0zm-565 190l0 525 -30 0 0 -525 -193 0 0 -30 410 0 0 30 -187 0zm665 143c0,-21 -4,-42 -12,-61 -8,-19 -19,-36 -34,-50 -14,-14 -31,-25 -50,-34 -19,-8 -40,-12 -62,-12 -22,0 -42,4 -61,12 -19,8 -35,19 -50,34 -14,14 -25,31 -34,50 -8,19 -12,39 -12,61l0 130 314 0 0 -130zm-314 382l-30 0 0 -382c0,-26 5,-50 15,-72 10,-23 23,-42 40,-59 17,-17 37,-30 59,-40 23,-10 47,-15 72,-15 26,0 50,5 73,15 23,10 43,23 60,40 17,17 30,36 40,59 10,23 15,47 15,72l0 382 -30 0 0 -222 -314 0 0 222zm529 -157c0,19 3,37 9,52 6,16 15,29 26,40 11,11 25,20 40,26 16,6 33,9 52,9l153 0 0 30 -153 0c-23,0 -45,-4 -64,-12 -19,-8 -36,-19 -50,-32 -14,-14 -25,-30 -32,-50 -8,-19 -12,-40 -12,-64l0 -397 30 0 0 397zm457 157l-30 0 0 -554 30 0 0 554zm674 -176c-10,27 -24,52 -41,75 -17,23 -37,42 -59,59 -22,17 -47,29 -73,38 -27,9 -54,14 -83,14 -38,0 -73,-8 -107,-23 -33,-15 -62,-36 -87,-62 -25,-26 -44,-57 -59,-92 -14,-35 -22,-73 -22,-113 0,-40 7,-77 22,-112 14,-35 34,-65 59,-91 25,-26 54,-47 87,-62 33,-15 69,-23 107,-23 30,0 58,5 85,14 27,9 51,22 74,38 22,16 42,36 58,58 17,23 30,48 40,75l-32 0c-9,-23 -21,-44 -36,-63 -15,-19 -32,-36 -52,-49 -19,-14 -41,-24 -64,-32 -23,-7 -48,-11 -73,-11 -34,0 -65,7 -95,20 -30,14 -56,32 -78,56 -22,23 -40,51 -52,82 -13,31 -19,65 -19,101 0,36 6,70 19,101 13,31 30,59 52,82 22,23 48,42 78,56 30,14 62,20 95,20 25,0 49,-4 72,-12 23,-8 44,-18 63,-32 19,-14 36,-30 52,-49 15,-19 28,-40 37,-63l32 0z"/>
 </g>
</svg>
