<?xml version="1.0" encoding="UTF-8"?>
<!DOCTYPE svg PUBLIC "-//W3C//DTD SVG 1.1//EN" "http://www.w3.org/Graphics/SVG/1.1/DTD/svg11.dtd">
<!-- Creator: CorelDRAW X6 -->
<svg xmlns="http://www.w3.org/2000/svg" xml:space="preserve" width="24.218mm" height="9.725mm" version="1.1" style="shape-rendering:geometricPrecision; text-rendering:geometricPrecision; image-rendering:optimizeQuality; fill-rule:evenodd; clip-rule:evenodd"
viewBox="0 0 2422 972"
 xmlns:xlink="http://www.w3.org/1999/xlink">
 <defs>
  <style type="text/css">
   <![CDATA[
    .fil0 {fill:#E30E12;fill-rule:nonzero}
   ]]>
  </style>
 </defs>
 <g id="l">
  <metadata id="CorelCorpID_0Corel-Layer"/>
  <path id="c" class="fil0" d="M1484 243l-1 0 -10 0 0 -10 0 -92 0 0 0 0c0,-7 -1,-13 -4,-19 -2,-6 -6,-11 -10,-15 -4,-4 -9,-8 -16,-10 -5,-2 -9,-3 -15,-3 -5,0 -10,2 -14,3 -6,2 -11,6 -15,10 -4,4 -8,9 -10,15 -2,6 -4,12 -4,19l0 0 0 0 0 92 0 10 -10 0 -1 0 -10 0 0 -10 0 -92 0 0 0 0c0,-7 -1,-13 -4,-19 -2,-6 -6,-11 -10,-15 -4,-4 -9,-8 -16,-10 -5,-2 -9,-3 -15,-3 -5,0 -10,2 -14,3 -6,2 -11,6 -15,10 -4,4 -8,9 -10,15 -2,6 -4,12 -4,19l0 0 0 0 0 92 0 10 -10 0 -1 0 -10 0 0 -10 0 -92 0 0 0 0 0 -9c0,-9 1,-17 4,-24 3,-7 7,-14 13,-19 5,-5 12,-10 19,-13 7,-3 15,-4 24,-4 2,0 3,0 5,0 2,0 3,0 5,0 13,0 24,3 34,10 6,4 12,10 16,16 4,-6 9,-12 16,-16 9,-6 21,-10 33,-10 2,0 3,0 5,0 2,0 3,0 5,0 9,0 17,1 24,4 7,3 14,7 19,13 5,5 9,12 12,19 3,7 4,15 4,24l0 9 0 0 0 0 0 92 0 10 -10 0zm-1450 715l-30 0 0 -554 30 0 0 554zm935 -714l97 -172 33 0 -97 172 -33 0zm-565 190l0 525 -30 0 0 -525 -193 0 0 -30 410 0 0 30 -187 0zm665 143c0,-21 -4,-42 -12,-61 -8,-19 -19,-36 -34,-50 -14,-14 -31,-25 -50,-34 -19,-8 -40,-12 -62,-12 -22,0 -42,4 -61,12 -19,8 -35,19 -50,34 -14,14 -25,31 -34,50 -8,19 -12,39 -12,61l0 130 314 0 0 -130zm-314 382l-30 0 0 -382c0,-26 5,-50 15,-72 10,-23 23,-42 40,-59 17,-17 37,-30 59,-40 23,-10 47,-15 72,-15 26,0 50,5 73,15 23,10 43,23 60,40 17,17 30,36 40,59 10,23 15,47 15,72l0 382 -30 0 0 -222 -314 0 0 222zm529 -157c0,19 3,37 9,52 6,16 15,29 26,40 11,11 25,20 40,26 16,6 33,9 52,9l153 0 0 30 -153 0c-23,0 -45,-4 -64,-12 -19,-8 -36,-19 -50,-32 -14,-14 -25,-30 -32,-50 -8,-19 -12,-40 -12,-64l0 -397 30 0 0 397zm457 157l-30 0 0 -554 30 0 0 554zm674 -176c-10,27 -24,52 -41,75 -17,23 -37,42 -59,59 -22,17 -47,29 -73,38 -27,9 -54,14 -83,14 -38,0 -73,-8 -107,-23 -33,-15 -62,-36 -87,-62 -25,-26 -44,-57 -59,-92 -14,-35 -22,-73 -22,-113 0,-40 7,-77 22,-112 14,-35 34,-65 59,-91 25,-26 54,-47 87,-62 33,-15 69,-23 107,-23 30,0 58,5 85,14 27,9 51,22 74,38 22,16 42,36 58,58 17,23 30,48 40,75l-32 0c-9,-23 -21,-44 -36,-63 -15,-19 -32,-36 -52,-49 -19,-14 -41,-24 -64,-32 -23,-7 -48,-11 -73,-11 -34,0 -65,7 -95,20 -30,14 -56,32 -78,56 -22,23 -40,51 -52,82 -13,31 -19,65 -19,101 0,36 6,70 19,101 13,31 30,59 52,82 22,23 48,42 78,56 30,14 62,20 95,20 25,0 49,-4 72,-12 23,-8 44,-18 63,-32 19,-14 36,-30 52,-49 15,-19 28,-40 37,-63l32 0zm-861 -600c5,12 8,16 15,23 6,6 13,12 22,15 7,3 14,5 21,5 7,-1 14,-2 21,-5 8,-4 15,-9 22,-15 6,-6 9,-10 15,-23 5,-12 5,-33 0,-46 -5,-12 -8,-16 -15,-23 -6,-6 -13,-12 -22,-15 -7,-3 -14,-5 -21,-5 -7,1 -14,2 -21,5 -8,4 -15,9 -22,15 -6,6 -10,10 -15,23 -5,12 -5,33 0,46zm-21 -60c4,-10 10,-19 17,-27 7,-8 16,-14 25,-18 10,-4 20,-7 31,-7 2,0 3,0 5,0 2,0 3,0 5,0 11,0 21,2 31,7 10,4 18,10 25,18 7,8 13,16 17,27 4,10 6,21 6,32l0 9 0 1 0 68 0 10 -10 0 -1 0 -10 0 0 -10 0 -13c-5,6 -11,11 -18,15 -12,8 -25,12 -40,12 -2,0 -3,0 -5,0 -2,0 -3,0 -5,0 -11,0 -21,-2 -31,-6 -10,-4 -18,-10 -25,-18 -7,-7 -13,-16 -17,-26 -8,-20 -8,-54 0,-74zm218 60c5,12 8,16 15,23 6,6 13,12 22,15 7,3 14,5 21,5 7,-1 14,-2 21,-5 8,-4 15,-9 22,-15 6,-6 9,-10 15,-23 5,-12 5,-33 0,-46 -5,-12 -8,-16 -15,-23 -6,-6 -13,-12 -22,-15 -7,-3 -14,-5 -21,-5 -7,1 -14,2 -21,5 -8,4 -15,9 -22,15 -6,6 -10,10 -15,23 -5,12 -5,33 0,46zm-21 -60c4,-10 10,-19 17,-27 7,-8 16,-14 25,-18 10,-4 20,-7 31,-7 2,0 3,0 5,0 2,0 3,0 5,0 15,0 28,4 40,12 7,4 13,10 18,16l0 -84 0 -10 10 0 1 0 10 0 0 10 0 140 0 1 0 9c0,11 -2,22 -6,32 -4,10 -10,19 -17,26 -7,7 -16,13 -25,18 -10,4 -20,6 -31,6 -2,0 -3,0 -5,0 -2,0 -3,0 -5,0 -11,0 -21,-2 -31,-6 -10,-4 -18,-10 -25,-18 -7,-7 -13,-16 -17,-26 -8,-20 -8,-54 0,-74zm211 37c0,2 0,4 1,6l110 -46c-5,-7 -12,-13 -19,-18 -9,-6 -18,-9 -29,-10 -7,1 -14,2 -21,5 -8,4 -15,9 -22,16 -6,7 -11,14 -15,23 -3,7 -5,15 -5,23zm148 25c-5,15 -16,38 -31,49 -13,9 -28,14 -47,14 -2,0 -3,0 -5,0 -2,0 -4,0 -5,0 -11,0 -22,-2 -32,-6 -10,-4 -18,-10 -26,-18 -7,-7 -13,-16 -17,-26 -9,-21 -8,-54 0,-75 4,-10 10,-19 17,-27 7,-8 16,-14 25,-18 10,-4 20,-7 31,-7 2,0 3,0 5,0 2,0 3,0 5,0 8,0 16,1 24,4 8,3 15,6 21,11 6,5 12,10 17,17 5,6 9,13 12,21l3 8c1,1 -123,53 -136,58 2,4 4,7 6,10 4,6 9,10 15,14 6,4 12,7 19,9 5,2 11,3 17,3 7,0 13,-2 19,-3 7,-2 13,-5 18,-9 5,-4 9,-8 12,-13 3,-5 6,-10 8,-15l10 0 2 0 13 0zm110 -99l0 -10 10 0 1 0 10 0 0 10 0 148 0 10 -10 0 -1 0 -10 0 0 -10 0 -148zm0 -55l0 -10 10 0 1 0 10 0 0 10 0 18 0 10 -10 0 -1 0 -10 0 0 -10 0 -18zm147 41c10,0 18,2 27,5 8,3 15,8 21,14 6,6 11,13 14,21 3,8 5,17 5,27l0 9 0 0 0 0 0 85 0 10 -10 0 -1 0 -10 0 0 -10 0 -86 0 0 0 0c0,-8 -1,-15 -4,-21 -3,-7 -7,-13 -11,-17 -5,-5 -11,-9 -17,-11 -5,-2 -11,-3 -17,-4 -6,0 -12,2 -17,4 -7,3 -13,7 -18,11 -5,5 -9,11 -12,17 -3,7 -4,14 -4,21l0 0 0 0 0 86 0 10 -10 0 -1 0 -10 0 0 -10 0 -85 0 0 0 0 0 -9c0,-10 2,-19 5,-27 3,-8 8,-15 14,-21 6,-6 13,-11 21,-14 8,-3 17,-5 27,-5 2,0 3,0 5,0 2,0 3,0 5,0z"/>
 </g>
</svg>
