<?xml version="1.0" encoding="UTF-8"?>
<!DOCTYPE svg PUBLIC "-//W3C//DTD SVG 1.1//EN" "http://www.w3.org/Graphics/SVG/1.1/DTD/svg11.dtd">
<!-- Creator: CorelDRAW X6 -->
<svg xmlns="http://www.w3.org/2000/svg" xml:space="preserve" width="273.584mm" height="437.735mm" version="1.1" style="shape-rendering:geometricPrecision; text-rendering:geometricPrecision; image-rendering:optimizeQuality; fill-rule:evenodd; clip-rule:evenodd"
viewBox="0 0 27358 43774"
 xmlns:xlink="http://www.w3.org/1999/xlink">
 <defs>
  <style type="text/css">
   <![CDATA[
    .fil0 {fill:#F7F6ED}
   ]]>
  </style>
 </defs>
 <g id="layer">
  <metadata id="CorelCorpID_0Corel-Layer"/>
  <path id="c" class="fil0" d="M0 1132c1623,3472 5697,4846 9932,5248 5164,489 -446,1711 -2695,1289 -3123,-586 -5885,-2118 -7237,-4133l0 3360c319,-516 714,-971 1496,-634 -73,1228 -797,2430 -1496,3480l0 1707c5850,447 9743,3940 10518,8640 -2808,-3299 -5037,-7178 -10518,-7803l0 507c4690,901 7957,4277 8995,8000 -3172,-1620 -4473,-6051 -8995,-6737l0 666c3823,1159 6036,3930 7940,7008 -169,66 -286,183 -351,351 -3236,-1359 -4061,-5130 -7589,-6199l0 838c2754,1524 4802,3753 6300,6533 -169,66 -286,183 -352,351 -2723,-1065 -3397,-4179 -5948,-5417l0 847c2205,1653 3689,4026 5245,6327 -168,66 -286,183 -351,352 -2803,-505 -3113,-3503 -4894,-5030l0 1541c156,-186 334,-294 558,-144 -121,1995 -918,6644 469,8671 -433,227 -758,30 -1027,-245l0 1218c381,262 741,544 675,1253 -202,158 -452,159 -675,89l0 682c281,156 536,338 558,753 -112,223 -308,412 -558,455l0 673c525,106 944,317 1027,864 -174,373 -609,479 -1027,408l0 1902c223,-381 445,-764 1027,-787 1263,1038 104,2669 -1027,3303l0 1086c272,53 517,132 793,181 1339,-340 817,-3466 2226,-3398 882,43 391,3284 -1040,4585l1184 0c589,-1243 1008,-2656 1731,-3765 379,1287 336,2588 -35,3765l748 0c354,-1015 641,-2097 928,-3179 578,982 768,2079 652,3179l1127 0c200,-763 348,-1554 447,-2359 373,789 581,1580 647,2359l1610 0c-2239,-4474 -390,-11628 4891,-11498 -2316,2356 -5452,4410 -4805,8788 183,1234 800,2074 1566,2710l661 0c-2485,-3035 -1726,-9188 2695,-9624 -542,1943 -2753,2777 -3046,5156 -335,2710 1517,3508 3002,4468l2864 0c335,-930 797,-1804 1399,-2593 -374,874 -656,1740 -854,2593l1571 0c954,-3504 3123,-6392 6398,-7041l0 -1414c-449,-249 -943,-447 -1490,-583 -571,321 335,1021 -117,1523 -2012,444 -1854,-3208 821,-2929 272,28 534,90 787,178l0 -821c-357,-133 -735,-234 -1139,-295 -4213,-627 -2535,3290 -2226,5156 -3804,-706 -2693,-6611 1289,-6679 756,-13 1445,79 2076,260l0 -1025c-881,-162 -1878,-189 -3014,-56 -5404,636 -3553,5826 -1757,8905 -5257,-1154 -4788,-9792 1172,-10546 1369,-173 2556,-149 3599,31l0 -284c-1228,-207 -2550,-250 -3951,-99 -7255,782 -6362,8720 -2461,12304 -3210,354 -6076,-8457 -3515,-11249 2682,-2925 6394,-3449 9927,-2532l0 -401c-90,-76 -158,-190 -201,-348 -116,-424 -33,-839 201,-1240l0 -2204c-425,-381 -624,-968 -319,-1478 136,19 208,-26 234,-117 28,-2 56,-2 84,-1l0 -657c-547,226 -1559,313 -2662,72 -7730,-1687 -13746,-11071 -11383,-20206l-3883 0c1021,218 2019,459 2611,1106 -2094,638 -4519,-26 -6183,-1106l-1961 0c2074,1380 7687,1579 7792,2747 165,1833 -6709,-581 -8085,-1641 -358,-275 -689,-685 -966,-1106l-1145 0c1563,2506 5060,3886 8204,4153 4107,348 1422,1784 -1172,1406 -3470,-505 -6905,-2605 -8245,-5559l-281 0 0 1132zm24697 10755c156,84 1757,338 2662,811l0 -827c-2785,878 -5450,-2937 -5709,-5609 -299,-3083 1776,-5233 3632,-6093 131,-61 261,-117 391,-169l-1193 0c-4094,2588 -5055,9074 217,11887zm937 -5859c-167,1584 673,2624 1725,3357l0 -971c-895,-1110 -1285,-2895 0,-3884l0 -757c-910,271 -1589,971 -1725,2255zm-1172 7968c653,315 2075,430 2896,748l0 -746c-957,172 -2775,-529 -3599,-1057 -3913,-2505 -5762,-9438 -2317,-12941l-1319 0c-3818,4914 50,11926 4339,13996zm-1641 -7968c53,2822 1945,4595 4537,5043l0 -538c-4249,-77 -4832,-8013 0,-8601l0 -311c-2516,177 -4592,1513 -4537,4407zm4537 10039c-630,137 -1577,-61 -2076,-196 -5791,-1570 -10305,-9667 -6797,-15871l-678 0c-3523,7407 1894,16097 9551,16877l0 -810zm-312 27707c96,-138 200,-270 312,-395l0 -823c-449,387 -883,781 -1268,1218l956 0zm-4168 0c762,-2407 2254,-4409 4479,-5248l0 -1502c-2314,1275 -4080,3834 -5039,6749l559 0zm1924 0c525,-1311 1373,-2426 2555,-3147l0 -1521c-1512,1140 -2582,2805 -3203,4668l648 0zm2555 -26355c-3864,2638 -7474,-3318 -9810,-5766 -2111,-2212 -3417,-7890 -1760,-11652l-1304 0c-2062,8303 3910,17880 10914,18800 958,126 1588,297 1959,480l0 -1861zm-23871 -10453c169,1432 -1037,3377 -2578,3867 -325,-1589 1069,-3346 2578,-3867zm7382 10780c436,-722 3024,-2308 3163,-469 -741,392 -2398,1565 -3163,469zm1172 1289c955,-2016 1814,1353 0,0l0 0zm1054 937c68,245 291,335 235,703 -6034,633 -9408,11220 -1641,12538 -9095,1472 -6823,-14265 1406,-13241zm-3046 14999c-1832,1551 -5008,-992 -3398,-2812 1063,108 522,1822 1523,1992 905,-29 2033,-436 1875,820zm-703 1757c0,156 0,313 0,469 -4464,2034 -7450,-4551 -4218,-6328 -533,3111 877,5652 4218,5859zm-6093 -9257c-411,-345 -333,-1567 351,-1523 862,71 775,1819 -351,1523zm-1523 -3046c1259,402 325,3731 234,4687 -1252,-473 -1283,-3968 -234,-4687zm3163 3750c-2881,3298 -3455,11513 3749,10663 -7360,4458 -9877,-9970 -3749,-10663zm13475 13475c-1743,308 -2955,-3270 -938,-3515 -331,1706 1966,2589 938,3515zm-352 1992c-4142,586 -5611,-6834 -1523,-7734 -2331,2708 -649,6081 1523,7734zm-4687 -21326c-4567,2067 -6014,9186 586,9843 -8247,2670 -7423,-11070 -586,-9843zm2343 7851c60,1599 -4362,182 -4804,-351 -1695,-2048 193,-6137 2929,-5156 -563,1385 -2048,1194 -2343,2461 -817,3507 4161,1517 4218,3047zm-1406 -1054c-1276,-252 -1576,-3563 351,-2929 96,604 -266,749 -351,1172 994,354 2479,1408 0,1758zm12655 -5156c-1010,-505 -2579,-2090 -1641,-3398 679,838 2687,2339 1641,3398zm-1172 1289c-1421,391 -3597,-3457 -2343,-4921 383,1013 3272,4665 2343,4921zm-1992 703c-1677,-702 -3686,-4439 -1992,-6210 249,2254 2528,4703 1992,6210zm-1523 351c-1858,552 -3120,-2117 -3398,-4101 -102,-730 -163,-3921 1054,-3750 961,135 276,7544 2344,7851zm-2813 1055c-3365,-589 -3708,-8173 -1523,-10429 457,2729 22,8419 1523,10429zm-1757 117c162,318 -297,769 -469,820 -1983,592 -3068,-4828 -3047,-6913 26,-2610 617,-5319 2343,-6093 -1571,4117 -285,9316 1172,12186zm-2695 -12538c-1675,534 -3203,2392 -5039,1992 879,-1699 3014,-2142 4804,-2929 267,317 402,416 235,937zm-352 -1875c-1742,922 -3609,2317 -5507,2695 325,-2063 4132,-3978 5507,-2695zm-6445 1758c-693,-2355 3228,-3596 5390,-3867 -237,1938 -4120,2187 -5390,3867zm4687 -4804c5,998 -5764,2181 -6093,3164 -1248,-2039 6086,-4659 6093,-3164zm-7734 2109c-411,-1767 1926,-3365 3515,-3515 325,1305 -2065,2825 -3515,3515zm703 -4335c1125,286 -1609,3632 -2695,3750 -784,-1131 1710,-4000 2695,-3750z"/>
 </g>
</svg>
