<?xml version="1.0" encoding="UTF-8"?>
<!DOCTYPE svg PUBLIC "-//W3C//DTD SVG 1.1//EN" "http://www.w3.org/Graphics/SVG/1.1/DTD/svg11.dtd">
<!-- Creator: CorelDRAW X6 -->
<svg xmlns="http://www.w3.org/2000/svg" xml:space="preserve" width="273.584mm" height="437.735mm" version="1.1" style="shape-rendering:geometricPrecision; text-rendering:geometricPrecision; image-rendering:optimizeQuality; fill-rule:evenodd; clip-rule:evenodd"
viewBox="0 0 27358 43774"
 xmlns:xlink="http://www.w3.org/1999/xlink">
 <defs>
  <style type="text/css">
   <![CDATA[
    .fil0 {fill:#EDF7F7}
   ]]>
  </style>
 </defs>
 <g id="layer">
  <metadata id="CorelCorpID_0Corel-Layer"/>
  <path id="s" class="fil0" d="M25118 32816c-54,-257 -110,-542 -167,-830 -27,-137 -64,-351 -101,-458 -139,-406 -26,-164 -197,-383 -1878,3590 1220,5286 465,1671zm-15540 -32816l-698 0c-129,859 -475,2066 551,1858 349,-711 271,-1006 147,-1858zm16349 2708l-275 -1010c-121,-266 -63,-145 -176,-288 -1354,3104 845,3648 451,1298zm-15366 6283c947,403 439,-2389 380,-2487 -59,-98 -94,-148 -283,-244 -269,890 -1043,2328 -97,2731zm12210 7472l-431 1394c-847,2439 2144,1388 431,-1394zm-22114 -5682c540,-305 685,-888 502,-1625 -48,-192 -138,-405 -199,-605 -41,-134 -52,-211 -92,-321 -58,-161 27,42 -90,-220l-118 -217c-616,1002 -499,3267 -4,2988zm5649 15343l-225 760c-35,289 -65,633 -91,924 -60,667 -141,1597 526,1423 819,-213 58,-2657 -210,-3108zm18499 -10432c957,1212 1363,-2146 354,-2725 -133,1117 -1148,1719 -354,2725zm-15082 17096c-141,-599 -11,-550 -360,-711 -1229,3133 1231,4405 360,711zm-5914 -18560c507,-555 -177,-2323 -562,-2826l-282 871c-49,239 -172,727 -204,989 -111,909 541,1520 1048,965zm1690 5469c-224,-426 139,-2598 336,-2948l102 167c11,24 33,65 44,93 323,795 507,2328 289,2764 -217,433 -566,314 -771,-76zm15037 -8549c-415,1038 -702,3162 300,2742 429,-180 434,-902 315,-1450 -39,-180 -167,-594 -225,-759 -200,-570 -84,-408 -390,-532zm-5292 -4437c-201,314 -964,3133 99,2950 1005,-173 284,-2501 -99,-2950zm-11552 23315c-2604,3360 2622,3927 0,0zm15356 -22142c617,-291 392,-712 289,-1463 -69,-503 -207,-1183 -447,-1522 -265,296 -439,1092 -542,1567 -189,869 83,1710 700,1418zm-1483 28490c-19,-399 -306,-1651 -439,-1893 -1782,2360 570,4616 439,1893zm737 -15491c730,-460 282,-2637 -239,-3049 -85,253 -392,1325 -460,1645 -202,951 -32,1864 699,1403zm-10020 4273c593,53 378,-1721 272,-2163 -68,-287 -122,-477 -189,-779 -210,-946 108,-452 -383,-763 -74,591 -667,3619 300,3705zm8021 -24430c-154,163 -59,-13 -193,251 -78,154 -77,163 -137,408 -152,621 -630,2288 409,2113 1230,-207 283,-2229 -79,-2772zm11055 24082l0 -1416c-262,-543 -186,-1169 -491,-1655 -575,445 -1005,4027 491,3072zm-15698 3150c-156,-659 71,-435 -297,-624 -214,623 -290,1383 -362,2054 -191,1787 1555,2367 659,-1430zm-11234 9574l-406 1930c-234,2379 1610,1988 979,-123 -69,-230 -481,-1623 -573,-1807zm14797 -12481c128,-592 63,-980 -99,-1603 -155,-596 -196,-715 -467,-1244 -15,39 -33,54 -38,120l-199 1005c-78,407 -218,804 -261,1166 -170,1413 704,1359 1065,556zm8254 -18581c-74,106 -90,120 -172,281 -1642,3213 1445,3619 587,431 -37,-138 -70,-276 -142,-402 -254,-441 -58,-113 -273,-311zm-9224 33196c-148,-683 -291,-880 -700,-1136 -591,5099 1474,4703 700,1136zm-5131 -23377c656,302 895,-543 738,-1336 -96,-485 -429,-1527 -730,-1797 -499,832 -665,2831 -8,3133zm4672 -229c-865,441 -1200,2850 -363,3149 1105,395 437,-2610 363,-3149zm-5353 27713l1291 0c11,-955 -171,-2423 -602,-2925 -351,479 -690,2105 -689,2925zm-7543 -27919c-201,437 -379,1261 -471,1821 -499,3018 1890,2008 605,-1547 -10,-29 -30,-71 -40,-96 -10,-25 -37,-70 -46,-90 -9,-19 -31,-60 -48,-88zm1621 -11738c656,-655 33,-2182 -563,-2751 -252,356 -441,1237 -522,1848 -122,909 429,1558 1085,903zm12949 25615c-396,475 -1012,3565 123,3394 998,-151 138,-2980 -123,-3394zm-2574 -19142c-720,658 -1112,2983 -206,3136 1087,184 635,-2285 206,-3136zm-5998 -5823c-317,101 -218,-24 -463,594 -245,618 -675,2374 33,2611 1062,356 787,-2401 430,-3205zm13878 21834c-348,403 -1089,3572 -16,3479 1013,-88 403,-2894 16,-3479zm-19170 -2158l-150 437c-181,666 -607,3282 436,2936 870,-288 304,-2945 -286,-3373zm4351 11236c-82,342 -83,1671 -112,2168 -41,695 73,1865 844,1234 511,-419 163,-1350 30,-1915 -166,-702 -305,-1390 -762,-1486zm16787 5153c-18,-349 -150,-863 -232,-1185 -37,-146 -90,-383 -141,-541 -58,-180 -57,-188 -119,-309 -146,-286 -34,-107 -183,-267 -1569,3914 775,4277 675,2302z"/>
 </g>
</svg>
