<?xml version="1.0" encoding="UTF-8"?>
<!DOCTYPE svg PUBLIC "-//W3C//DTD SVG 1.1//EN" "http://www.w3.org/Graphics/SVG/1.1/DTD/svg11.dtd">
<!-- Creator: CorelDRAW X6 -->
<svg xmlns="http://www.w3.org/2000/svg" xml:space="preserve" width="273.584mm" height="437.735mm" version="1.1" style="shape-rendering:geometricPrecision; text-rendering:geometricPrecision; image-rendering:optimizeQuality; fill-rule:evenodd; clip-rule:evenodd"
viewBox="0 0 27358 43774"
 xmlns:xlink="http://www.w3.org/1999/xlink">
 <defs>
  <style type="text/css">
   <![CDATA[
    .fil0 {fill:#E6E6E6}
   ]]>
  </style>
 </defs>
 <g id="layer">
  <metadata id="CorelCorpID_0Corel-Layer"/>
  <path id="c" class="fil0" d="M17075 0l2245 0c-4,409 111,1194 216,1478 75,204 246,436 199,653 -193,167 -195,90 -377,90 -52,130 -103,262 -156,399 -93,240 -169,-18 -188,330 -32,574 269,511 312,779 -186,-23 -463,-273 -411,-700 24,-202 43,-77 53,-216 5,-77 -25,-153 -42,-226l-216 -2542c-201,-41 -364,196 -454,358 -162,293 137,1074 119,1426 -9,174 21,559 -73,671 -291,29 -271,-272 -257,-494 20,-304 2,-367 -46,-655 -33,-199 -67,-417 -90,-617 -28,-240 37,-351 -180,-518 -378,56 -27,48 -573,-163 -28,-11 -55,-29 -80,-53zm3680 0l474 0c48,73 84,166 121,286 19,372 38,492 -35,866 -100,511 -441,253 -473,198 -86,-148 -109,-618 -119,-798 -11,-194 -25,-385 32,-553zm1233 0l589 0c27,59 50,126 75,204 20,398 40,526 -38,927 -107,547 -472,271 -506,212 -92,-159 -117,-661 -127,-854 -9,-169 -21,-336 8,-489zm1806 0l559 0c24,132 49,252 65,337 60,312 -54,1327 -18,1469 40,157 39,82 148,165 491,376 334,648 169,999 -61,130 -43,29 -163,128 47,-157 170,-295 153,-484 -38,-411 -230,-573 -633,-694 -866,-258 -442,-70 -362,-1070 21,-260 72,-559 82,-849zm3565 8072l0 2684 -11 -11c37,168 -36,624 -55,827 -19,200 14,578 66,926l0 1408c-11,-1 -22,-1 -34,-1 -52,130 -103,262 -156,399 -93,240 -169,-18 -188,330 -32,574 269,511 312,779 -186,-23 -463,-273 -411,-700 24,-202 43,-77 53,-216 5,-77 -25,-153 -42,-226l-216 -2542c-201,-41 -364,196 -454,358 -162,293 137,1074 119,1426 -9,174 21,559 -73,671 -291,29 -271,-272 -257,-494 20,-304 2,-367 -46,-655 -33,-199 -67,-417 -90,-617 -28,-240 37,-351 -180,-518 -378,56 -27,48 -573,-163 -365,-141 -533,-1512 -487,-1824 32,-214 83,-477 150,-682 164,-503 154,-327 300,-426 79,-53 125,-120 230,-197 288,-213 434,-231 515,-297 201,-163 -47,-51 263,-132 -40,-136 -66,-57 -26,-116 149,84 93,134 245,6 99,95 93,102 229,84 -26,-118 -3,-51 -101,-132 164,-57 126,35 323,64l-32 89c73,27 239,111 278,114l323 -71c-114,-88 -141,-53 -196,-80 0,0 -89,-88 -116,-129 -10,1 -23,7 -30,9l-132 20c-22,-5 -61,-49 -138,-45 149,-75 346,83 485,108 95,-86 58,-94 53,-99 35,24 69,47 101,70zm0 16089l0 507c-311,109 -548,311 -579,311 -126,2 -284,-88 -434,-104 -801,-87 -1182,-20 -1682,629l-63 -60c37,168 -36,624 -55,827 -33,356 95,1277 211,1590 75,204 246,436 199,653 -193,167 -195,90 -377,90 -52,130 -103,262 -156,399 -93,240 -169,-18 -188,330 -32,574 269,511 312,779 -186,-23 -463,-273 -411,-700 24,-202 43,-77 53,-216 5,-77 -25,-153 -42,-226l-216 -2542c-201,-41 -364,196 -454,358 -162,293 137,1074 119,1426 -9,174 21,559 -73,671 -291,29 -271,-272 -257,-494 20,-304 2,-367 -46,-655 -33,-199 -67,-417 -90,-617 -28,-240 37,-351 -180,-518 -378,56 -27,48 -573,-163 -365,-141 -533,-1512 -487,-1824 32,-214 83,-477 150,-682 164,-503 154,-327 300,-426 79,-53 125,-120 230,-197 288,-213 434,-231 515,-297 201,-163 -47,-51 263,-132 -40,-136 -66,-57 -26,-116 149,84 93,134 245,6 99,95 93,102 229,84 -26,-118 -3,-51 -101,-132 164,-57 126,35 323,64l-32 89c73,27 239,111 278,114l323 -71c-114,-88 -141,-53 -196,-80 0,0 -89,-88 -116,-129 -10,1 -23,7 -30,9l-132 20c-22,-5 -61,-49 -138,-45 149,-75 346,83 485,108 95,-86 58,-94 53,-99 1319,889 675,1294 702,1724 251,-11 493,-210 1147,-296 121,-16 762,-42 1000,32zm0 1908l0 1691c-16,-14 -27,-26 -32,-34 -92,-159 -117,-661 -127,-854 -16,-295 -41,-584 159,-803zm0 1862l0 1257c-692,159 -1030,-17 -1526,-582 27,-324 102,-290 160,-323 321,-180 50,-361 988,-359 107,0 246,-6 378,6zm0 1910l0 1235c-40,21 -83,44 -127,68 -179,98 -615,13 -772,-118 -112,-94 -736,-963 -801,-1101 -181,-384 -429,-194 -504,-403 317,-66 983,356 2143,322 21,-1 42,-1 61,-2zm0 11566l0 1c-93,-38 -188,-66 -269,-26 77,-5 116,39 138,45l130 -20zm0 266l0 2100 -2340 0c-21,-207 -25,-381 -12,-470 32,-214 83,-477 150,-682 164,-503 154,-327 300,-426 79,-53 125,-120 230,-197 288,-213 434,-231 515,-297 201,-163 -47,-51 263,-132 -40,-136 -66,-57 -26,-116 149,84 93,134 245,6 99,95 93,102 229,84 -26,-118 -3,-51 -101,-132 164,-57 126,35 323,64l-32 89c64,24 198,90 257,109zm-25327 2100l-2031 0 0 -291c282,55 614,94 1000,83 487,-14 577,-110 1003,-276 182,-71 270,-84 438,-196 218,-145 180,-202 324,-300l93 199c-322,299 -477,87 -826,781zm-2031 -1007l0 -1036c99,-52 279,-85 683,-85 224,0 589,-28 738,149 234,278 120,105 236,226 50,53 339,601 -239,788 -672,217 -1050,213 -1418,-42zm0 -1198l0 -1607c137,77 204,208 272,429 19,372 38,492 -35,866 -46,235 -142,307 -237,312zm0 -2978l0 -732c20,-3 41,-6 62,-9 140,-18 981,-50 1079,75 24,32 -33,-20 39,102 73,-116 27,-129 194,-67 373,138 240,140 241,148 1,5 2,16 2,21 1,6 1,17 3,23 35,170 98,177 226,130l-103 -136c117,-59 62,12 169,-56 27,-257 -67,-604 124,-852l228 44c115,-310 -214,-86 67,-559l89 -13c97,-8 -37,-60 130,23l297 -353c115,-65 351,45 465,-210 47,161 -1,-11 297,88 134,45 367,-44 568,32 152,57 121,103 265,167 280,125 570,901 658,1203 148,506 -103,1049 -485,1359 -782,633 -1037,279 -1413,355 -30,247 91,815 140,1067 60,312 -54,1327 -18,1469 40,157 39,82 148,165 491,376 334,648 169,999 -61,130 -43,29 -163,128 47,-157 170,-295 153,-484 -38,-411 -230,-573 -633,-694 -866,-258 -442,-70 -362,-1070 39,-490 186,-1119 -37,-1569 -192,-388 -392,-763 -791,-971 -604,-315 -1271,287 -1323,287 -126,2 -284,-88 -434,-104 -16,-2 -32,-3 -48,-5zm0 -20393l0 -914c312,70 690,127 1145,113 487,-14 577,-110 1003,-276 182,-71 270,-84 438,-196 218,-145 180,-202 324,-300l93 199c-349,324 -502,48 -918,975 -260,579 -476,610 -1006,899 -179,98 -615,13 -772,-118 -45,-37 -169,-196 -307,-382zm0 -1712l0 -783c102,-126 129,-225 828,-224 224,0 589,-28 738,149 234,278 120,105 236,226 50,53 339,601 -239,788 -761,246 -1144,208 -1563,-156zm0 -1124l0 -1624c242,61 328,197 417,485 19,372 38,492 -35,866 -71,364 -265,338 -382,273zm0 -2952l0 -695c64,-12 133,-23 207,-33 140,-18 981,-50 1079,75 24,32 -33,-20 39,102 73,-116 27,-129 194,-67 373,138 240,140 241,148 1,5 2,16 2,21 1,6 1,17 3,23 35,170 98,177 226,130l-103 -136c117,-59 62,12 169,-56 27,-257 -67,-604 124,-852l228 44c115,-310 -214,-86 67,-559l89 -13c97,-8 -37,-60 130,23l297 -353c115,-65 351,45 465,-210 47,161 -1,-11 297,88 134,45 367,-44 568,32 152,57 121,103 265,167 280,125 570,901 658,1203 148,506 -103,1049 -485,1359 -782,633 -1037,279 -1413,355 -30,247 91,815 140,1067 60,312 -54,1327 -18,1469 40,157 39,82 148,165 491,376 334,648 169,999 -61,130 -43,29 -163,128 47,-157 170,-295 153,-484 -38,-411 -230,-573 -633,-694 -866,-258 -442,-70 -362,-1070 39,-490 186,-1119 -37,-1569 -192,-388 -392,-763 -791,-971 -604,-315 -1271,287 -1323,287 -126,2 -284,-88 -434,-104 -67,-7 -131,-13 -193,-18zm20613 -10187c574,654 936,787 1883,481 579,-187 290,-735 239,-788 -116,-122 -2,52 -236,-226 -149,-177 -514,-148 -738,-149 -938,-2 -667,179 -988,359 -58,32 -133,-1 -160,323zm-678 915c75,210 323,20 504,403 65,138 689,1007 801,1101 157,131 592,216 772,118 530,-289 746,-320 1006,-899 416,-927 569,-651 918,-975l-93 -199c-143,98 -106,156 -324,300 -168,111 -256,125 -438,196 -427,166 -516,262 -1003,276 -1159,34 -1826,-388 -2143,-322zm-2611 9257c-166,-83 -33,-30 -130,-23l-89 13c-281,473 49,249 -67,559l-228 -44c-191,249 -97,596 -124,852 -108,68 -52,-3 -169,56l103 136c-129,47 -192,39 -226,-130 -1,-6 -2,-17 -3,-23 -1,-5 -2,-16 -2,-21 -1,-8 133,-10 -241,-148 -167,-62 -121,-48 -194,67 -72,-121 -15,-70 -39,-102 -97,-126 -938,-94 -1079,-75 -655,85 -897,285 -1147,296 -27,-430 617,-835 -702,-1724 6,5 43,13 -53,99 -140,-25 -337,-183 -485,-108 77,-5 116,39 138,45l132 -20c7,-2 20,-8 30,-9 27,41 116,129 116,129 55,27 82,-7 196,80l-323 71c-39,-4 -205,-87 -278,-114l32 -89c-197,-29 -159,-120 -323,-64 99,81 75,14 101,132 -136,19 -130,12 -229,-84 -152,128 -96,78 -245,-6 -39,60 -13,-20 26,116 -310,81 -62,-31 -263,132 -81,66 -228,84 -515,297 -104,77 -151,144 -230,197 -146,99 -136,-77 -300,426 -67,204 -118,468 -150,682 -47,312 121,1683 487,1824 546,211 195,219 573,163 217,168 152,278 180,518 23,199 57,418 90,617 48,289 66,351 46,655 -14,222 -34,523 257,494 94,-111 64,-497 73,-671 17,-352 -281,-1134 -119,-1426 90,-162 253,-399 454,-358l216 2542c17,73 47,149 42,226 -10,139 -28,15 -53,216 -52,427 225,678 411,700 -43,-268 -344,-205 -312,-779 19,-347 96,-90 188,-330 53,-137 104,-268 156,-399 182,-1 185,77 377,-90 47,-217 -123,-450 -199,-653 -115,-313 -244,-1234 -211,-1590 19,-203 92,-659 55,-827l63 60c500,-649 881,-716 1682,-629 151,16 308,106 434,104 53,-1 719,-602 1323,-287 399,208 600,583 791,971 223,451 76,1080 37,1569 -79,1000 -503,812 362,1070 403,120 594,282 633,694 18,189 -105,327 -153,484 120,-98 102,2 163,-128 165,-351 322,-622 -169,-999 -109,-84 -108,-8 -148,-165 -36,-142 78,-1156 18,-1469 -48,-252 -169,-820 -140,-1067 376,-75 631,278 1413,-355 383,-310 633,-853 485,-1359 -88,-302 -379,-1078 -658,-1203 -144,-64 -112,-110 -265,-167 -201,-76 -434,13 -568,-32 -298,-100 -250,73 -297,-88 -113,255 -350,144 -465,210l-297 353zm-2277 3658c-95,-307 -187,-441 -468,-496 -198,207 -174,482 -159,762 10,180 33,650 119,798 32,55 373,313 473,-198 73,-374 55,-494 35,-866zm1301 -82c-101,-328 -200,-472 -501,-530 -212,221 -186,515 -170,815 10,193 35,695 127,854 34,59 399,335 506,-212 78,-400 58,-528 38,-927zm-2038 2019c574,654 936,787 1883,481 579,-187 290,-735 239,-788 -116,-122 -2,52 -236,-226 -149,-177 -514,-148 -738,-149 -938,-2 -667,179 -988,359 -58,32 -133,-1 -160,323zm-678 915c75,210 323,20 504,403 65,138 689,1007 801,1101 157,131 592,216 772,118 530,-289 746,-320 1006,-899 416,-927 569,-651 918,-975l-93 -199c-143,98 -106,156 -324,300 -168,111 -256,125 -438,196 -427,166 -516,262 -1003,276 -1159,34 -1826,-388 -2143,-322zm12937 7762c-95,-307 -187,-441 -468,-496 -198,207 -174,482 -159,762 10,180 33,650 119,798 32,55 373,313 473,-198 73,-374 55,-494 35,-866zm-8487 5849c-166,-83 -33,-30 -130,-23l-89 13c-281,473 49,249 -67,559l-228 -44c-191,249 -97,596 -124,852 -108,68 -52,-3 -169,56l103 136c-129,47 -192,39 -226,-130 -1,-6 -2,-17 -3,-23 -1,-5 -2,-16 -2,-21 -1,-8 133,-10 -241,-148 -167,-62 -121,-48 -194,67 -72,-121 -15,-70 -39,-102 -97,-126 -938,-94 -1079,-75 -655,85 -897,285 -1147,296 -27,-430 617,-835 -702,-1724 6,5 43,13 -53,99 -140,-25 -337,-183 -485,-108 77,-5 116,39 138,45l132 -20c7,-2 20,-8 30,-9 27,41 116,129 116,129 55,27 82,-7 196,80l-323 71c-39,-4 -205,-87 -278,-114l32 -89c-197,-29 -159,-120 -323,-64 99,81 75,14 101,132 -136,19 -130,12 -229,-84 -152,128 -96,78 -245,-6 -39,60 -13,-20 26,116 -310,81 -62,-31 -263,132 -81,66 -228,84 -515,297 -104,77 -151,144 -230,197 -146,99 -136,-77 -300,426 -67,204 -118,468 -150,682 -47,312 121,1683 487,1824 546,211 195,219 573,163 217,168 152,278 180,518 23,199 57,418 90,617 48,289 66,351 46,655 -14,222 -34,523 257,494 94,-111 64,-497 73,-671 17,-352 -281,-1134 -119,-1426 90,-162 253,-399 454,-358l216 2542c17,73 47,149 42,226 -10,139 -28,15 -53,216 -52,427 225,678 411,700 -43,-268 -344,-205 -312,-779 19,-347 96,-90 188,-330 53,-137 104,-268 156,-399 182,-1 185,77 377,-90 47,-217 -123,-450 -199,-653 -115,-313 -244,-1234 -211,-1590 19,-203 92,-659 55,-827l63 60c500,-649 881,-716 1682,-629 151,16 308,106 434,104 53,-1 719,-602 1323,-287 399,208 600,583 791,971 223,451 76,1080 37,1569 -79,1000 -503,812 362,1070 403,120 594,282 633,694 18,189 -105,327 -153,484 120,-98 102,2 163,-128 165,-351 322,-622 -169,-999 -109,-84 -108,-8 -148,-165 -36,-142 78,-1156 18,-1469 -48,-252 -169,-820 -140,-1067 376,-75 631,278 1413,-355 383,-310 633,-853 485,-1359 -88,-302 -379,-1078 -658,-1203 -144,-64 -112,-110 -265,-167 -201,-76 -434,13 -568,-32 -298,-100 -250,73 -297,-88 -113,255 -350,144 -465,210l-297 353zm-2277 3658c-95,-307 -187,-441 -468,-496 -198,207 -174,482 -159,762 10,180 33,650 119,798 32,55 373,313 473,-198 73,-374 55,-494 35,-866zm1301 -82c-101,-328 -200,-472 -501,-530 -212,221 -186,515 -170,815 10,193 35,695 127,854 34,59 399,335 506,-212 78,-400 58,-528 38,-927zm-2038 2019c574,654 936,787 1883,481 579,-187 290,-735 239,-788 -116,-122 -2,52 -236,-226 -149,-177 -514,-148 -738,-149 -938,-2 -667,179 -988,359 -58,32 -133,-1 -160,323zm-678 915c75,210 323,20 504,403 65,138 689,1007 801,1101 157,131 592,216 772,118 530,-289 746,-320 1006,-899 416,-927 569,-651 918,-975l-93 -199c-143,98 -106,156 -324,300 -168,111 -256,125 -438,196 -427,166 -516,262 -1003,276 -1159,34 -1826,-388 -2143,-322zm-6088 -17149c-166,-83 -33,-30 -130,-23l-89 13c-281,473 49,249 -67,559l-228 -44c-191,249 -97,596 -124,852 -108,68 -52,-3 -169,56l103 136c-129,47 -192,39 -226,-130 -1,-6 -2,-17 -3,-23 -1,-5 -2,-16 -2,-21 -1,-8 133,-10 -241,-148 -167,-62 -121,-48 -194,67 -72,-121 -15,-70 -39,-102 -97,-126 -938,-94 -1079,-75 -655,85 -897,285 -1147,296 -27,-430 617,-835 -702,-1724 6,5 43,13 -53,99 -140,-25 -337,-183 -485,-108 77,-5 116,39 138,45l132 -20c7,-2 20,-8 30,-9 27,41 116,129 116,129 55,27 82,-7 196,80l-323 71c-39,-4 -205,-87 -278,-114l32 -89c-197,-29 -159,-120 -323,-64 99,81 75,14 101,132 -136,19 -130,12 -229,-84 -152,128 -96,78 -245,-6 -39,60 -13,-20 26,116 -310,81 -62,-31 -263,132 -81,66 -228,84 -515,297 -104,77 -151,144 -230,197 -146,99 -136,-77 -300,426 -67,204 -118,468 -150,682 -47,312 121,1683 487,1824 546,211 195,219 573,163 217,168 152,278 180,518 23,199 57,418 90,617 48,289 66,351 46,655 -14,222 -34,523 257,494 94,-111 64,-497 73,-671 17,-352 -281,-1134 -119,-1426 90,-162 253,-399 454,-358l216 2542c17,73 47,149 42,226 -10,139 -28,15 -53,216 -52,427 225,678 411,700 -43,-268 -344,-205 -312,-779 19,-347 96,-90 188,-330 53,-137 104,-268 156,-399 182,-1 185,77 377,-90 47,-217 -123,-450 -199,-653 -115,-313 -244,-1234 -211,-1590 19,-203 92,-659 55,-827l63 60c500,-649 881,-716 1682,-629 151,16 308,106 434,104 53,-1 719,-602 1323,-287 399,208 600,583 791,971 223,451 76,1080 37,1569 -79,1000 -503,812 362,1070 403,120 594,282 633,694 18,189 -105,327 -153,484 120,-98 102,2 163,-128 165,-351 322,-622 -169,-999 -109,-84 -108,-8 -148,-165 -36,-142 78,-1156 18,-1469 -48,-252 -169,-820 -140,-1067 376,-75 631,278 1413,-355 383,-310 633,-853 485,-1359 -88,-302 -379,-1078 -658,-1203 -144,-64 -112,-110 -265,-167 -201,-76 -434,13 -568,-32 -298,-100 -250,73 -297,-88 -113,255 -350,144 -465,210l-297 353zm-2277 3658c-95,-307 -187,-441 -468,-496 -198,207 -174,482 -159,762 10,180 33,650 119,798 32,55 373,313 473,-198 73,-374 55,-494 35,-866zm1301 -82c-101,-328 -200,-472 -501,-530 -212,221 -186,515 -170,815 10,193 35,695 127,854 34,59 399,335 506,-212 78,-400 58,-528 38,-927zm-2038 2019c574,654 936,787 1883,481 579,-187 290,-735 239,-788 -116,-122 -2,52 -236,-226 -149,-177 -514,-148 -738,-149 -938,-2 -667,179 -988,359 -58,32 -133,-1 -160,323zm-678 915c75,210 323,20 504,403 65,138 689,1007 801,1101 157,131 592,216 772,118 530,-289 746,-320 1006,-899 416,-927 569,-651 918,-975l-93 -199c-143,98 -106,156 -324,300 -168,111 -256,125 -438,196 -427,166 -516,262 -1003,276 -1159,34 -1826,-388 -2143,-322zm-2892 -14248c-101,-328 -200,-472 -501,-530 -212,221 -186,515 -170,815 10,193 35,695 127,854 34,59 399,335 506,-212 78,-400 58,-528 38,-927zm-145 26167c-101,-328 -200,-472 -501,-530 -212,221 -186,515 -170,815 10,193 35,695 127,854 34,59 399,335 506,-212 78,-400 58,-528 38,-927z"/>
 </g>
</svg>
