<?xml version="1.0" encoding="UTF-8"?>
<!DOCTYPE svg PUBLIC "-//W3C//DTD SVG 1.1//EN" "http://www.w3.org/Graphics/SVG/1.1/DTD/svg11.dtd">
<!-- Creator: CorelDRAW X6 -->
<svg xmlns="http://www.w3.org/2000/svg" xml:space="preserve" width="273.584mm" height="437.735mm" version="1.1" style="shape-rendering:geometricPrecision; text-rendering:geometricPrecision; image-rendering:optimizeQuality; fill-rule:evenodd; clip-rule:evenodd"
viewBox="0 0 27358 43774"
 xmlns:xlink="http://www.w3.org/1999/xlink">
 <defs>
  <style type="text/css">
   <![CDATA[
    .fil0 {fill:#F5F3EB}
   ]]>
  </style>
 </defs>
 <g id="layer">
  <metadata id="CorelCorpID_0Corel-Layer"/>
  <path id="d" class="fil0" d="M25993 21797l1046 213c122,1259 -2336,2884 -3394,3380 -890,418 -1937,656 -2935,540 -1337,-154 -2024,-134 -3346,-106 914,-822 3229,12 5749,-733 1141,-337 3522,-1573 3464,-2910 -986,-2 -913,909 -2927,1658 -1280,477 -2628,470 -3902,0 303,-185 4565,21 5104,-1320 -1861,-49 -3849,-2596 -6647,-1183 -2806,1417 -2956,5341 -2574,5634 619,268 1199,-376 2051,-357 505,399 317,551 644,980 569,90 643,-389 1476,-293 280,145 753,2692 2514,2053 1140,-414 1348,-2121 2015,-2533 1046,-84 1223,862 2389,-41 38,-303 147,-1392 205,-1603 76,-281 234,-416 433,-489l0 -4074c-651,204 -705,887 -1365,1184zm-11678 -21797c190,802 -3,1186 174,1976 261,-415 585,-1363 666,-1976l-840 0zm11494 43774c-158,-87 -226,-67 -466,-404 210,-718 75,85 478,-444 -22,-409 -126,-452 -537,-416l-143 451 -400 140c-155,425 -103,423 -30,673l1098 0zm-8384 -33645c725,-431 1270,-1334 550,-2080 -345,400 -312,562 -344,1113 -81,-618 -29,-502 34,-1049 -639,406 -336,1333 -240,2016zm-3780 -10128c124,722 -63,1272 83,1808 132,482 657,1033 1109,745 -965,-413 -262,-967 -689,-2553l-504 0zm13713 43448c-187,106 -383,219 -559,325l559 0 0 -325zm-22444 -20389c196,342 142,283 573,437l141 -458c393,203 710,788 1206,307 438,-425 153,-1066 -186,-1440l-338 450c-357,476 -599,276 -1396,704zm16455 -9184c-141,-432 -76,-846 243,-1143 519,-481 621,-141 1019,-681 -515,16 -1010,-48 -1463,231 -637,392 -356,598 -216,1097l-438 456c192,437 766,708 1141,861 -42,-498 -117,-400 -286,-822 392,438 107,684 807,1037l196 -364c468,145 160,483 984,305 493,-732 -112,-1026 -276,-1659 228,-286 -14,-168 426,-241l-62 -296 390 -110 -259 -521c243,-315 160,-98 228,-509l-358 -364c-443,25 -203,74 -421,106 -137,20 -240,-33 -518,14 42,502 11,369 262,470l274 50c-384,1021 -1787,184 -1672,2082zm-21022 17898c307,278 775,250 1228,286 -437,220 -655,92 -1173,-18 637,687 1746,380 2510,1 -791,-1007 -1564,-870 -2564,-269zm10338 -30524c386,644 1103,429 1719,405 -315,-812 -726,-234 -557,-1655l-381 0 -5 29c-517,272 -506,42 -903,559l127 662zm64 12508l362 -145c155,-276 497,-711 774,-779l-11 -225 -1310 192c98,-132 168,-222 547,-306 281,-62 443,-26 715,-141 -1594,-306 -1592,342 -2746,1036 453,289 1082,415 1669,367zm10427 30015c22,-816 -630,-1148 -1483,-1010l-161 511c-482,36 -621,-99 -1048,244l-13 256 2705 0zm-20208 0c-125,-793 -537,-1302 -968,-1758l0 1758 968 0zm20378 -33850c-147,-481 -800,-1092 -1414,-1109 780,1275 197,1812 2204,2396 -196,-856 -819,-2867 -1993,-2564 498,367 1035,542 1203,1277zm-17376 11768c-268,307 -838,505 -262,990 154,129 921,523 1089,596 -22,-752 -777,-1143 -308,-1994 488,-886 1141,-634 1541,-1194 -649,65 -1190,-54 -1791,263 -768,406 -484,757 -269,1339zm-2675 -21691c426,878 1611,2046 2489,2241 -680,-598 -618,-1442 -458,-2241l-2031 0zm7163 15540c-161,458 -293,669 -128,1133 427,119 57,126 438,-92 331,-190 147,-16 365,-280 -290,-400 -222,-22 -344,-468 578,-368 1217,62 1150,-1113 -448,-909 -975,-706 -1879,-867 326,524 756,995 398,1686zm17905 24196c-1190,-675 -767,-805 -1362,-1652 -57,2102 1338,1675 2024,2921 97,-643 191,-1655 -175,-2214 -177,-271 -1251,-860 -1593,-965 280,1284 394,1061 1107,1910zm-25789 -10520l167 94c143,-527 508,-1305 1016,-1498 -457,500 -896,1001 -825,1768 402,-629 949,-528 1455,-1019 878,-852 453,-1170 776,-1660l56 -420c-254,145 -427,360 -805,524 -1142,495 -1661,950 -1840,2212zm12453 -22563c876,381 1839,1061 2924,422 195,-115 218,-169 439,-241 28,-9 219,-49 236,-54 31,-9 131,-40 157,-50l132 -76c-684,-628 -1397,-170 -1833,-391 874,-185 1099,-113 1894,160 -620,-1058 -2047,-587 -2955,-112 -345,181 -741,221 -993,342zm3585 -6653l42 108c-114,207 -1593,1558 609,1897 732,113 920,180 1592,351 -195,-1205 -1145,-960 -1574,-2356l-668 0zm-16339 6808c364,-134 1566,-910 1682,-936 214,-567 305,-479 296,-1170 -5,-428 -142,-918 43,-1276 -206,-46 -671,554 -817,793 -281,460 -309,896 -461,1361 -56,-1571 292,-1246 854,-2261 -1581,595 -1174,2176 -1598,3490zm17216 -6808c212,742 699,1080 1196,1643 18,20 67,80 86,98 111,102 68,55 172,117 524,-809 1407,-1026 1766,-1858l-3220 0zm-5807 16038c-51,346 -266,268 -505,612 -186,269 -211,597 -304,882 -259,796 249,1076 41,2000l1564 -1958c268,-495 588,-1490 197,-2011 -234,-312 -84,-17 -507,-228 -110,374 -156,518 -487,703zm-11682 21038c3,-18 6,-37 10,-57 91,-526 23,-195 212,-559 314,-603 75,-1287 -222,-1812l0 2428zm6413 -19411c389,83 719,-21 1051,-237 551,-358 467,-209 958,-409 -546,-727 -1470,15 -1980,-784 830,307 866,323 1709,406 32,-328 116,-896 309,-1150 -122,-1220 -157,-1056 -916,-1904l169 -636 -384 103c-1,-519 222,-236 95,-833l-876 -97c-90,-343 -57,-574 -406,-680 -365,-111 -644,16 -907,237l15 505c-928,672 -192,1136 375,704 -76,-397 -168,-40 -18,-531 870,-172 1334,966 1244,1719 -119,990 -600,1570 380,2255 -905,-435 -832,-1169 -583,-2074 229,-834 -5,-1853 -979,-1844 459,628 677,404 274,1850 -323,1162 351,1605 499,1973 -1164,-355 -385,-2529 -505,-3103 -443,720 -1605,2282 -912,3151 338,423 615,261 1093,355 28,900 -62,676 294,1027zm6302 15941c227,-214 834,-1693 707,-2371 -73,-386 -1098,-1618 -1386,-1931 -218,1385 -53,1419 381,2605 -1147,-1195 -587,-2234 -692,-2635 -186,728 -617,1503 -170,2348 401,760 826,1041 1161,1985zm8219 -33606c-509,1236 -1946,945 -1833,2231 278,14 212,-60 502,-23 279,36 292,101 671,118l-126 -880c739,-26 1084,803 1874,275 714,-478 522,-1063 349,-1721l-1436 0zm-9031 0c7,1454 298,979 1089,1864l-94 586 363 -165c47,442 -133,388 23,760l803 -37 270 519c519,131 729,45 1019,-345 13,-253 -20,-123 -70,-467 666,-640 49,-1004 -426,-611 -6,496 200,23 23,606 -1473,239 -1390,-1967 -1426,-2710l-1575 0zm15456 41850c-526,310 -847,880 -1332,1390 658,-154 917,-487 1332,-650l0 -740zm-20884 -22622l-600 -98c-168,922 341,403 812,472 30,1461 -892,1408 -1934,2096 560,-1004 1852,-297 1865,-1938 -1110,1148 -1071,535 -1730,1138 -647,592 -511,1471 -7,2020 1516,-222 1483,-860 1618,-1401 111,-445 195,-225 568,-413l-263 -248 586 -154c-38,-392 -146,-302 -303,-671 219,-316 551,-800 -342,-1032l-270 229zm5888 -8645l189 135c343,-1246 -467,-1619 -859,-2447 730,385 1152,1413 1155,2248l292 -325c-103,-2438 -1857,-2409 -3062,-3919l-2 1323c98,184 211,1111 864,1794 403,421 1349,565 1424,1192zm-12363 -9552c414,-55 802,-15 1023,281 -171,-675 -582,-919 -1023,-1094l0 813zm25821 3763c-249,377 -375,359 -640,871 -167,323 -307,824 -351,1206 -136,1202 278,1578 -30,2909 422,-258 527,-657 871,-899 111,-78 904,-358 703,-1064l236 -97c341,-2052 -318,-1482 164,-2828 -1188,295 -1096,1737 -1460,2475 -74,-998 319,-2034 1110,-2642l-604 69zm-20924 980c357,-63 261,1771 405,2226 159,498 795,1441 1194,1672l41 -6c318,51 772,569 1125,733 -191,-764 -351,-2022 -295,-2782 -367,-486 -900,-2644 -2148,-2232 879,544 1597,1585 1580,2710 -251,-706 -709,-2047 -1539,-2414 -548,-242 -270,-55 -363,95zm-4897 9745c675,920 1286,1735 1858,2180 337,263 1069,607 1258,813 642,12 1226,249 2068,224 625,-19 1601,-90 2046,-359l-773 -182 -1184 -497c-968,598 -2222,106 -3096,-512 -899,-635 -1441,-1352 -2070,-2234 -35,-49 -70,-99 -106,-149l0 715zm17788 -8559c80,482 577,1012 889,1339 695,727 1158,144 1764,-27 1,0 1630,962 2382,-583 455,-934 -140,-2008 -804,-2552 -272,2604 -2598,2043 -2872,2073 -859,95 -613,-16 -1359,-250zm904 34510l-223 400c227,-58 604,-215 821,-318 904,-433 536,-171 900,-259l500 -187c195,-153 244,-331 537,-529 1020,-688 780,-2588 1641,-2724 -174,-229 -70,-249 -572,-135 -541,122 -747,363 -1111,659 -518,420 -645,809 -1048,1291 186,-661 422,-1001 904,-1434 249,-224 378,-331 667,-506 575,-347 439,-95 821,-428 -2872,-437 -3140,3654 -3838,4171zm-11393 -17424c429,596 205,1660 1359,2276 766,409 2042,293 2654,875 -876,-1985 -1374,-1857 -3068,-3027 1731,658 2388,912 3273,2573 8,-743 -564,-1876 -1140,-2335 -680,-542 -1802,-567 -2359,-1092 -437,-79 -600,-271 -878,-591 42,474 207,892 160,1320zm5910 -13194c-115,552 7,1577 237,2031 185,-1153 998,-1766 2185,-1752 1094,14 1885,797 2786,1245l-251 -784c-1102,-172 -1078,-1568 -2276,-2272 -1310,-770 -2466,172 -2682,1531zm-13210 29828c109,-43 222,-127 354,-251l40 -408 -394 -260 0 919zm27358 -12856c-39,28 -79,59 -121,94 -90,524 -23,743 121,912l0 -1006zm-1765 -23253c584,-114 1280,-566 1765,-1072l0 -575c-1972,398 -2726,-1042 -2979,-2924l-513 0c134,718 160,485 -198,1320 -219,511 -346,1163 -258,1722 153,973 1174,1865 2184,1528zm-1054 -4571c405,2171 1785,3021 2819,2699l0 -2699 -2819 0zm2819 17728c-120,12 -256,33 -411,65 136,-127 273,-204 411,-242l0 -363c-160,70 -325,171 -496,307 -447,358 -440,773 -749,1267 162,111 859,546 1244,747l0 -1781zm-27358 13985l595 -648c530,-875 182,-1083 -152,-1827l-182 -121c74,-715 418,-879 -34,-1681 -66,-116 -141,-230 -227,-336l0 4614zm8374 12061c-61,-1016 -146,-1965 879,-2585 2089,-1263 4192,151 5948,-1276 559,-454 1587,-1769 665,-2389l-19 682c-1362,1662 -3719,412 -5670,1261 -832,362 -1350,860 -1808,1616 -572,945 -466,1680 -392,2690l397 0zm-3616 -9928c-1100,564 -2347,1744 -2869,2891 -780,1714 -611,3190 -419,5019 203,-264 180,-470 313,-827 207,-638 459,-900 736,-1467 -320,-970 -387,-1181 61,-2220 966,-2240 2500,-2960 4360,-4129 1144,-719 2393,-1426 3229,-2434 848,-1022 1911,-2284 1947,-3750 -200,220 -217,369 -345,669l-1024 1612c-560,741 -1045,1216 -1707,1805 -1276,1135 -2827,1896 -4282,2830zm20192 2183c-1366,-85 -2201,-680 -2549,-2065 -311,-1235 310,-2560 749,-3666 -1579,723 -419,1000 -1699,2091 -2474,2109 -1163,5344 2168,4326l1039 -425c419,-222 151,-39 293,-262zm-24951 -19007c114,-98 207,-199 275,-303 -91,58 -183,111 -275,160l0 143zm0 -695c15,-16 31,-35 49,-54 -16,-4 -33,-8 -49,-12l0 66zm6159 23352l-664 24c-261,392 -58,517 221,765 509,-217 10,-77 441,-311 688,-100 409,1530 -791,2042 -1026,438 -1220,277 -1439,1459 -46,-1096 426,-1280 1383,-1625 555,-200 565,-122 916,-660 151,-232 324,-606 210,-894 -68,-172 -96,-121 -184,-208 -136,476 -89,535 -514,861 -184,-275 -29,-112 -262,-275 -980,103 -2301,-76 -2757,1033 -28,647 119,488 340,1027l-651 431 -1 427 3422 0c462,-674 229,-759 560,-1452l550 -126 -204 -374 677 -127c-96,-611 -184,-352 -378,-863 141,-351 234,-231 323,-689 -163,-361 -377,-628 -841,-700l-355 235zm6003 -26742c-149,642 -435,910 -125,1619 323,739 714,517 1088,926 137,780 -30,1124 654,1719 512,445 1022,637 1718,525 1380,-222 1765,-1401 2167,-2543 -3240,1370 -3981,-1530 -4143,-1729 -236,-291 -574,-255 -633,-1636l-229 -101 -497 1221zm-8409 -12935c-191,754 -313,1598 342,2175 481,424 1693,692 2346,637 1482,-126 2693,-1420 3055,-2812l-5743 0zm15786 6419c1774,-992 1002,-1563 1751,-3040l-687 219c-283,-202 -382,-236 -794,-225 -921,613 -875,128 -1828,355 -2200,524 -1429,2898 701,3254 -1480,-1924 906,-3283 1740,-3360 -710,482 -1327,572 -1782,1458 -1006,1963 1777,2981 2995,746 415,-761 47,-2239 660,-2519 49,452 -268,-104 -266,743 527,-204 943,-522 529,-1099 -917,-57 -1401,866 -1532,1671 -141,866 -503,1747 -1489,1796zm487 8422l352 -371c-165,-1253 -2078,-980 -2939,-639 -2010,797 -2469,-192 -3007,-700 2939,1869 2547,-98 4740,181 -181,-217 -666,-468 -710,-702 -948,-528 -1719,-1233 -2932,-1165 -1087,61 -2173,817 -1742,2030 372,1047 1122,1639 2241,1748 1592,155 1867,-743 3038,-932l-275 230c484,241 681,360 1232,321zm7332 -7649c-19,31 -37,66 -56,104 -264,552 -156,740 56,1163l0 -1267zm-23956 10101c56,-1062 54,-2263 -296,-3274 -305,-882 -1113,-1510 -1355,-2424 293,280 1615,1934 1780,2288 705,1508 285,3068 382,3462 1708,-4737 -1372,-5723 -2314,-7513 -188,-358 -276,-809 -421,-1099 -170,318 -614,1899 -743,2363 -1120,4009 1770,3959 2965,6196zm1013 8305c-89,572 -350,1370 -750,1731 -157,1030 -1035,1630 -828,3145 105,770 637,2348 1193,2856 -188,-1214 -748,-2127 -297,-3512 308,-945 911,-1842 1101,-2827 31,988 -528,2004 -711,3001 -270,1466 344,2201 482,3443l128 -277c560,-1456 1878,-2532 1943,-4040 60,-1409 -1082,-2985 -1851,-4099l-269 -571 -141 1150zm19439 11557c748,-32 1729,505 2876,310 263,-45 466,-124 628,-231l0 -3613c-82,326 -217,644 -413,942 -624,951 -935,642 -1377,1470 -391,732 -1358,644 -1714,1122zm3504 -6626l-895 -131c438,460 748,1036 895,1649l0 -1518zm-18855 -24757c1014,-455 1275,-382 1825,-1492 556,-1122 113,-1868 -131,-2922l-516 -931c-457,789 78,520 -1128,1787 -1189,1249 -2593,1094 -3946,519 -456,-194 -229,-28 -606,-5 -724,44 -1422,-806 -1937,-1063 138,797 640,2031 1107,2693 263,372 645,698 1145,768 862,120 947,-252 1661,-245 889,918 1180,1008 2527,890zm17086 23984c-245,-95 -1178,-1196 -680,-1558 206,386 -374,610 475,1081 207,-650 99,-927 51,-1519 -413,-168 -321,-242 -843,-207 -886,1128 -419,2508 403,3523 735,908 1251,2714 174,3547 274,-1089 624,-1970 -85,-3056 -706,-1080 -1109,-1072 -1196,-2516 -128,477 -558,1176 -749,1711 -234,658 -438,1253 -485,1960 -79,1195 644,2963 1966,3010 1250,44 2325,-1353 2442,-2514 212,-2110 -1202,-2882 -1473,-3461zm1769 -16456c-1439,614 -3549,231 -3945,2624 -143,861 362,1434 370,2322 249,-108 160,-184 507,-286 209,-62 537,-85 762,-114 1683,-213 2085,-957 2306,-1574l0 -2972zm0 -2157c-32,6 -66,14 -101,22 -354,501 -257,856 101,1076l0 -1098zm-24233 13184c461,-310 -41,-1799 -422,-2202 -1282,-1357 -518,-842 -387,-1780 -405,-81 -261,1 -643,180 -22,-666 558,-836 190,-1393 -523,-49 -859,76 -1301,-136 -73,-502 -80,-878 -562,-1012l0 1508c100,85 189,185 256,290 -96,-48 -180,-99 -256,-147l0 5337c654,766 1727,771 2847,1103 -69,-935 93,-879 278,-1746zm528 13819c740,37 1577,453 2506,503 1682,266 2802,-459 4025,-1422 1322,-1041 1836,-1551 3589,-1877 -771,-344 -1960,-748 -2808,-1074 -1076,-414 -2138,-670 -3293,-338 -1559,448 -2585,2095 -3272,2594 -189,137 -1074,644 -1140,722 1438,152 2749,294 4134,-191 1043,-365 2192,-1363 3172,-1424l-2862 1852c-533,308 -1224,430 -1834,505 -1927,235 -1921,-370 -2217,152zm9767 5626c1543,-2635 1281,-1273 2552,-1445 157,-638 -269,-384 -454,-911 571,-222 1015,278 1831,51 250,-397 129,-391 172,-841 -1312,-1892 1290,-1070 932,-2901 -153,-785 -514,-1436 -1378,-1557l-464 415c-719,-204 -533,-751 -1603,-762 -1006,561 -640,1469 251,1948 135,-217 184,-532 563,-526 865,13 850,985 254,1984 -2240,3758 -7490,-545 -7607,4545l4951 0zm-2036 -23866c-43,379 -279,558 -410,947 -94,279 -150,645 -217,935 -125,1716 63,2318 1338,3334 523,416 899,499 1467,781 1545,767 702,616 1289,994 859,-1358 -11,-3424 294,-5002 275,-1419 752,-2854 1619,-3967 -1015,432 -1935,422 -2999,618 -1612,296 -1707,933 -2380,1360zm4338 12728c420,579 1238,780 1963,718 717,-61 1265,-482 1808,-864 618,-436 2127,-2190 2526,-2819 -2455,222 -1341,-1135 -2676,-1741l-1079 272c-572,-378 -626,-924 -1361,-966 -709,-41 -1337,546 -2019,299 -881,-319 -303,-938 -2652,-1924 716,1530 385,851 57,2301 -139,614 108,1880 716,2170 734,351 1994,-341 2571,-119 641,248 43,1954 146,2673zm9343 -10680c-515,-723 492,-1747 420,-2709 -679,-889 -1107,-214 -1918,-431 -617,-165 -476,-1279 -547,-1803 -202,-1502 -1408,-1952 -2799,-1800 146,105 -1705,-126 -3452,3397 -1220,2460 -1104,4807 -1432,5352 257,-289 393,-811 627,-1171 3412,-5235 6869,-415 9173,-744l-73 -91z"/>
 </g>
</svg>
