<?xml version="1.0" encoding="UTF-8"?>
<!DOCTYPE svg PUBLIC "-//W3C//DTD SVG 1.1//EN" "http://www.w3.org/Graphics/SVG/1.1/DTD/svg11.dtd">
<!-- Creator: CorelDRAW X6 -->
<svg xmlns="http://www.w3.org/2000/svg" xml:space="preserve" width="273.584mm" height="437.735mm" version="1.1" style="shape-rendering:geometricPrecision; text-rendering:geometricPrecision; image-rendering:optimizeQuality; fill-rule:evenodd; clip-rule:evenodd"
viewBox="0 0 27358 43774"
 xmlns:xlink="http://www.w3.org/1999/xlink">
 <defs>
  <style type="text/css">
   <![CDATA[
    .fil8 {fill:#C0EEFC}
    .fil13 {fill:#C9E9EF}
    .fil2 {fill:#D7DADE}
    .fil14 {fill:#E5F1F5}
    .fil11 {fill:#E6EFF2}
    .fil12 {fill:#E9F1F4}
    .fil6 {fill:#EAF5F7}
    .fil10 {fill:#EFEEEE}
    .fil7 {fill:#EFF2F4}
    .fil3 {fill:#F1F6F7}
    .fil15 {fill:#F3F2F2}
    .fil1 {fill:#F7F4F2}
    .fil4 {fill:#F7F7F7}
    .fil0 {fill:#FAFAFA}
    .fil9 {fill:#FDE6CC}
    .fil5 {fill:#FDE7D2}
   ]]>
  </style>
 </defs>
 <g id="layer">
  <metadata id="CorelCorpID_0Corel-Layer"/>
  <path id="z4" class="fil0" d="M13083 4276c519,171 1152,921 1588,1353 424,420 1025,941 1523,1304l1402 1430 2088 2902c367,299 779,1141 1307,1182 -220,406 199,174 -336,306l-825 -299c-335,-194 -518,-470 -802,-719 -556,-478 -1100,-1224 -1841,-1561 -512,-233 -1855,-550 -2383,-317 244,-21 1107,518 1299,874 122,159 217,240 350,388 99,110 198,237 283,337 304,352 300,286 522,762 288,148 571,485 872,725 258,206 790,464 961,684 -1303,486 -1709,-793 -2548,-1135 -524,-673 -1100,-1456 -1731,-2096 -153,-101 -636,-625 -860,-842 -896,-874 -1774,-1756 -2738,-2256 -396,-138 -815,-225 -1207,-369 -278,-102 -840,-388 -1020,-425 112,78 364,399 543,554 191,166 444,312 599,454 469,218 988,463 1431,752 210,137 1010,826 1214,1193 -1100,-380 -2136,-1174 -3148,-1790 -1162,-723 -2722,-1531 -3960,-1808 -828,-185 -3985,-842 -4579,-155 1048,113 1790,122 2815,645 613,313 1982,1385 2380,1458l987 982c238,237 331,250 541,472 586,621 802,765 1431,1550 1552,1939 3575,3170 5358,4105 -987,105 -4435,-2074 -5572,-2771 -1762,-1081 -3704,-3062 -5335,-3234 136,240 -76,-12 191,246 36,34 150,108 200,140 1477,934 2600,2268 3779,3119 242,174 505,357 719,527 254,202 454,283 653,632 -1441,-204 -3129,-1548 -4279,-2492 -1250,-1026 -2426,-2532 -3801,-3193l-1157 -428 0 2443c303,153 2200,2484 2732,2978 606,562 1283,948 1782,1337 -611,198 -1990,-663 -2478,-1077 -667,-566 -1365,-1396 -2035,-1840l0 1322 1586 1449c2441,2006 2933,2418 5750,3032 323,128 3288,-172 3735,-315 -1062,45 -2031,-255 -3059,-783 -424,-217 -979,-574 -1331,-882l-1120 -1211c-10,-18 -28,-51 -42,-77 1721,1092 3120,1952 5091,2026 1745,66 4166,159 5839,-428 -192,-199 -500,-307 -739,-474 -279,-195 -489,-407 -664,-799 1817,717 2136,825 4161,-103 1135,-520 1766,-1010 2718,-1533 300,-165 764,-241 963,-440 -625,-352 -1121,-692 -1841,-857 -728,-123 -3099,-2949 -3749,-4051 -11,-18 -35,-29 -43,-79 -8,-52 -30,-53 -44,-82l2 -121c-217,-90 -890,-1009 -1148,-1329 -188,-233 -342,-444 -564,-682 -165,-176 -447,-448 -607,-646 -112,-146 -363,-328 -567,-515 -176,-162 -362,-344 -564,-561 -1065,-1142 -2494,-1979 -3670,-2505 -628,-281 -1208,-494 -1828,-656l-4237 0c-24,23 -39,44 -64,75 1643,-36 3806,63 5136,1145 643,523 1446,986 2103,1425 1124,752 993,497 1877,1631z"/>
  <path id="z3" class="fil1" d="M0 0l0 2266c2112,-157 4543,366 6582,903 1067,280 2110,508 3178,733 783,164 2547,503 3322,374 -884,-1134 -753,-879 -1877,-1631 -656,-439 -1459,-902 -2103,-1425 -1330,-1082 -3493,-1181 -5136,-1145 25,-31 40,-52 64,-75l-4030 0zm8267 0c620,163 1200,376 1828,656 1176,526 2605,1362 3670,2505 202,217 388,399 564,561 204,188 455,370 567,515 220,-248 738,-196 1045,-265 385,-86 744,-202 1117,-323 709,-231 1481,-538 2175,-713 -154,-484 -801,-1367 -1123,-1734 -412,-471 -794,-867 -1148,-1203l-8694 0z"/>
  <path id="z2" class="fil2" d="M21048 11228c720,164 1216,505 1841,857 -199,199 -663,275 -963,440 -952,523 -1583,1014 -2718,1533 -2025,928 -2344,820 -4161,103 175,392 385,604 664,799 239,168 547,275 739,474 -1673,586 -4094,494 -5839,428 -1971,-74 -3370,-934 -5091,-2026 14,26 31,59 42,77l1120 1211c352,308 907,664 1331,882 1028,528 1997,829 3059,783 -447,143 -3412,443 -3735,315l-382 128c-888,-3 -2070,350 -2963,479 -877,126 -2005,578 -2825,625l-847 343c82,119 -8,36 147,144 434,303 1098,372 1489,491 1569,239 3236,258 4749,-92 716,-166 1397,-214 2076,-436 477,-156 1684,-481 1987,-714l889 -323c-727,1312 -692,1398 -2192,1872 581,580 2333,-85 2680,-60 311,-401 2175,-1240 2483,-1742 479,-177 1304,-599 1685,-97 -296,895 -994,759 -1493,1344 754,-8 1225,-243 1921,-663 482,-376 995,-972 1421,-439 348,127 832,584 1223,818 427,256 863,580 1277,859 781,526 1770,1213 2603,1513 757,250 1277,545 2064,470 343,-33 627,-131 956,-293 467,-230 609,-131 1075,-140l0 -2651c-1045,-126 -2387,-796 -3399,-1160 -1071,-386 -2067,-1071 -3139,-1540 -254,-315 -377,-49 -597,-456 171,5 1397,-1044 1696,-1360l62 -73 471 -256c270,-674 1791,-1026 2295,-1111 466,-78 846,-96 1322,-201 401,-89 841,-196 1289,-294l0 7 -3871 178c305,-212 1557,-348 1979,-410 623,-92 1272,-337 1892,-521l0 -152c-737,164 -1407,437 -2164,472 -1384,65 -1349,-463 -2021,-730 90,321 104,281 184,643 -469,-427 -514,-441 -1076,-440l-1233 94z"/>
  <path id="z1" class="fil2" d="M0 7459l1157 428c814,-117 3524,-106 4502,28 423,58 245,118 435,43 231,-91 13,151 190,-152 -397,-74 -1767,-1145 -2380,-1458 -1025,-523 -1766,-532 -2815,-645 595,-687 3751,-30 4579,155 1238,277 2799,1085 3960,1808l503 -154c-155,-142 -408,-288 -599,-454 -179,-155 -431,-476 -543,-554 180,37 742,323 1020,425 392,144 811,231 1207,369 837,-146 1592,-377 2463,-326l2515 -39c-499,-362 -1099,-883 -1523,-1304 -436,-432 -1069,-1182 -1588,-1353 -775,129 -2539,-210 -3322,-374 -1068,-224 -2111,-452 -3178,-733 -2040,-536 -4470,-1059 -6582,-903l0 5193z"/>
  <path id="d6" class="fil3" d="M14628 17818c172,294 -118,211 305,174l734 -219c-537,296 -183,-29 -760,545l-1642 1681c-731,491 -2251,1376 -2928,527 504,-273 345,159 1976,-887 -139,-134 175,-266 -169,-79 -347,-24 -2099,640 -2680,60 1500,-474 1465,-560 2192,-1872l-889 323c175,256 261,247 343,306 -265,18 -970,450 -1270,576 -253,106 -386,129 -643,274l-1991 818c-499,176 -829,336 -1343,518 -1243,438 -4533,1031 -5863,1192l0 2050c1406,-45 2963,-118 4332,-245 1447,-135 2915,-363 4357,-409 673,-22 1491,-114 2085,-238 2317,-484 3684,-472 5197,-2111l244 -223c106,-377 225,-624 333,-1021 109,-403 128,-729 193,-1155 -696,420 -1167,655 -1921,663 499,-585 1197,-449 1493,-1344 -381,-502 -1206,-80 -1685,97z"/>
  <path id="d5" class="fil4" d="M0 23804l0 41 27358 0 0 -2655c-467,9 -608,-90 -1075,140 -329,162 -613,260 -956,293 -787,75 -1307,-219 -2064,-470 -1097,-81 -2253,-74 -3355,-87 -880,-11 -2413,-75 -3233,-366l-461 -123 -244 223c-1512,1640 -2880,1627 -5197,2111 -593,124 -1411,216 -2085,238 -1442,46 -2910,274 -4357,409 -1369,128 -2926,200 -4332,245z"/>
  <path id="d4" class="fil2" d="M19232 2937c-694,175 -1466,482 -2175,713 -372,121 -731,237 -1117,323 -308,68 -825,17 -1045,265 160,198 442,470 607,646 222,237 376,449 564,682 258,320 931,1239 1148,1329 971,-259 1991,-479 2897,-956 413,-59 1204,-483 1667,-648 552,-196 1172,-389 1749,-512 1324,-283 2440,-400 3831,-400l0 -4027 -8127 2586z"/>
  <path id="d3" class="fil5" d="M16961 0c354,336 736,732 1148,1203 321,368 968,1250 1123,1734l8127 -2586 0 -352 -10397 0z"/>
  <path id="d2" class="fil6" d="M21048 11228l1233 -94c561,-1 607,13 1076,440 -80,-361 -93,-321 -184,-643 672,267 637,796 2021,730 757,-36 1427,-308 2164,-472l0 -3157c-1113,-111 -2282,-444 -3415,-558 -1191,-120 -2369,-262 -3560,-336l-83 47c-421,-159 -2616,-242 -3088,-171 13,30 35,31 44,82 8,50 32,61 43,79 650,1102 3021,3929 3749,4051z"/>
  <path id="d1" class="fil7" d="M1157 7887c1375,661 2551,2167 3801,3193 1151,945 2838,2288 4279,2492 -199,-349 -399,-429 -653,-632 -214,-170 -477,-352 -719,-527 -1179,-850 -2303,-2185 -3779,-3119 -51,-32 -164,-105 -200,-140 -268,-257 -55,-6 -191,-246 1632,172 3573,2153 5335,3234 1137,697 4584,2877 5572,2771 -1784,-936 -3806,-2166 -5358,-4105 -629,-785 -845,-929 -1431,-1550 -210,-223 -304,-235 -541,-472l-987 -982c-177,303 41,61 -190,152 -190,75 -12,15 -435,-43 -977,-134 -3688,-145 -4502,-28z"/>
  <path id="s5" class="fil8" d="M20821 15839c1072,469 2067,1155 3139,1540 1012,364 2354,1035 3399,1160l0 -2806c-1035,-187 -4250,-1031 -5093,-1645l-1445 1750z"/>
  <path id="s4" class="fil6" d="M11217 7298c965,499 1842,1382 2738,2256 223,217 707,741 860,842 189,-258 397,-88 693,96 179,111 435,314 597,239 -193,-356 -1056,-895 -1299,-874 528,-233 1870,84 2383,317 741,337 1285,1083 1841,1561l-138 -472c-87,-106 -222,-251 -295,-336 -217,-253 -391,-449 -583,-648 -2219,-2301 -1798,-1569 -3958,-3081 592,19 1405,-107 1931,176 723,390 1992,2036 2531,2741l779 905c320,366 207,403 390,243l-2088 -2902 -1402 -1430 -2515 39c-871,-51 -1625,180 -2463,326z"/>
  <path id="s3" class="fil9" d="M20111 5938c47,421 109,959 189,1248l83 -47c293,-168 1227,-336 1645,-446 1959,-516 3364,-647 5331,-745l0 -1569c-1392,0 -2508,116 -3831,400 -577,123 -1197,316 -1749,512 -463,165 -1254,589 -1667,648z"/>
  <path id="s2" class="fil7" d="M1955 19313c129,397 -482,220 684,305 1104,80 985,137 2256,47 -539,369 -4110,1014 -4896,999l0 1091c1330,-161 4621,-754 5863,-1192 514,-181 844,-342 1343,-518l1991 -818c257,-145 390,-168 643,-274 301,-126 1006,-558 1270,-576 -82,-59 -168,-50 -343,-306 -303,233 -1510,558 -1987,714 -679,222 -1361,270 -2076,436 -1513,350 -3180,331 -4749,92z"/>
  <path id="s1" class="fil10" d="M0 15596c1163,590 2050,1078 3254,1419 514,146 1285,279 1825,295 410,12 1660,-223 1875,-77l382 -128c-2818,-614 -3309,-1026 -5750,-3032l-1586 -1449 0 2974z"/>
  <path id="a5" class="fil5" d="M16676 20700c820,291 2353,356 3233,366 1102,13 2258,6 3355,87 -832,-300 -1821,-987 -2603,-1513 -414,-279 -850,-602 -1277,-859 -391,-235 -875,-692 -1223,-818 -132,438 116,-162 160,478 -224,300 -776,551 -1022,773 -330,298 -404,992 -624,1485z"/>
  <path id="a4" class="fil5" d="M20383 7139c1192,74 2369,216 3560,336 1133,114 2302,447 3415,558l0 -2085c-1966,99 -3371,229 -5331,745 -417,110 -1351,278 -1645,446z"/>
  <path id="a3" class="fil6" d="M22452 13694l-471 256 285 139c843,614 4057,1458 5093,1645l0 -2452c-472,11 -941,163 -1397,131 -436,-31 -876,-3 -1312,17 -1410,66 -1226,322 -1807,520 -195,67 -218,-72 -503,-72 39,51 -67,282 98,-10 174,-306 86,207 14,-174z"/>
  <path id="a2" class="fil0" d="M0 17006c232,185 378,386 591,631 163,187 153,157 300,308 183,188 174,185 275,391 821,-47 1949,-498 2825,-625 893,-129 2075,-482 2963,-479 -215,-146 -1465,89 -1875,77 -540,-15 -1311,-149 -1825,-295 -1204,-341 -2091,-829 -3254,-1419l0 1410z"/>
  <path id="a1" class="fil10" d="M0 20664c785,14 4357,-630 4896,-999 -1271,90 -1152,33 -2256,-47 -1167,-85 -556,92 -684,-305 -391,-118 -1056,-188 -1489,-491 -155,-108 -65,-25 -147,-144l847 -343c-101,-207 -92,-204 -275,-391 -147,-151 -137,-121 -300,-308 -213,-245 -358,-446 -591,-631l0 3659z"/>
  <path id="e5" class="fil11" d="M19029 11734c283,249 467,525 802,719l825 299c535,-132 116,100 336,-306 -528,-42 -940,-883 -1307,-1182 -182,161 -70,123 -390,-243l-779 -905c-539,-706 -1808,-2351 -2531,-2741 -526,-284 -1339,-157 -1931,-176 2160,1511 1739,780 3958,3081 192,199 366,395 583,648 73,85 209,230 295,336l138 472z"/>
  <path id="e4" class="fil12" d="M22452 13694c73,381 160,-132 -14,174 -165,292 -60,61 -98,10 285,1 308,139 503,72 580,-198 396,-454 1807,-520 436,-20 876,-48 1312,-17 456,32 925,-121 1397,-131l0 -1194c-448,98 -889,205 -1289,294 -476,105 -856,123 -1322,201 -504,84 -2025,437 -2295,1111z"/>
  <path id="e3" class="fil7" d="M0 11300c670,444 1369,1274 2035,1840 487,414 1867,1275 2478,1077 -499,-390 -1176,-775 -1782,-1337 -532,-493 -2428,-2825 -2732,-2978l0 1398z"/>
  <path id="e2" class="fil7" d="M14628 17818c-309,502 -2172,1341 -2483,1742 344,-187 31,-55 169,79 -1632,1045 -1472,613 -1976,887 677,849 2197,-36 2928,-527l1642 -1681c577,-574 223,-249 760,-545l-734 219c-424,37 -133,120 -305,-174z"/>
  <path id="e1" class="fil9" d="M16740 18402c-65,425 -84,752 -193,1155 -108,397 -226,643 -333,1021l461 123c219,-493 293,-1187 624,-1485 246,-222 798,-473 1022,-773 -44,-640 -292,-40 -160,-478 -426,-533 -939,63 -1421,439z"/>
  <path id="w5" class="fil11" d="M16545 12492c62,-63 48,-75 185,-141 40,-20 153,-54 197,-65 224,-55 93,42 333,-69 -222,-476 -219,-410 -522,-762 -86,-99 -184,-227 -283,-337 -133,-148 -228,-229 -350,-388 -162,75 -418,-128 -597,-239 -295,-183 -504,-354 -693,-96 631,640 1207,1424 1731,2096z"/>
  <path id="w4" class="fil10" d="M17214 6894l-2 121c472,-71 2667,12 3088,171 -80,-289 -142,-827 -189,-1248 -906,477 -1926,698 -2897,956z"/>
  <path id="w3" class="fil13" d="M16545 12492c839,342 1245,1621 2548,1135 -171,-220 -703,-478 -961,-684 -302,-240 -584,-577 -872,-725 -239,111 -109,14 -333,69 -45,11 -157,45 -197,65 -136,66 -122,77 -185,141z"/>
  <path id="w2" class="fil14" d="M9628 7666c1012,616 2049,1410 3148,1790 -204,-367 -1004,-1056 -1214,-1193 -443,-289 -962,-533 -1431,-752l-503 154z"/>
  <path id="w1" class="fil15" d="M27358 12094l0 -753c-621,184 -1269,429 -1892,521 -422,62 -1674,198 -1979,410l3871 -178z"/>
  <path id="q5" class="fil13" d="M20821 15839l1445 -1750 -285 -139 -62 73c-299,317 -1525,1365 -1696,1360 221,407 343,140 597,456z"/>
  <path id="q4" class="fil0" d="M13083 24203c519,171 1152,921 1588,1353 424,420 1025,941 1523,1304l1402 1430 2088 2902c367,299 779,1141 1307,1182 -220,406 199,174 -336,306l-825 -299c-335,-194 -518,-470 -802,-719 -556,-478 -1100,-1224 -1841,-1561 -512,-233 -1855,-550 -2383,-317 244,-21 1107,518 1299,874 122,159 217,240 350,388 99,110 198,237 283,337 304,352 300,286 522,762 288,148 571,485 872,725 258,206 790,464 961,684 -1303,486 -1709,-793 -2548,-1135 -524,-673 -1100,-1456 -1731,-2096 -153,-101 -636,-625 -860,-842 -896,-874 -1774,-1756 -2738,-2256 -396,-138 -815,-225 -1207,-369 -278,-102 -840,-388 -1020,-425 112,78 364,399 543,554 191,166 444,312 599,454 469,218 988,463 1431,752 210,137 1010,826 1214,1193 -1100,-380 -2136,-1174 -3148,-1790 -1162,-723 -2722,-1531 -3960,-1808 -828,-185 -3985,-842 -4579,-155 1048,113 1790,122 2815,645 613,313 1982,1385 2380,1458l987 982c238,237 331,250 541,472 586,621 802,765 1431,1550 1552,1939 3575,3170 5358,4105 -987,105 -4435,-2074 -5572,-2771 -1762,-1081 -3704,-3062 -5335,-3234 136,240 -76,-12 191,246 36,34 150,108 200,140 1477,934 2600,2268 3779,3119 242,174 505,357 719,527 254,202 454,283 653,632 -1441,-204 -3129,-1548 -4279,-2492 -1250,-1026 -2426,-2532 -3801,-3193l-1157 -428 0 2443c303,153 2200,2484 2732,2977 606,562 1283,948 1782,1337 -611,198 -1990,-663 -2478,-1077 -667,-566 -1365,-1396 -2035,-1840l0 1322 1586 1449c2441,2006 2933,2418 5750,3032 323,128 3288,-172 3735,-315 -1062,45 -2031,-255 -3059,-783 -424,-217 -979,-574 -1331,-882l-1120 -1211c-10,-18 -28,-51 -42,-77 1721,1092 3120,1952 5091,2026 1745,66 4166,159 5839,-428 -192,-199 -500,-307 -739,-474 -279,-195 -489,-407 -664,-799 1817,717 2136,825 4161,-103 1135,-520 1766,-1010 2718,-1533 300,-165 764,-241 963,-440 -625,-352 -1121,-692 -1841,-857 -728,-123 -3099,-2949 -3749,-4051 -11,-18 -35,-29 -43,-79 -8,-52 -30,-53 -44,-82l2 -121c-217,-90 -890,-1009 -1148,-1329 -188,-233 -342,-444 -564,-682 -165,-176 -447,-448 -607,-646 -112,-146 -363,-328 -567,-515 -176,-162 -362,-344 -564,-561 -1065,-1143 -2494,-1979 -3670,-2505 -628,-281 -1208,-494 -1828,-656l-4237 0c-24,23 -39,44 -64,75 1643,-36 3806,63 5136,1145 643,523 1446,986 2103,1425 1124,752 993,497 1877,1631z"/>
  <path id="q3" class="fil1" d="M0 19928l0 2266c2112,-157 4543,366 6582,903 1067,280 2110,508 3178,733 783,164 2547,503 3322,374 -884,-1134 -753,-879 -1877,-1631 -656,-439 -1459,-902 -2103,-1425 -1330,-1082 -3493,-1181 -5136,-1145 25,-31 40,-52 64,-75l-4030 0zm8267 0c620,163 1200,376 1828,656 1176,526 2605,1362 3670,2505 202,217 388,399 564,561 204,188 455,370 567,515 220,-248 738,-196 1045,-265 385,-86 744,-202 1117,-323 709,-231 1481,-538 2175,-713 -154,-484 -801,-1367 -1123,-1734 -412,-471 -794,-867 -1148,-1203l-8694 0z"/>
  <path id="q2" class="fil2" d="M21048 31156c720,164 1216,505 1841,857 -199,199 -663,275 -963,440 -952,523 -1583,1014 -2718,1533 -2025,928 -2344,820 -4161,103 175,392 385,604 664,799 239,168 547,275 739,474 -1673,586 -4094,494 -5839,428 -1971,-74 -3370,-934 -5091,-2026 14,26 31,59 42,77l1120 1211c352,308 907,664 1331,882 1028,528 1997,829 3059,783 -447,143 -3412,443 -3735,315l-382 128c-888,-3 -2070,350 -2963,479 -877,126 -2005,578 -2825,625l-847 343c82,119 -8,36 147,144 434,303 1098,372 1489,491 1569,239 3236,258 4749,-92 716,-166 1397,-214 2076,-436 477,-156 1684,-481 1987,-714l889 -323c-727,1312 -692,1398 -2192,1872 581,580 2333,-85 2680,-60 311,-401 2175,-1240 2483,-1742 479,-177 1304,-599 1685,-97 -296,895 -994,759 -1493,1344 754,-8 1225,-243 1921,-663 482,-376 995,-972 1421,-439 348,127 832,584 1223,818 427,256 863,580 1277,859 781,526 1770,1213 2603,1513 757,250 1277,545 2064,470 343,-33 627,-131 956,-293 467,-230 609,-131 1075,-140l0 -2651c-1045,-126 -2387,-796 -3399,-1160 -1071,-386 -2067,-1071 -3139,-1540 -254,-315 -377,-49 -597,-456 171,5 1397,-1044 1696,-1360l62 -73 471 -256c270,-674 1791,-1026 2295,-1111 466,-78 846,-96 1322,-201 401,-89 841,-196 1289,-294l0 7 -3871 178c305,-212 1557,-348 1979,-410 623,-92 1272,-337 1892,-521l0 -152c-737,164 -1407,436 -2164,472 -1384,65 -1349,-463 -2021,-730 90,321 104,281 184,643 -469,-427 -514,-441 -1076,-440l-1233 94z"/>
  <path id="q1" class="fil2" d="M0 27387l1157 428c814,-117 3524,-106 4502,28 423,58 245,118 435,43 231,-91 13,151 190,-152 -397,-74 -1767,-1145 -2380,-1458 -1025,-523 -1766,-532 -2815,-645 595,-687 3751,-30 4579,155 1238,277 2799,1085 3960,1808l503 -154c-155,-142 -408,-288 -599,-454 -179,-155 -431,-476 -543,-554 180,37 742,323 1020,425 392,144 811,231 1207,369 837,-146 1592,-377 2463,-326l2515 -39c-499,-362 -1099,-883 -1523,-1304 -436,-432 -1069,-1182 -1588,-1353 -775,129 -2539,-210 -3322,-374 -1068,-224 -2111,-452 -3178,-733 -2040,-536 -4470,-1059 -6582,-903l0 5193z"/>
  <path id="m" class="fil3" d="M14628 37745c172,294 -118,211 305,174l734 -219c-537,296 -183,-29 -760,545l-1642 1681c-731,491 -2251,1376 -2928,527 504,-273 345,159 1976,-887 -139,-134 175,-266 -169,-79 -347,-24 -2099,640 -2680,60 1500,-474 1465,-560 2192,-1872l-889 323c175,256 261,247 343,306 -265,18 -970,450 -1270,576 -253,106 -386,129 -643,274l-1991 818c-499,176 -829,336 -1343,518 -1243,438 -4533,1031 -5863,1192l0 2050c1406,-45 2963,-118 4332,-245 1447,-135 2915,-363 4357,-409 673,-22 1491,-114 2085,-238 2317,-484 3684,-472 5197,-2111l244 -223c106,-377 225,-624 333,-1021 109,-403 128,-729 193,-1155 -696,420 -1167,655 -1921,663 499,-585 1197,-449 1493,-1344 -381,-502 -1206,-80 -1685,97z"/>
  <path id="n" class="fil4" d="M0 43732l0 41 27358 0 0 -2655c-467,9 -608,-90 -1075,140 -329,162 -613,260 -956,293 -787,75 -1307,-219 -2064,-470 -1097,-81 -2253,-74 -3355,-87 -880,-11 -2413,-75 -3233,-366l-461 -123 -244 223c-1512,1640 -2880,1627 -5197,2111 -593,124 -1411,216 -2085,238 -1442,46 -2910,274 -4357,409 -1369,128 -2926,200 -4332,245z"/>
  <path id="b" class="fil2" d="M19232 22865c-694,175 -1466,482 -2175,713 -372,121 -731,237 -1117,323 -308,68 -825,17 -1045,265 160,198 442,470 607,646 222,237 376,449 564,682 258,320 931,1239 1148,1329 971,-259 1991,-479 2897,-956 413,-59 1204,-483 1667,-648 552,-196 1172,-389 1749,-512 1324,-283 2440,-400 3831,-400l0 -4027 -8127 2586z"/>
  <path id="v" class="fil6" d="M21048 31156l1233 -94c561,-1 607,13 1076,440 -80,-361 -93,-321 -184,-643 672,267 637,796 2021,730 757,-36 1427,-308 2164,-472l0 -3157c-1113,-111 -2282,-444 -3415,-558 -1191,-120 -2369,-262 -3560,-336l-83 47c-421,-159 -2616,-242 -3088,-171 13,30 35,31 44,82 8,50 32,61 43,79 650,1102 3021,3929 3749,4051z"/>
  <path id="c" class="fil7" d="M1157 27815c1375,661 2551,2167 3801,3193 1151,945 2838,2288 4279,2492 -199,-349 -399,-429 -653,-632 -214,-170 -477,-352 -719,-527 -1179,-850 -2303,-2185 -3779,-3119 -51,-32 -164,-105 -200,-140 -268,-257 -55,-6 -191,-246 1632,172 3573,2153 5335,3234 1137,697 4584,2877 5572,2771 -1784,-936 -3806,-2166 -5358,-4105 -629,-785 -845,-929 -1431,-1550 -210,-223 -304,-235 -541,-472l-987 -982c-177,303 41,61 -190,152 -190,75 -12,15 -435,-43 -977,-134 -3688,-145 -4502,-28z"/>
  <path id="x" class="fil8" d="M20821 35767c1072,469 2067,1155 3139,1540 1012,364 2354,1035 3399,1160l0 -2806c-1035,-187 -4250,-1031 -5093,-1645l-1445 1750z"/>
  <path id="z" class="fil6" d="M11217 27226c965,499 1842,1382 2738,2256 223,217 707,741 860,842 189,-258 397,-88 693,96 179,111 435,314 597,239 -193,-356 -1056,-895 -1299,-874 528,-233 1870,84 2383,317 741,337 1285,1083 1841,1561l-138 -472c-87,-106 -222,-251 -295,-336 -217,-253 -391,-449 -583,-648 -2219,-2301 -1798,-1569 -3958,-3081 592,19 1405,-107 1931,176 723,390 1992,2036 2531,2741l779 905c320,366 207,403 390,243l-2088 -2902 -1402 -1430 -2515 39c-871,-51 -1625,180 -2463,326z"/>
  <path id="l" class="fil9" d="M20111 25866c47,421 109,959 189,1248l83 -47c293,-168 1227,-336 1645,-446 1959,-516 3364,-647 5331,-745l0 -1569c-1392,0 -2508,116 -3831,400 -577,123 -1197,316 -1749,512 -463,165 -1254,589 -1667,648z"/>
  <path id="k" class="fil7" d="M1955 39241c129,397 -482,220 684,305 1104,80 985,137 2256,47 -539,369 -4110,1014 -4896,999l0 1091c1330,-161 4621,-754 5863,-1192 514,-181 844,-342 1343,-518l1991 -818c257,-145 390,-168 643,-274 301,-126 1006,-558 1270,-576 -82,-59 -168,-50 -343,-306 -303,233 -1510,558 -1987,714 -679,222 -1361,270 -2076,436 -1513,350 -3180,331 -4749,92z"/>
  <path id="j" class="fil10" d="M0 35523c1163,590 2050,1078 3254,1419 514,146 1285,279 1825,295 410,12 1660,-223 1875,-77l382 -128c-2818,-614 -3309,-1026 -5750,-3032l-1586 -1449 0 2974z"/>
  <path id="h" class="fil5" d="M16676 40628c820,291 2353,356 3233,366 1102,13 2258,6 3355,87 -832,-300 -1821,-987 -2603,-1513 -414,-279 -850,-602 -1277,-859 -391,-235 -875,-692 -1223,-818 -132,438 116,-162 160,478 -224,300 -776,551 -1022,773 -330,298 -404,992 -624,1485z"/>
  <path id="g" class="fil5" d="M20383 27066c1192,74 2369,216 3560,336 1133,114 2302,447 3415,558l0 -2085c-1966,99 -3371,229 -5331,745 -417,110 -1351,278 -1645,446z"/>
  <path id="f" class="fil6" d="M22452 33621l-471 256 285 139c843,614 4057,1458 5093,1645l0 -2452c-472,11 -941,163 -1397,131 -436,-31 -876,-3 -1312,17 -1410,66 -1226,322 -1807,520 -195,67 -218,-72 -503,-72 39,51 -67,282 98,-10 174,-306 86,207 14,-174z"/>
  <path id="d" class="fil0" d="M0 36933c232,185 378,386 591,631 163,187 153,157 300,308 183,188 174,185 275,391 821,-47 1949,-498 2825,-625 893,-129 2075,-482 2963,-479 -215,-146 -1465,89 -1875,77 -540,-15 -1311,-149 -1825,-295 -1204,-341 -2091,-829 -3254,-1419l0 1410z"/>
  <path id="s" class="fil10" d="M0 40592c785,14 4357,-630 4896,-999 -1271,90 -1152,33 -2256,-47 -1167,-85 -556,92 -684,-305 -391,-118 -1056,-188 -1489,-491 -155,-108 -65,-25 -147,-144l847 -343c-101,-207 -92,-204 -275,-391 -147,-151 -137,-121 -300,-308 -213,-245 -358,-446 -591,-631l0 3659z"/>
  <path id="a" class="fil11" d="M19029 31662c283,249 467,525 802,719l825 299c535,-132 116,100 336,-306 -528,-42 -940,-883 -1307,-1182 -182,161 -70,123 -390,-243l-779 -905c-539,-706 -1808,-2351 -2531,-2741 -526,-284 -1339,-157 -1931,-176 2160,1511 1739,780 3958,3081 192,199 366,395 583,648 73,85 209,230 295,336l138 472z"/>
  <path id="p" class="fil12" d="M22452 33621c73,381 160,-132 -14,174 -165,292 -60,61 -98,10 285,1 308,139 503,72 580,-198 396,-454 1807,-520 436,-20 876,-48 1312,-17 456,32 925,-121 1397,-131l0 -1194c-448,98 -889,205 -1289,294 -476,105 -856,123 -1322,201 -504,84 -2025,437 -2295,1111z"/>
  <path id="o" class="fil7" d="M0 31227c670,444 1369,1274 2035,1840 487,414 1867,1275 2478,1077 -499,-390 -1176,-775 -1782,-1337 -532,-493 -2428,-2825 -2732,-2977l0 1398z"/>
  <path id="i" class="fil7" d="M14628 37745c-309,502 -2172,1341 -2483,1742 344,-187 31,-55 169,79 -1632,1045 -1472,613 -1976,887 677,849 2197,-36 2928,-527l1642 -1681c577,-574 223,-249 760,-545l-734 219c-424,37 -133,120 -305,-174z"/>
  <path id="u" class="fil9" d="M16740 38330c-65,425 -84,752 -193,1155 -108,397 -226,643 -333,1021l461 123c219,-493 293,-1187 624,-1485 246,-222 798,-473 1022,-773 -44,-640 -292,-40 -160,-478 -426,-533 -939,63 -1421,439z"/>
  <path id="y" class="fil11" d="M16545 32420c62,-63 48,-75 185,-141 40,-20 153,-54 197,-65 224,-55 93,42 333,-69 -222,-476 -219,-410 -522,-762 -86,-99 -184,-227 -283,-337 -133,-148 -228,-229 -350,-388 -162,75 -418,-128 -597,-239 -295,-183 -504,-354 -693,-96 631,640 1207,1424 1731,2096z"/>
  <path id="t" class="fil10" d="M17214 26822l-2 121c472,-71 2667,12 3088,171 -80,-289 -142,-827 -189,-1248 -906,477 -1926,698 -2897,956z"/>
  <path id="r" class="fil13" d="M16545 32420c839,342 1245,1621 2548,1135 -171,-220 -703,-478 -961,-684 -302,-240 -584,-577 -872,-725 -239,111 -109,14 -333,69 -45,11 -157,45 -197,65 -136,66 -122,77 -185,141z"/>
  <path id="e" class="fil14" d="M9628 27594c1012,616 2049,1410 3148,1790 -204,-367 -1004,-1056 -1214,-1193 -443,-289 -962,-533 -1431,-752l-503 154z"/>
  <path id="w" class="fil15" d="M27358 32022l0 -753c-621,184 -1269,429 -1892,521 -422,62 -1674,198 -1979,410l3871 -178z"/>
  <path id="q" class="fil13" d="M20821 35767l1445 -1750 -285 -139 -62 73c-299,317 -1525,1365 -1696,1360 221,407 343,140 597,456z"/>
 </g>
</svg>
