<?xml version="1.0" encoding="UTF-8"?>
<!DOCTYPE svg PUBLIC "-//W3C//DTD SVG 1.1//EN" "http://www.w3.org/Graphics/SVG/1.1/DTD/svg11.dtd">
<!-- Creator: CorelDRAW X6 -->
<svg xmlns="http://www.w3.org/2000/svg" xml:space="preserve" width="273.483mm" height="437.435mm" version="1.1" style="shape-rendering:geometricPrecision; text-rendering:geometricPrecision; image-rendering:optimizeQuality; fill-rule:evenodd; clip-rule:evenodd"
viewBox="0 0 27348 43744"
 xmlns:xlink="http://www.w3.org/1999/xlink">
 <defs>
  <style type="text/css">
   <![CDATA[
    .fil0 {fill:#1B262E}
    .fil1 {fill:#1B2C33}
   ]]>
  </style>
 </defs>
 <g id="l">
  <metadata id="CorelCorpID_0Corel-Layer"/>
  <polygon id="b" class="fil0" points="-5,-15 27353,-15 27353,43759 -5,43759 "/>
  <path id="a" class="fil1" d="M-5 -15l1336 0c13,72 21,147 21,223 0,669 -543,1212 -1212,1212 -49,0 -98,-3 -145,-9l0 -1426 0 0zm6497 0l2387 0c13,72 21,147 21,223 0,669 -543,1212 -1212,1212l-2 0 -2 0c-669,0 -1212,-543 -1212,-1212 0,-76 7,-151 21,-223l-1 0zm7548 0l2382 0c13,72 21,147 21,223 0,669 -543,1212 -1212,1212 -669,0 -1212,-543 -1212,-1212 0,-76 7,-151 21,-223l0 0zm7542 0l2388 0c13,72 21,147 21,223 0,669 -543,1212 -1212,1212l-3 0 -3 0c-669,0 -1212,-543 -1212,-1212 0,-76 7,-151 21,-223l0 0zm5771 3082l0 1820c-214,191 -496,307 -806,307 -669,0 -1212,-543 -1212,-1212l0 -5 0 -5c0,-669 543,-1212 1212,-1212 309,0 592,116 806,307zm0 7548l0 1811c-214,191 -497,307 -806,307 -659,0 -1195,-526 -1211,-1181 0,-10 0,-20 0,-30l0 -1c0,-10 0,-20 0,-30 16,-655 552,-1181 1211,-1181 309,0 592,116 806,307l0 -2zm0 7538l0 1820c-214,191 -496,307 -806,307 -669,0 -1212,-543 -1212,-1212l0 -5 0 -5c0,-669 543,-1212 1212,-1212 309,0 592,116 806,307zm0 7548l0 1826c-214,191 -496,307 -806,307 -669,0 -1212,-543 -1212,-1212l0 -8 0 -8c0,-669 543,-1212 1212,-1212 309,0 592,116 806,307zm0 7554l0 1820c-214,191 -496,307 -806,307 -669,0 -1212,-543 -1212,-1212l0 -5 0 -5c0,-669 543,-1212 1212,-1212 309,0 592,116 806,307zm0 7548l0 1811c-214,191 -497,307 -806,307 -659,0 -1195,-526 -1211,-1181 0,-10 0,-20 0,-30l0 -1c0,-10 0,-20 0,-30 16,-655 552,-1181 1211,-1181 309,0 592,116 806,307l0 -2zm-27358 -1666l0 -2406c48,-6 96,-9 145,-9 669,0 1212,543 1212,1212 0,669 -543,1212 -1212,1212 -49,0 -98,-3 -145,-9l0 0zm0 -7537l0 -2406c48,-6 96,-9 145,-9 669,0 1212,543 1212,1212 0,669 -543,1212 -1212,1212 -49,0 -98,-3 -145,-9l0 0zm0 -7564l0 -2406c48,-6 96,-9 145,-9 669,0 1212,543 1212,1212 0,669 -543,1212 -1212,1212 -49,0 -98,-3 -145,-9l0 0zm0 -7537l0 -2406c48,-6 96,-9 145,-9 669,0 1212,543 1212,1212 0,669 -543,1212 -1212,1212 -49,0 -98,-3 -145,-9l0 0zm0 -7549l0 -2406c48,-6 96,-9 145,-9 669,0 1212,543 1212,1212 0,669 -543,1212 -1212,1212 -49,0 -98,-3 -145,-9l0 0zm22779 5134l3 0 3 0c669,0 1212,543 1212,1212 0,669 -543,1212 -1212,1212l-3 0 -3 0c-669,0 -1212,-543 -1212,-1212 0,-669 543,-1212 1212,-1212zm-2557 -2532c-16,655 -552,1181 -1211,1181 -659,0 -1195,-526 -1211,-1181 0,-10 0,-20 0,-30l0 -1c0,-10 0,-20 0,-30 16,-655 552,-1181 1211,-1181 659,0 1195,526 1211,1181 0,10 0,20 0,30l0 1c0,10 0,20 0,30zm-2423 7517l0 -5 0 -5c0,-669 543,-1212 1212,-1212 669,0 1212,543 1212,1212l0 5 0 5c0,669 -543,1212 -1212,1212 -669,0 -1212,-543 -1212,-1212zm-5124 -7517c-16,655 -552,1181 -1211,1181 -659,0 -1195,-526 -1211,-1181 0,-10 0,-20 0,-30l0 -1c0,-10 0,-20 0,-30 16,-655 552,-1181 1211,-1181 659,0 1195,526 1211,1181 0,10 0,20 0,30l0 1c0,10 0,20 0,30zm-2423 7517l0 -5 0 -5c0,-669 543,-1212 1212,-1212 669,0 1212,543 1212,1212l0 5 0 5c0,669 -543,1212 -1212,1212 -669,0 -1212,-543 -1212,-1212zm4986 -4986c669,0 1212,543 1212,1212 0,669 -543,1212 -1212,1212 -669,0 -1212,-543 -1212,-1212 0,-669 543,-1212 1212,-1212zm-7548 0l2 0 2 0c669,0 1212,543 1212,1212 0,669 -543,1212 -1212,1212l-2 0 -2 0c-669,0 -1212,-543 -1212,-1212 0,-669 543,-1212 1212,-1212zm-2558 -2532c-16,655 -552,1181 -1211,1181 -659,0 -1195,-526 -1211,-1181 0,-10 0,-20 0,-30l0 -1c0,-10 0,-20 0,-30 16,-655 552,-1181 1211,-1181 659,0 1195,526 1211,1181 0,10 0,20 0,30l0 1c0,10 0,20 0,30zm-2423 7517l0 -5 0 -5c0,-669 543,-1212 1212,-1212 669,0 1212,543 1212,1212l0 5 0 5c0,669 -543,1212 -1212,1212 -669,0 -1212,-543 -1212,-1212zm20071 2552l3 0 3 0c669,0 1212,543 1212,1212 0,669 -543,1212 -1212,1212l-3 0 -3 0c-669,0 -1212,-543 -1212,-1212 0,-669 543,-1212 1212,-1212zm-4980 4986c0,-669 543,-1212 1212,-1212 669,0 1212,543 1212,1212l0 8 0 8c0,669 -543,1212 -1212,1212 -669,0 -1212,-543 -1212,-1212l0 -8 0 -8zm-7548 0c0,-669 543,-1212 1212,-1212 669,0 1212,543 1212,1212l0 8 0 8c0,669 -543,1212 -1212,1212 -669,0 -1212,-543 -1212,-1212l0 -8 0 -8zm4986 -4986c669,0 1212,543 1212,1212 0,669 -543,1212 -1212,1212 -669,0 -1212,-543 -1212,-1212 0,-669 543,-1212 1212,-1212zm-7548 0l2 0 2 0c669,0 1212,543 1212,1212 0,669 -543,1212 -1212,1212l-2 0 -2 0c-669,0 -1212,-543 -1212,-1212 0,-669 543,-1212 1212,-1212zm-4981 4986c0,-669 543,-1212 1212,-1212 669,0 1212,543 1212,1212l0 8 0 8c0,669 -543,1212 -1212,1212 -669,0 -1212,-543 -1212,-1212l0 -8 0 -8zm15091 -22623l0 -5 0 -5c0,-669 543,-1212 1212,-1212 669,0 1212,543 1212,1212l0 5 0 5c0,669 -543,1212 -1212,1212 -669,0 -1212,-543 -1212,-1212zm-7548 0l0 -5 0 -5c0,-669 543,-1212 1212,-1212 669,0 1212,543 1212,1212l0 5 0 5c0,669 -543,1212 -1212,1212 -669,0 -1212,-543 -1212,-1212zm-7543 0l0 -5 0 -5c0,-669 543,-1212 1212,-1212 669,0 1212,543 1212,1212l0 5 0 5c0,669 -543,1212 -1212,1212 -669,0 -1212,-543 -1212,-1212zm20071 2552l3 0 3 0c669,0 1212,543 1212,1212 0,669 -543,1212 -1212,1212l-3 0 -3 0c-669,0 -1212,-543 -1212,-1212 0,-669 543,-1212 1212,-1212zm-7542 0c669,0 1212,543 1212,1212 0,669 -543,1212 -1212,1212 -669,0 -1212,-543 -1212,-1212 0,-669 543,-1212 1212,-1212zm-7548 0l2 0 2 0c669,0 1212,543 1212,1212 0,669 -543,1212 -1212,1212l-2 0 -2 0c-669,0 -1212,-543 -1212,-1212 0,-669 543,-1212 1212,-1212zm12533 35204c-16,655 -552,1181 -1211,1181 -659,0 -1195,-526 -1211,-1181 0,-10 0,-20 0,-30l0 -1c0,-10 0,-20 0,-30 16,-655 552,-1181 1211,-1181 659,0 1195,526 1211,1181 0,10 0,20 0,30l0 1c0,10 0,20 0,30zm-7548 0c-16,655 -552,1181 -1211,1181 -659,0 -1195,-526 -1211,-1181 0,-10 0,-20 0,-30l0 -1c0,-10 0,-20 0,-30 16,-655 552,-1181 1211,-1181 659,0 1195,526 1211,1181 0,10 0,20 0,30l0 1c0,10 0,20 0,30zm-7543 0c-16,655 -552,1181 -1211,1181 -659,0 -1195,-526 -1211,-1181 0,-10 0,-20 0,-30l0 -1c0,-10 0,-20 0,-30 16,-655 552,-1181 1211,-1181 659,0 1195,526 1211,1181 0,10 0,20 0,30l0 1c0,10 0,20 0,30zm17648 -12554l3 0 3 0c669,0 1212,543 1212,1212 0,669 -543,1212 -1212,1212l-3 0 -3 0c-669,0 -1212,-543 -1212,-1212 0,-669 543,-1212 1212,-1212zm-4980 4986l0 -5 0 -5c0,-669 543,-1212 1212,-1212 669,0 1212,543 1212,1212l0 5 0 5c0,669 -543,1212 -1212,1212 -669,0 -1212,-543 -1212,-1212zm-7548 0l0 -5 0 -5c0,-669 543,-1212 1212,-1212 669,0 1212,543 1212,1212l0 5 0 5c0,669 -543,1212 -1212,1212 -669,0 -1212,-543 -1212,-1212zm4986 -4986c669,0 1212,543 1212,1212 0,669 -543,1212 -1212,1212 -669,0 -1212,-543 -1212,-1212 0,-669 543,-1212 1212,-1212zm-7548 0l2 0 2 0c669,0 1212,543 1212,1212 0,669 -543,1212 -1212,1212l-2 0 -2 0c-669,0 -1212,-543 -1212,-1212 0,-669 543,-1212 1212,-1212zm-4981 4986l0 -5 0 -5c0,-669 543,-1212 1212,-1212 669,0 1212,543 1212,1212l0 5 0 5c0,669 -543,1212 -1212,1212 -669,0 -1212,-543 -1212,-1212zm20071 2552l3 0 3 0c669,0 1212,543 1212,1212 0,669 -543,1212 -1212,1212l-3 0 -3 0c-669,0 -1212,-543 -1212,-1212 0,-669 543,-1212 1212,-1212zm-7542 0c669,0 1212,543 1212,1212 0,669 -543,1212 -1212,1212 -669,0 -1212,-543 -1212,-1212 0,-669 543,-1212 1212,-1212zm-7548 0l2 0 2 0c669,0 1212,543 1212,1212 0,669 -543,1212 -1212,1212l-2 0 -2 0c-669,0 -1212,-543 -1212,-1212 0,-669 543,-1212 1212,-1212z"/>
 </g>
</svg>
