<?xml version="1.0" encoding="UTF-8"?>
<!DOCTYPE svg PUBLIC "-//W3C//DTD SVG 1.1//EN" "http://www.w3.org/Graphics/SVG/1.1/DTD/svg11.dtd">
<!-- Creator: CorelDRAW X6 -->
<svg xmlns="http://www.w3.org/2000/svg" xml:space="preserve" width="273.584mm" height="437.735mm" version="1.1" style="shape-rendering:geometricPrecision; text-rendering:geometricPrecision; image-rendering:optimizeQuality; fill-rule:evenodd; clip-rule:evenodd"
viewBox="0 0 27358 43774"
 xmlns:xlink="http://www.w3.org/1999/xlink">
 <defs>
  <style type="text/css">
   <![CDATA[
    .fil0 {fill:#EBF1F5}
   ]]>
  </style>
 </defs>
 <g id="layer">
  <metadata id="CorelCorpID_0Corel-Layer"/>
  <path id="spots" class="fil0" d="M21145 24619c551,19 1001,-224 1468,-438 579,-266 377,-136 757,-523 582,-593 591,-681 579,-1410 -7,-420 -428,-888 -833,-1083l-825 -451c-159,-77 -800,-329 -967,-353 -210,-30 -387,-25 -585,-74 -653,-164 -750,-248 -1491,111 -396,192 -414,301 -626,657 -360,604 -455,1344 181,1829 76,58 93,71 135,179 90,231 -23,-34 -10,219 3,72 170,359 215,404 87,87 268,134 393,265 124,130 159,255 275,348 115,92 303,157 449,206 337,113 627,320 1019,309 -25,-100 -16,-56 -91,-146 -7,-8 -16,-18 -22,-24 -6,-7 -16,-16 -23,-24zm-19165 -6999c43,-338 3,-951 5,-1322 1,-140 -15,-500 -65,-609 -162,-358 -702,547 -551,1214 58,256 241,348 418,549 103,117 57,123 193,168zm-1980 21939l0 4213 483 0c38,-114 101,-139 158,-224 122,-184 -12,-84 174,-208 76,-51 135,-107 184,-196 236,-421 43,-318 83,-534 74,-390 85,-476 -64,-1000 -76,-267 -34,-321 -177,-582 -78,-143 -36,-187 -84,-303 -28,-68 -97,-125 -142,-231 -133,-314 -379,-824 -615,-937zm27358 -39216c-212,0 -412,42 -594,90 -393,104 104,291 105,292 -121,166 -418,210 -493,401 -135,-52 41,-73 -191,-47l-153 260c-227,351 -313,448 -380,790 -53,271 -127,430 -17,704 268,665 49,286 144,651 52,200 87,68 161,252 107,268 276,481 486,690 275,273 497,540 932,639l0 -4722zm0 34856c-558,-13 -868,200 -1277,477 -257,175 -186,267 -470,743 -58,98 -72,91 -128,182 -68,110 -38,103 -80,231 -77,233 -156,119 -102,455 21,133 27,412 1,517 -30,126 -73,-2 -19,191 21,78 66,154 86,222 47,155 77,309 120,464 29,104 25,127 65,213 198,428 150,388 408,528 62,34 457,590 904,897 198,136 212,112 492,128l0 -5249zm0 -4081l0 -3753c-140,-63 -184,-189 -370,-127l-1314 452c-363,180 -712,465 -971,797 -115,148 -121,295 -106,510 0,0 227,169 216,399 -152,0 -163,-74 -298,-30 -17,34 -14,14 -18,74l44 260c91,234 414,585 596,723 164,124 343,232 533,330 147,76 201,41 372,49 142,6 247,39 365,79 18,186 -141,305 526,272l-70 73c-48,60 -30,0 -49,78l292 -6c17,-25 15,-39 34,-64 43,-55 -2,-15 53,-54 28,-20 141,-53 165,-62zm-1775 -21777c0,-473 34,-831 5,-1280 -18,-272 13,-320 -190,-461 -124,-87 -325,-104 -437,-266 60,-46 161,-47 211,-69 -42,-135 -341,-368 -456,-470l-540 -390c-107,54 -61,75 -150,158 -65,60 -360,179 -566,426 64,153 42,-1 125,130 -189,17 -265,-4 -385,104 -486,434 -91,246 -232,1230 -37,260 -37,215 -119,249 0,-411 170,-896 -91,-1200 -210,6 -400,245 -499,372 -137,175 -315,259 -253,592 36,194 50,148 175,242 176,132 84,199 291,367 111,90 41,20 119,127 117,160 148,109 305,78l199 240c3,4 71,145 71,145 13,120 -33,-69 -34,162 124,54 295,95 344,204l-760 -107c54,199 490,319 697,327 353,14 668,-24 974,-74 404,-66 446,-107 708,-296 140,-101 181,-101 262,-257 148,-286 162,-111 226,-282zm-19331 21904c0,401 -8,585 233,951 141,213 188,333 387,478 682,501 2083,285 2663,-194 174,-144 286,-281 406,-459 239,-358 93,-641 -45,-984 -40,-100 -42,-330 -305,-528 -88,-66 -170,-145 -245,-205 -153,-123 -305,-305 -496,-372 -215,-76 -463,-114 -705,-165 -512,-109 -711,44 -1230,403 -359,249 -662,591 -662,1075zm4685 12526l5559 0 -6 -165c-444,-257 -358,-53 -261,-425 24,-92 31,-173 15,-257 -71,-357 -499,-899 -755,-1118 -151,-129 -203,-127 -383,-204 -274,-117 -1249,-291 -1600,-240 -928,134 -948,349 -1298,538 -100,54 -102,59 -188,125 -79,61 -109,66 -188,122 -283,204 -399,396 -512,697 -60,160 -135,258 -215,411 -70,133 -174,240 -247,379 31,71 47,86 80,138zm-4928 -43774l-5227 0c27,351 84,334 200,786 27,107 54,95 88,216 104,364 105,548 483,767 84,48 157,74 231,115 318,177 699,592 1425,756 511,116 847,240 1306,-25 245,-141 107,34 406,-323l109 -96c181,-124 121,-145 341,-318 839,-660 360,-955 493,-1165 113,43 71,222 257,276 199,-202 91,-513 4,-781 -51,-159 -50,-63 -116,-209zm5586 20585c174,36 306,4 475,9l793 197c593,164 251,473 1543,-633l504 -500c169,-150 392,-277 506,-498 104,-201 409,-739 175,-917 -190,-145 -329,-183 -453,-342 -72,-93 -134,-151 -223,-260 -181,-223 -111,-410 -957,-558 -582,-102 -2028,-17 -2158,808 -97,617 34,1736 -59,2062 -56,195 -51,-146 -146,633zm15763 -713l0 -2966c-156,-75 -114,-71 -210,-192 -93,-115 -304,-189 -476,-318 -676,-502 -897,-182 -1195,-104 -108,29 -227,41 -316,92 -229,131 -254,108 -515,277 -112,72 -135,135 -216,200 -46,37 -76,44 -124,85 -71,59 -33,40 -102,105 -155,146 -267,200 -380,412 -175,331 -364,1001 -241,1333 109,296 175,238 396,397 1110,802 779,748 2210,1036 648,131 769,-107 1169,-359zm-21803 -1718c235,-521 297,-436 433,-924 66,-237 87,-134 207,-244 -210,-170 91,-436 144,-618 -106,-140 -85,-10 -198,-157 -62,-81 -70,-159 -143,-240 -158,-174 -483,-347 -617,-452 -88,-69 -95,-110 -198,-185l-448 -313c-455,-308 -1295,-313 -1866,-204 -441,84 -277,-12 -579,166 -15,134 20,201 -21,330 -114,362 -151,-158 -151,985l2 1109c-3,255 -34,158 -73,309 120,121 189,156 303,277 138,147 179,173 352,271 269,153 649,234 943,290 757,143 527,-3 1348,-338 211,-86 326,-23 561,-63zm17961 14126c15,-150 -10,-330 3,-443 30,-272 328,-242 -127,-947 -187,-290 -352,-575 -651,-703 -257,-110 -110,17 -284,75 -211,-302 -21,-258 -462,-400 -176,-57 -468,-188 -639,-224 -279,-58 -853,428 -1067,626 -173,160 -271,315 -359,503 -126,271 -179,286 -209,655 -76,952 582,1712 1171,2279 82,79 126,131 215,200 438,336 496,376 960,346 289,-19 1016,-604 1055,-1072 26,-311 35,-469 141,-766 78,-220 56,-124 253,-130zm-23517 -1388l0 3305c224,201 308,101 383,282 -128,76 -127,12 -283,-12 72,116 113,110 215,234 160,195 678,373 1045,290 -103,-168 -216,-48 -529,-147 -163,-51 -375,-123 -451,-241 138,-139 197,-9 363,52 544,198 1496,1 1910,-339 118,-97 748,-796 811,-958 -126,-98 -121,-29 -247,-168 46,-296 178,25 114,-697 -14,-163 -58,-225 -71,-381 -22,-257 -131,-891 -253,-1070 -231,-338 -159,-318 -413,-486 -620,-410 -1372,-389 -2008,33 -154,102 -179,30 -319,126 -106,73 -165,114 -268,177zm18254 -30239c-96,210 104,144 -162,210l-613 223c-158,103 -161,61 -361,49 -33,113 -62,102 -75,163 -38,181 145,8 -87,512 -123,267 -151,522 17,760 89,126 349,406 468,502l537 468c397,243 915,461 1399,573 161,37 262,27 430,51 575,80 -37,243 776,26 173,-46 722,-435 834,-655 155,-307 223,-1353 263,-1742 67,-654 -797,-908 -941,-1018 -124,-95 -94,-131 -324,-164 -132,-19 -218,32 -422,32l-696 -11c-127,-10 -65,-13 -148,-63 -187,-115 -725,36 -894,85zm-10114 1147c10,142 109,244 150,381 -556,733 -276,441 -484,1095 -86,271 -109,691 -104,983 5,291 240,345 516,565 49,39 105,88 155,122 75,51 99,47 180,97 199,123 424,341 741,313 447,-40 264,-4 459,-10 78,-3 301,-81 440,-105 813,-136 1270,-584 1720,-933 410,-318 374,-660 413,-1213 22,-312 -36,-628 -185,-845 -201,-292 -1077,-665 -1401,-748 -494,-126 -1444,-172 -1950,-103 -284,38 -445,232 -650,401zm7748 35192c0,-429 -27,-470 -80,-901 -53,-426 -22,-181 -152,-612 -237,-785 -170,-530 -531,-989 -67,-85 -116,-123 -178,-201 -269,-343 -1117,-1002 -1562,-1109 -100,62 -100,123 -241,216 -54,35 -80,45 -130,77 -68,42 -77,59 -138,103 -170,124 -402,240 -577,358 -86,58 -195,136 -259,190l-229 255c-117,158 -238,521 -238,780 0,243 121,639 216,836 69,143 117,172 183,331 56,135 111,255 174,382 150,305 144,393 446,594 830,552 640,342 1445,668 291,118 512,244 848,175 283,-58 615,-72 747,-325 82,-158 257,-620 257,-828zm-15888 -16857l0 4832c348,161 1058,116 1347,135 188,13 220,73 348,-110 198,99 -104,145 462,46 246,-43 257,-81 450,-178 513,-260 726,-1309 719,-1848 -5,-419 8,-856 1,-1281 -7,-398 -25,-224 -131,-503 -97,-253 -73,-257 -251,-403 -554,-455 -1660,-836 -2394,-804 -222,10 -295,109 -551,112zm13722 -13905c47,186 126,96 179,381 -226,306 -456,243 -800,413 1,100 45,347 66,465 30,175 53,276 107,440 103,317 372,755 596,999 162,176 13,186 170,385 28,35 226,279 255,297 89,56 229,65 386,168 456,300 983,546 1648,444l868 -213c351,-85 332,-110 576,-533 196,-340 377,-448 382,-684 3,-157 -4,-363 47,-483 58,-136 140,-204 67,-430l-108 -265c-88,-214 -168,-130 -318,-377 -50,-82 -156,-237 -234,-320 -109,-116 -215,-80 -359,-193 -256,-201 -314,-122 -706,-366 -237,-148 -102,-90 -410,-145 -196,-35 -175,-101 -423,-133 -221,-29 -806,-47 -1046,-20 -222,26 -795,87 -943,170zm-2363 5467c0,-561 -16,-464 44,-969 -289,-336 -577,-522 -1058,-731 -164,-71 -1201,-428 -1422,-428 -429,0 -568,166 -885,306 -188,83 -117,60 -184,227 -372,-39 -449,-37 -697,416 -156,286 -266,565 -372,836 -128,329 -164,284 -213,665 -30,232 14,120 41,244 27,127 -43,42 33,188 185,351 186,547 305,641 48,-53 64,-150 64,-225 -1,-74 -12,-140 -16,-234 -6,-141 -17,-421 21,-548 98,16 90,0 104,162 49,579 -186,463 17,783 85,134 122,224 258,362 212,214 192,270 312,309 140,-165 78,-759 78,-1138 0,-176 -50,-136 -50,-311l4 -967c20,-60 13,-39 37,-74 92,62 48,98 56,244 8,138 32,181 39,313l37 1279c4,1058 -84,483 194,783 265,286 268,124 492,233 167,81 68,84 357,84 164,0 475,76 755,-65 90,-45 83,-78 169,-145 134,-104 257,-62 719,-526l269 -319c285,-429 488,-258 488,-1394zm7586 1319c-7,-94 -13,33 82,-113 -233,-32 -146,-86 -315,-144 -139,27 -91,39 -187,65 -522,141 -125,-13 -319,271 -49,72 -131,89 -215,131 -329,162 -1344,353 -1516,443l-15 208c-268,203 -98,198 -323,290 28,68 70,84 83,203 -145,159 -95,158 -162,243 -112,144 -191,20 -245,206 -71,245 137,450 235,645 68,136 315,379 465,440 136,55 201,67 365,87 212,26 152,62 195,251l163 35 -3 185c549,205 120,360 891,360 391,0 808,105 1210,122 655,27 931,-337 1376,-618 119,-75 277,-117 409,-247 413,-409 498,-779 645,-1328 104,-389 -547,-765 -880,-1037 -752,-615 -783,-431 -1634,-650 -97,-25 -66,-6 -156,-13 -3,0 -59,18 -148,-32zm-12759 29038c615,-59 1410,-292 1891,-547 161,-85 243,-152 370,-215 215,-106 560,-457 633,-616 42,-91 45,-154 76,-237 145,-386 253,-858 13,-1234 -388,-609 -431,-819 -1392,-1031 -648,-143 -1150,-168 -1577,-264 -288,-65 -211,62 -403,174 -176,103 -446,139 -830,382 -384,244 -1118,815 -1196,1251 -87,487 34,618 147,1001 71,242 100,196 223,362 91,123 158,266 254,371 330,360 1137,663 1791,600zm16920 -4024c-108,-120 -52,-14 -168,-109 -55,-45 -96,-128 -145,-170 -37,-33 -1087,-481 -1424,-283 -405,237 -1396,348 -1924,493 -421,115 -844,370 -1149,656 -310,290 -465,934 -345,1417 96,388 247,545 461,789 123,140 486,536 652,564 183,32 207,-83 439,77 220,151 1,163 416,199 836,72 1379,98 2068,-284 174,-97 218,-88 361,-231 491,-488 446,-398 743,-1091 79,-183 153,-220 161,-432 8,-230 -51,-346 -50,-590 1,-266 38,-350 -75,-542 -221,-377 -53,-308 -22,-462zm-4766 -10658c0,-498 25,-1102 -373,-1469 -271,-249 -747,-550 -1058,-811 -487,-409 -264,-213 -719,-526 -431,-297 -316,-358 -841,-354 -438,3 -93,-14 -505,57 -659,114 -656,113 -748,501 -41,172 -100,318 -135,479 -34,154 -57,373 -81,531 -85,570 -440,649 -241,1270 121,379 -48,86 282,545 305,425 346,598 791,907l333 257c750,471 744,513 1764,516 411,1 624,-49 907,-234 487,-318 486,-702 544,-1147 17,-133 79,-415 79,-522zm-15599 -17235c213,-260 694,-134 1131,-276 325,-106 697,-174 951,-469 82,-95 116,-182 221,-264 460,-362 273,-594 154,-996 -69,-235 -179,-205 -362,-622 -205,-467 -412,-875 -558,-1334 269,-5 104,80 290,132 16,-312 -312,-471 -530,-585 -796,-415 -406,111 -544,296 -148,-86 -6,-218 -148,-369 -150,-129 -790,-76 -981,-38 -155,31 -521,-108 -750,323 -75,-66 -45,-53 -177,-71 -144,319 -342,149 -442,429 -69,192 -32,154 -155,292 -102,113 -107,143 -184,266 115,97 98,-7 156,138 -90,189 -120,24 -274,262 -136,208 -99,392 -318,717 -100,149 -188,147 -78,398 157,358 438,587 703,859 62,63 90,91 148,129 129,83 114,36 153,127 -129,69 -82,29 -246,-50 -103,43 -143,47 -200,119 22,48 341,376 380,407 141,113 68,114 226,191 73,35 199,87 300,117 484,145 909,302 1438,218 10,-206 -175,-241 -303,-347zm8710 14778c0,-325 -194,-563 -373,-1016 -47,-118 -140,-333 -210,-443 -216,-337 -630,-536 -1024,-949 -55,-57 -107,-109 -162,-149 -88,-64 -169,-80 -224,-120 -126,-89 -28,-123 -160,-153 -189,-43 -9,70 -234,78 -38,-39 -71,-109 -100,-160 -115,-209 -22,-448 -362,-351 14,149 73,101 124,221 -882,153 -745,-434 -1711,163 -106,65 -168,109 -295,188 -65,41 -101,57 -150,93 -102,75 -76,19 -107,141 176,70 604,-412 176,824 -347,1002 -383,930 -150,1758 51,181 209,353 304,449 252,254 956,824 1276,941 206,76 384,115 608,155 662,119 900,-2 1341,-86 368,-70 565,82 1000,-493 110,-146 169,-355 224,-529 76,-243 209,-320 209,-562z"/>
 </g>
</svg>
