<?xml version="1.0" encoding="UTF-8"?>
<!DOCTYPE svg PUBLIC "-//W3C//DTD SVG 1.1//EN" "http://www.w3.org/Graphics/SVG/1.1/DTD/svg11.dtd">
<!-- Creator: CorelDRAW X6 -->
<svg xmlns="http://www.w3.org/2000/svg" xml:space="preserve" width="273.584mm" height="437.735mm" version="1.1" style="shape-rendering:geometricPrecision; text-rendering:geometricPrecision; image-rendering:optimizeQuality; fill-rule:evenodd; clip-rule:evenodd"
viewBox="0 0 27358 43774"
 xmlns:xlink="http://www.w3.org/1999/xlink">
 <defs>
  <style type="text/css">
   <![CDATA[
    .fil0 {fill:#E8EFF7}
    .fil4 {fill:#EAEFF7}
    .fil3 {fill:#F0EEF3}
    .fil1 {fill:#F2F6F7}
    .fil2 {fill:#FCFCFC}
   ]]>
  </style>
 </defs>
 <g id="layer">
  <metadata id="CorelCorpID_0Corel-Layer"/>
  <path id="j" class="fil0" d="M27358 3152l-3953 2018c-870,524 -2609,1539 -3596,1425 -931,-108 -6110,-569 -6261,-690 -266,-282 -474,-2085 -596,-2629l-10360 -765 -222 1998c808,44 6055,437 6368,639 -1315,657 -3035,1271 -4425,1836 -742,302 -1488,597 -2223,911 -760,325 -1350,156 -2091,78l0 3239 2235 274c-213,162 -1447,761 -2235,1089l0 3967c380,-204 690,-388 1246,-314 735,97 1474,191 2210,293 1482,206 2973,381 4456,577 1812,239 1167,219 3617,-1174 420,-239 2925,-1673 3090,-1858 219,-69 443,-136 522,-342l-914 -123 -6069 -805 -336 -4619c1725,56 3784,332 5501,517l8243 795c1516,153 1199,-161 1935,1111 362,626 2086,3418 2173,3865l-745 480 -5544 3965 2156 6122 4916 -4298c395,-382 633,-659 902,-826l0 -12334 -522 -733 522 -291 0 -3401zm-17482 36011c-256,132 -1051,965 -1190,1229 -167,73 -2258,2178 -3396,3381l22067 0 0 -7246c-1386,1744 -2434,3076 -2788,3568l-12771 -2926 -1923 1994z"/>
  <path id="h" class="fil1" d="M0 22668c112,-39 250,-11 772,84 510,93 1020,183 1530,277 1013,188 2026,366 3038,552 845,156 5741,910 6049,1155 -640,605 -9002,6671 -11388,8324l0 10311c2158,-1722 8355,-7229 10277,-8785 438,-354 574,-738 1213,-630 531,90 1159,252 1700,365 3218,667 6832,1358 10008,2080 872,198 1585,-1084 2117,-1673 651,-720 1339,-1494 2043,-2288l0 -10414c-107,104 -204,197 -286,266 -1063,902 -2188,1884 -3203,2835 -858,803 -2295,2127 -3214,2796l-2902 -9214 6434 -4478 -2058 -3749 -13050 -1593 331 3293 8372 1010c-315,414 -6773,4360 -7798,5030 -852,557 -1637,199 -2652,74 -919,-113 -1846,-245 -2764,-373 -4894,-685 -3797,-391 -4569,-4l0 4749z"/>
  <path id="g" class="fil2" d="M24188 14231l-6434 4478 2902 9214c919,-668 2356,-1992 3214,-2796 1015,-951 2140,-1933 3203,-2835 81,-69 179,-162 286,-266l0 -2116c-270,167 -507,443 -902,826l-4916 4298 -2156 -6122 5544 -3965 185 -1149c-1373,138 145,-138 -929,-272 80,437 464,483 4,705zm3170 18210c-704,794 -1391,1567 -2043,2288 -532,589 -1246,1871 -2117,1673 -3176,-721 -6790,-1413 -10008,-2080 -542,-112 -1170,-275 -1700,-365 -640,-108 -776,276 -1213,630 -1922,1556 -8120,7063 -10277,8785l0 402 5292 0c1137,-1204 3229,-3308 3396,-3381 138,-264 934,-1097 1190,-1229l1923 -1994 12771 2926c354,-492 1401,-1824 2788,-3568l0 -4087z"/>
  <path id="f" class="fil3" d="M0 7348c1639,165 1404,227 3331,-554 533,-216 3088,-1165 3285,-1395l-5364 -499 483 -2925 12107 930 635 2590c1121,235 2944,301 4151,415 2024,191 1710,208 3477,-731 640,-340 3834,-1913 5255,-2688l0 -485c-680,-59 -1503,-88 -2074,-126 -1022,-67 -1491,-242 -2421,202 -899,430 -3100,1540 -3963,1786l-1498 -2730 2898 -1137 -4977 0c-1067,401 -2205,809 -2551,933 -543,194 -4914,-297 -5840,-370l-37 -562 -4112 0 -2 10c-185,181 -1811,697 -2780,935l0 6403z"/>
  <path id="d" class="fil2" d="M0 33061c2386,-1653 10748,-7719 11388,-8324 -307,-244 -5204,-999 -6049,-1155 -1012,-186 -2026,-364 -3038,-552 -510,-95 -1020,-184 -1530,-277 -522,-96 -659,-123 -772,-84l0 10392z"/>
  <path id="s" class="fil2" d="M0 945c970,-237 2596,-754 2780,-935l2 -10 -950 0 -1832 552 0 393zm6894 -945l37 562c926,73 5297,564 5840,370 347,-124 1485,-532 2551,-933l-1123 0c-839,309 -1743,608 -1928,615 -1192,44 -3205,-240 -4470,-346l-33 -269 -875 0zm13405 0l-2898 1137 1498 2730c864,-245 3064,-1356 3963,-1786 930,-444 1399,-270 2421,-202 571,38 1394,67 2074,126l0 -421c-1376,-101 -2915,-187 -3331,-216 -1675,-116 -3095,1260 -4620,1641l-376 -753c-254,-193 -570,-752 -665,-1068l1191 -446 1768 -744 -1026 0zm7059 2490c-1421,775 -4615,2348 -5255,2688 -1766,938 -1452,921 -3477,731 -1207,-114 -3030,-180 -4151,-415l-635 -2590 -12107 -930 -483 2925 5364 499c-197,230 -2752,1179 -3285,1395 -1927,781 -1692,719 -3331,554l0 626c742,78 1331,247 2091,-78 735,-314 1481,-609 2223,-911 1390,-566 3110,-1179 4425,-1836 -313,-202 -5560,-594 -6368,-639l222 -1998 10360 765c122,544 329,2346 596,2629 151,121 5330,582 6261,690 987,114 2726,-901 3596,-1425l3953 -2018 0 -661z"/>
  <path id="a" class="fil2" d="M14227 13602l914 123c-78,205 -303,273 -522,342 -165,185 -2670,1619 -3090,1858 -2450,1393 -1805,1414 -3617,1174 -1483,-196 -2974,-371 -4456,-577 -736,-102 -1474,-196 -2210,-293 -556,-74 -866,110 -1246,314l0 1376c772,-387 -325,-681 4569,4 917,128 1845,260 2764,373 1014,125 1800,483 2652,-74 1025,-670 7483,-4616 7798,-5030l-8372 -1010 -331 -3293 13050 1593 2058 3749c461,-222 76,-268 -4,-705 1075,134 -444,410 929,272l-185 1149 745 -480c-87,-447 -1811,-3239 -2173,-3865 -736,-1272 -419,-958 -1935,-1111l-8243 -795c-1717,-185 -3776,-462 -5501,-517l336 4619 6069 805z"/>
  <polygon id="t" class="fil2" points="26728,0 26914,194 27347,0 "/>
  <polygon id="r" class="fil2" points="27358,6552 26836,6843 27358,7577 "/>
  <path id="e" class="fil0" d="M0 31065l7862 -5417 192 -113c-106,-143 67,-44 -244,-109 -1381,-198 -2863,-510 -4250,-764 -727,-133 -1454,-265 -2183,-397 -1151,-208 -1218,-149 -1376,-15l0 6815z"/>
  <path id="w" class="fil2" d="M0 12576c788,-328 2022,-927 2235,-1089l-2235 -274 0 1363z"/>
  <path id="q" class="fil4" d="M0 552l1832 -552 -1832 0 0 552zm19558 192l-1191 446c95,316 411,875 665,1068l376 753c1525,-381 2945,-1756 4620,-1641 416,29 1955,114 3331,216l0 -1585 -12 0 -433 194 -186 -194 -5402 0 -1768 744zm-11789 -744l33 269c1265,106 3278,390 4470,346 185,-7 1089,-307 1928,-615l-6430 0z"/>
 </g>
</svg>
