<?xml version="1.0" encoding="UTF-8"?>
<!DOCTYPE svg PUBLIC "-//W3C//DTD SVG 1.1//EN" "http://www.w3.org/Graphics/SVG/1.1/DTD/svg11.dtd">
<!-- Creator: CorelDRAW X6 -->
<svg xmlns="http://www.w3.org/2000/svg" xml:space="preserve" width="273.584mm" height="437.735mm" version="1.1" style="shape-rendering:geometricPrecision; text-rendering:geometricPrecision; image-rendering:optimizeQuality; fill-rule:evenodd; clip-rule:evenodd"
viewBox="0 0 27358 43774"
 xmlns:xlink="http://www.w3.org/1999/xlink">
 <defs>
  <style type="text/css">
   <![CDATA[
    .fil0 {fill:#F4FAE8}
   ]]>
  </style>
 </defs>
 <g id="layer">
  <metadata id="CorelCorpID_0Corel-Layer"/>
  <path id="c" class="fil0" d="M3535 0l3224 0c228,2267 -803,4791 -2203,6437 -1369,-1782 -1624,-4255 -1021,-6437zm8476 0l3205 0c6,2535 -1332,4938 -3325,6543 -1139,-1693 -835,-4501 120,-6543zm15348 11773l0 3739c-1475,1176 -3418,1906 -5160,1956 608,-3050 2492,-4906 5160,-5694zm0 5315l0 2897c-623,76 -1241,88 -1828,33 331,-1162 980,-2145 1828,-2930zm0 3841l0 3615c-1521,686 -3336,925 -5091,787 215,-2110 2633,-3854 5091,-4402zm0 7752l0 3054c-1246,-185 -1266,-171 -2593,-870 761,-1050 1630,-1744 2593,-2184zm0 4140l0 3226c-2424,234 -4020,-198 -5980,-1608 2295,-1352 3115,-1995 5980,-1618zm0 4970l0 3062c-237,-51 -469,-109 -691,-171l-2554 -1530c1137,-839 2143,-1219 3245,-1360zm-10602 5984l-4554 0c-1690,-363 -2320,-1258 -3646,-2370 2851,-1134 8192,-1687 9579,1887 -509,201 -962,361 -1379,483zm-9055 0l-2655 0c-2434,-935 -4180,-3121 -4847,-5805 3695,403 6419,2334 7502,5805zm-4327 0l-2523 0c6,-508 53,-1004 144,-1472 961,211 1750,744 2378,1472zm-3375 -7616l0 -8870c113,-126 232,-254 356,-382 2391,3070 640,6162 -334,9246l-22 6zm0 -11577l0 -8812c2419,2515 2398,6469 850,9412 -315,-147 -598,-351 -850,-600zm0 -13809l0 -7687c317,-592 674,-1104 1038,-1489 2091,2731 1713,7168 -703,9493 -120,-101 -231,-207 -335,-317zm7799 5426c3476,-671 5451,-4614 5128,-8075 -3441,1051 -5368,4471 -5128,8075zm5643 1020c3469,-1207 5469,-4185 5380,-7943 -3266,782 -6032,4387 -5380,7943zm5936 -3574c3817,-394 6227,-3416 6940,-7026 -3522,535 -6625,3328 -6940,7026zm-4306 7670c3831,-703 6226,-3314 6844,-7122 -3495,697 -6743,3325 -6844,7122zm-6297 8531c3545,-895 5997,-3790 6284,-7534 -3537,618 -6334,3818 -6284,7534zm6526 -4093c3356,236 7412,-2245 7901,-5651 -3513,-46 -7121,2166 -7901,5651zm-12869 7037c3575,-934 6281,-3865 6342,-7679 -4026,1408 -5854,3203 -6342,7679zm591 -14960c2520,-2541 2852,-6726 757,-9600 -2397,2303 -2915,7083 -757,9600zm11580 19959c3096,1182 6959,2761 9756,-165 -2687,-2115 -7556,-2728 -9756,165zm-7503 -14105c3502,-767 5665,-4750 5136,-8296 -3359,1201 -5274,4640 -5136,8296zm19889 19114l-973 -1034c-2072,-2148 -5770,-2426 -8466,-1294 2003,2749 6435,4199 9439,2328zm-23518 -16432c2725,-2183 4084,-5524 2772,-9028 -2952,244 -4411,6898 -2772,9028zm10432 -16977c3469,-477 5772,-4531 5554,-7929 -3730,1018 -5542,4019 -5554,7929zm-3488 25955c3052,1963 7397,536 9440,-2119 -2375,-1308 -5394,-861 -7707,486 -1347,785 -1083,580 -1733,1632zm-272 -2769c3943,-68 6809,-2040 7937,-5605 -3582,-472 -7257,2122 -7937,5605zm-3498 -20881c3025,-1194 3616,-5950 2982,-9037 -1369,210 -1970,860 -2988,3173 -826,1876 -986,4190 6,5865zm11008 19299c2820,496 5029,-217 7173,-2043 1072,-913 1125,-1053 1470,-2042 -2911,-1480 -7893,1071 -8643,4085zm-12388 6131c-882,2367 6085,4239 9258,2133 -2980,-3065 -5207,-2876 -9258,-2133zm14961 -28828c3353,-856 5809,-4499 5431,-8110 -3438,845 -5854,4443 -5431,8110zm-20043 28041c2028,891 3135,778 5243,159 2121,-852 3398,-1381 4280,-3447 -4897,-1115 -6439,598 -9522,3288z"/>
 </g>
</svg>
