<?xml version="1.0" encoding="UTF-8"?>
<!DOCTYPE svg PUBLIC "-//W3C//DTD SVG 1.1//EN" "http://www.w3.org/Graphics/SVG/1.1/DTD/svg11.dtd">
<!-- Creator: CorelDRAW X6 -->
<svg xmlns="http://www.w3.org/2000/svg" xml:space="preserve" width="273.584mm" height="437.735mm" version="1.1" style="shape-rendering:geometricPrecision; text-rendering:geometricPrecision; image-rendering:optimizeQuality; fill-rule:evenodd; clip-rule:evenodd"
viewBox="0 0 27358 43774"
 xmlns:xlink="http://www.w3.org/1999/xlink">
 <defs>
  <style type="text/css">
   <![CDATA[
    .fil0 {fill:#EDEFF2}
    .fil1 {fill:white}
   ]]>
  </style>
 </defs>
 <g id="layer">
  <metadata id="CorelCorpID_0Corel-Layer"/>
  <path id="w" class="fil0" d="M0 30593c1256,1795 2566,3537 3961,5234l3646 4420c305,359 2235,2371 3190,3527l3598 0c-403,-537 -896,-1130 -1223,-1604 -276,-400 -512,-702 -827,-1132 -2076,-2837 -6290,-9137 -7942,-12284l-2157 -3917c-651,-1209 -1445,-2771 -2247,-4424l0 10181zm0 9914c153,158 309,319 469,484 338,348 1969,1834 2873,2783l5223 0 -53 -63c-197,-224 -354,-400 -584,-651l-3547 -4145c-1518,-1926 -2993,-3696 -4381,-5711l0 7304zm878 3267l-149 -160c-241,-249 -469,-462 -729,-718l0 877 878 0zm26481 -13119c-905,682 -1921,1413 -3238,2339l-3804 2390c186,632 745,1771 1019,2368 331,721 2144,4396 2868,6022l3154 0 0 -13119zm-25261 -30654l1095 4381c1265,4406 2586,8894 4189,12945 831,2100 1574,3972 2421,5952 871,2034 1690,3756 2596,5669 1440,3038 2795,5335 4197,8022 247,474 504,788 748,1256 552,1059 2555,4083 3374,5550l1757 0 -928 -1877c-424,-841 -826,-1696 -1241,-2639 -788,-1794 -1575,-3501 -2391,-5421 -3380,-7955 -8150,-22969 -9802,-33836l-6015 0zm7869 0c125,2704 1350,6846 1722,9408 4261,-505 10814,-3550 14910,-5561 242,-119 496,-249 759,-390l0 -3457 -17392 0zm17392 17027c-2096,1385 -4296,2670 -6245,3621 -933,456 -1768,894 -2702,1305 -486,214 -2487,983 -2781,1278 373,1540 1301,3768 1838,5251l1983 5051c690,-192 1928,-1097 2617,-1520 1677,-1028 3493,-2313 5289,-3720l0 -11267zm-27358 -131c878,1926 1843,3953 2436,5034l3737 6877c325,495 488,767 763,1234 1069,1814 2020,3221 3160,5054l3341 4767c617,851 1079,1473 1707,2324 186,252 813,985 1248,1588l2500 0 -286 -487c-284,-442 -480,-789 -759,-1242l-3639 -6310c-1477,-2385 -4647,-9324 -5946,-12302 -1633,-3745 -3073,-7770 -4522,-12124 -708,-2127 -1347,-4349 -1946,-6573 -71,-262 -756,-2880 -1204,-4735l-589 0 0 16896zm27358 -11309c-2341,1239 -4709,2276 -7408,3358 -2558,1025 -5107,1567 -7738,2356 107,1194 2305,8867 2757,9924 1927,-61 8543,-4004 12389,-6540l0 -9098z"/>
  <path id="q" class="fil1" d="M0 33203c1388,2015 2863,3785 4381,5711l3547 4145c230,252 387,428 584,651l53 63 2232 0c-955,-1156 -2885,-3168 -3190,-3527l-3646 -4420c-1395,-1697 -2705,-3439 -3961,-5234l0 2610zm8113 -33203c1652,10866 6423,25881 9802,33836 816,1920 1603,3628 2391,5421 415,943 817,1798 1241,2639l928 1877 1730 0c-725,-1626 -2538,-5301 -2868,-6022 -274,-597 -833,-1736 -1019,-2368l3804 -2390c1317,-926 2333,-1656 3238,-2339l0 -2360c-1796,1406 -3612,2691 -5289,3720 -690,423 -1927,1328 -2617,1520l-1983 -5051c-537,-1483 -1465,-3711 -1838,-5251 294,-295 2295,-1064 2781,-1278 934,-412 1769,-850 2702,-1305 1949,-952 4149,-2236 6245,-3621l0 -2342c-3846,2537 -10462,6479 -12389,6540 -453,-1057 -2651,-8730 -2757,-9924 2631,-789 5180,-1331 7738,-2356 2699,-1082 5067,-2119 7408,-3358l0 -2130c-263,141 -517,271 -759,390 -4096,2011 -10649,5056 -14910,5561 -373,-2562 -1598,-6704 -1722,-9408l-1854 0zm-7524 0c448,1855 1133,4473 1204,4735 600,2224 1238,4446 1946,6573 1449,4354 2889,8379 4522,12124 1299,2979 4470,9917 5946,12302l3639 6310c279,452 476,800 759,1242l286 487 1825 0c-819,-1466 -2822,-4491 -3374,-5550 -244,-468 -500,-782 -748,-1256 -1402,-2687 -2757,-4984 -4197,-8022 -907,-1913 -1725,-3635 -2596,-5669 -848,-1979 -1590,-3852 -2421,-5952 -1603,-4050 -2923,-8538 -4189,-12945l-1095 -4381 -1509 0zm-589 20411c802,1653 1595,3215 2247,4424l2157 3917c1652,3148 5866,9447 7942,12284 315,430 551,732 827,1132 328,475 820,1067 1223,1604l1997 0c-435,-603 -1062,-1336 -1248,-1588 -627,-851 -1090,-1473 -1707,-2324l-3341 -4767c-1140,-1833 -2090,-3239 -3160,-5054 -275,-467 -438,-739 -763,-1234l-3737 -6877c-593,-1082 -1558,-3108 -2436,-5034l0 3515zm0 22485c259,256 488,469 729,718l149 160 2464 0c-904,-949 -2535,-2435 -2873,-2783 -160,-165 -316,-326 -469,-484l0 2390z"/>
 </g>
</svg>
