<?xml version="1.0" encoding="UTF-8"?>
<!DOCTYPE svg PUBLIC "-//W3C//DTD SVG 1.1//EN" "http://www.w3.org/Graphics/SVG/1.1/DTD/svg11.dtd">
<!-- Creator: CorelDRAW X6 -->
<svg xmlns="http://www.w3.org/2000/svg" xml:space="preserve" width="6.436mm" height="17.546mm" version="1.1" style="shape-rendering:geometricPrecision; text-rendering:geometricPrecision; image-rendering:optimizeQuality; fill-rule:evenodd; clip-rule:evenodd"
viewBox="0 0 644 1755"
 xmlns:xlink="http://www.w3.org/1999/xlink">
 <defs>
  <style type="text/css">
   <![CDATA[
    .fil0 {fill:#898989}
    .fil1 {fill:#C5C6C6}
   ]]>
  </style>
 </defs>
 <g id="l">
  <metadata id="CorelCorpID_0Corel-Layer"/>
  <path id="v" class="fil0" d="M267 494l-59 147c-14,102 -29,156 -34,268 -4,97 27,185 26,273 32,34 46,96 67,141 12,24 22,44 35,69 22,43 13,45 53,66l28 75c30,11 15,13 45,46 42,45 147,148 202,172 -25,-53 -11,-33 -65,-72 -27,-20 -40,-32 -63,-55 -23,-23 -35,-36 -56,-63 -27,-35 -34,-39 -12,-78 -91,14 -22,6 -51,-11 -13,-30 5,-8 -27,-12l3 -28c-40,-29 -46,-63 -70,-114 -21,-44 -38,-86 -49,-135 -35,-115 -72,-289 -32,-405l40 -149c11,-52 18,-82 47,-116l18 -56 -46 40zm43 -68l28 10 26 -59 21 -54c-4,2 -11,-3 -14,2l-61 101zm155 -247l-39 49 -49 79 43 -17c48,-57 45,-50 69,-122l-24 11z"/>
  <path id="c" class="fil1" d="M484 169c101,-20 143,-58 155,-164 -97,11 -152,57 -155,164zm-156 1333c4,19 -11,14 7,20 26,8 6,5 26,-4 -15,-14 -1,-8 -33,-16 14,-35 2,-21 -2,-31 -43,-16 -32,-5 -50,30l52 1zm56 -32c33,0 1,15 38,-3 23,-12 12,-9 24,-23 -36,-16 -40,-14 -62,27zm-25 -40c56,4 46,8 81,-31l-47 -16 -33 47zm41 -58l19 -3c-26,-47 17,-30 -48,-39l-36 15c-2,-4 -6,6 -11,14l76 14zm-179 71c14,13 -47,23 46,21 69,-1 16,1 40,-18 -34,-35 -28,-33 -86,-3zm-55 -44c51,21 59,25 103,0 -4,-20 21,-47 -43,-42 -31,2 -48,27 -60,42zm202 -86c46,-31 21,-4 45,-49l-54 -16c-62,3 -54,-1 -65,63l74 1zm-126 -195c38,41 94,47 139,-2 -38,-53 -104,-54 -139,2zm24 66l0 47 94 1c54,-28 13,8 30,-46 -50,-28 -68,-34 -124,-1zm-138 -266c16,-23 19,-32 19,-73 -42,-28 -63,-35 -130,-38 16,52 52,104 111,110zm-39 407c83,28 159,49 137,-65 -65,-8 -112,16 -137,65zm382 -1102c-22,56 -4,17 -29,34 1,72 1,24 18,46 70,1 127,-22 134,-81l-122 0zm-317 796c-3,-58 22,-74 -149,-99 22,77 73,107 149,99zm79 29c71,19 99,-5 131,-51 -28,-21 -56,-34 -96,-28 -90,13 -35,78 -35,79zm-79 -254c26,-92 -18,-123 -107,-146 19,86 25,129 107,146zm-95 376c-12,50 -6,48 32,65 44,19 59,10 98,-3l6 -56c-81,-46 -47,-13 -136,-6zm150 -529c9,-90 -20,-114 -95,-135 5,81 5,106 49,156 25,-11 29,-11 46,-21zm-199 431c49,52 72,66 159,53l-5 -69c-57,-17 -108,-22 -154,15zm381 -806l49 -76 -21 -127c-39,19 -39,55 -50,104 -3,12 -10,50 -10,61 4,66 9,35 31,38zm-124 228c-7,-77 -18,-105 -55,-149 -16,19 -9,-3 -20,30 -16,51 -8,100 1,147 29,0 16,10 65,-22 2,-1 5,-5 8,-7zm-58 431c20,9 11,14 42,15l89 -31c53,-38 7,0 35,-38 -59,-18 -76,-41 -150,-18l-17 72zm124 -568l9 -89c-2,-20 1,-29 -7,-51 -16,-42 -14,-24 -24,-34 -45,57 -85,268 22,174zm-85 269l6 53c63,23 119,27 170,-13 -39,-55 -110,-66 -176,-40zm47 -116l11 59c67,10 143,-3 175,-71 -84,-3 -118,-24 -187,12zm-72 265l5 36c84,9 88,-13 154,-17 -1,-40 27,-35 -46,-58 -43,-14 -59,-10 -103,-7l-9 46zm151 -401l-18 62c43,17 58,15 103,-1 1,-1 41,-17 41,-18 60,-38 18,1 44,-52 -71,-12 -106,-18 -170,9z"/>
 </g>
</svg>
