<?xml version="1.0" encoding="UTF-8"?>
<!DOCTYPE svg PUBLIC "-//W3C//DTD SVG 1.1//EN" "http://www.w3.org/Graphics/SVG/1.1/DTD/svg11.dtd">
<!-- Creator: CorelDRAW X6 -->
<svg xmlns="http://www.w3.org/2000/svg" xml:space="preserve" width="158.497mm" height="25.912mm" version="1.1" style="shape-rendering:geometricPrecision; text-rendering:geometricPrecision; image-rendering:optimizeQuality; fill-rule:evenodd; clip-rule:evenodd"
viewBox="0 0 15850 2591"
 xmlns:xlink="http://www.w3.org/1999/xlink">
 <defs>
  <style type="text/css">
   <![CDATA[
    .fil0 {fill:#333333;fill-rule:nonzero}
   ]]>
  </style>
 </defs>
 <g id="l">
  <metadata id="CorelCorpID_0Corel-Layer"/>
  <path id="w" class="fil0" d="M218 861l-218 0 0 -430c0,-50 4,-93 13,-128 9,-35 23,-62 44,-83 20,-21 47,-36 80,-45 33,-9 74,-14 123,-14l81 0 0 200 -42 0c-17,0 -31,1 -41,3 -11,2 -19,6 -25,13 -6,6 -10,15 -12,27 -2,12 -3,28 -3,47l0 408zm12076 873c-49,0 -95,-9 -139,-28 -44,-19 -83,-45 -116,-78 -33,-33 -60,-72 -80,-116 -20,-44 -30,-92 -30,-143 0,-50 10,-98 30,-143 20,-45 47,-83 80,-116 33,-33 72,-59 116,-79 44,-19 91,-29 139,-29 50,0 98,10 143,29 45,19 83,46 116,79 33,33 59,73 78,118 19,45 29,93 29,145 0,50 -10,97 -29,140 -19,44 -45,82 -78,114 -33,33 -72,59 -116,78 -45,19 -92,29 -143,29zm-1 -206c19,0 38,-4 55,-12 17,-8 33,-19 47,-33 14,-14 24,-31 32,-50 8,-19 12,-41 12,-64 0,-23 -4,-45 -11,-64 -7,-19 -18,-36 -31,-51 -13,-15 -29,-26 -46,-34 -17,-8 -36,-12 -56,-12 -21,0 -40,4 -57,12 -17,8 -33,19 -46,34 -13,15 -23,32 -31,51 -7,19 -11,41 -11,64 0,23 4,45 11,64 7,19 18,36 31,50 13,14 29,25 46,33 17,8 36,12 55,12zm677 -8l0 -203c21,0 38,-3 51,-10 13,-6 20,-19 20,-37 0,-14 -6,-26 -17,-35 -12,-9 -29,-14 -53,-14l-38 0 0 496 -218 0 0 -698 260 0c43,0 82,5 118,16 36,11 67,27 93,48 26,21 47,47 62,77 15,30 22,66 22,106 0,88 -26,152 -79,194 -53,41 -126,62 -220,62zm921 197l-214 0 0 -154 -149 0 0 154 -215 0 0 -398c0,-44 7,-85 20,-124 14,-38 33,-72 58,-100 25,-28 56,-51 92,-68 36,-17 77,-25 123,-25 46,0 87,8 122,24 36,16 65,39 90,67 24,29 43,63 55,102 12,39 18,82 18,128l0 394zm-364 -339l149 0 0 -62c0,-32 -5,-55 -16,-71 -10,-16 -29,-24 -55,-24 -25,0 -44,8 -58,24 -14,16 -21,40 -21,72l0 61zm808 -360l218 0 0 496 49 0 0 203 -373 0c-44,0 -82,-4 -113,-12 -31,-8 -57,-22 -77,-42 -20,-20 -35,-46 -44,-79 -9,-33 -14,-73 -14,-122l0 -444 215 0 0 409c0,37 5,60 15,71 10,10 27,16 50,16l74 0 0 -496zm649 0l218 0 0 698 -327 0c-44,0 -82,-4 -113,-12 -31,-8 -57,-22 -77,-42 -20,-20 -35,-46 -44,-79 -9,-33 -14,-73 -14,-122l0 -444 218 0 0 409c0,37 5,60 14,71 9,10 25,16 49,16l77 0 0 -496zm647 0l218 0 0 698 -327 0c-44,0 -82,-4 -113,-12 -31,-8 -57,-22 -77,-42 -20,-20 -35,-46 -44,-79 -9,-33 -14,-73 -14,-122l0 -444 218 0 0 409c0,37 5,60 14,71 9,10 25,16 49,16l77 0 0 -496zm-15406 1555l-218 0 0 -698 327 0c44,0 82,4 113,12 31,8 57,22 77,42 20,20 35,46 44,79 9,33 14,73 14,122l0 444 -218 0 0 -409c0,-37 -5,-60 -13,-71 -9,-10 -25,-16 -49,-16l-76 0 0 496zm876 -217l0 215c-16,6 -34,11 -54,14 -20,3 -41,4 -64,4 -50,0 -96,-9 -139,-28 -43,-18 -80,-44 -112,-77 -32,-33 -57,-71 -75,-115 -18,-44 -27,-93 -27,-145 0,-50 10,-98 29,-142 19,-44 45,-83 79,-116 34,-33 73,-59 119,-79 46,-19 95,-29 148,-29 38,0 70,6 96,16l0 212c-17,-8 -35,-14 -51,-18 -17,-4 -33,-5 -49,-5 -46,0 -82,15 -109,46 -27,30 -40,69 -40,114 0,46 13,84 40,114 27,30 61,45 103,45 14,0 30,-2 49,-6 18,-4 38,-11 59,-21zm552 -481l0 203 -151 0 0 496 -218 0 0 -496 -151 0 0 -203 521 0zm1157 0l0 384c0,43 -6,85 -16,125 -11,40 -28,75 -50,106 -22,31 -51,55 -85,73 -35,18 -75,27 -123,27 -35,0 -67,-5 -96,-15 -29,-10 -54,-24 -77,-42 -46,38 -104,57 -174,57 -47,0 -88,-9 -123,-27 -35,-18 -63,-43 -85,-73 -22,-31 -39,-66 -50,-106 -11,-40 -16,-81 -16,-125l0 -384 218 0 0 378c0,27 1,49 2,66 2,17 5,31 9,40 5,10 11,16 18,19 8,3 18,5 30,5 12,0 21,-2 29,-5 7,-3 14,-9 18,-18 5,-9 8,-22 10,-38 2,-16 3,-37 3,-63l0 -385 218 0 0 385c0,26 1,47 3,63 2,16 6,29 11,38 5,9 11,15 19,18 8,3 17,5 27,5 11,0 21,-2 29,-5 8,-3 14,-10 19,-19 5,-10 8,-23 10,-40 2,-17 3,-39 3,-66l0 -378 218 0zm421 715c-49,0 -95,-9 -139,-28 -44,-19 -83,-45 -116,-78 -33,-33 -60,-72 -80,-116 -20,-44 -30,-92 -30,-143 0,-50 10,-98 30,-143 20,-45 47,-83 80,-116 33,-33 72,-59 116,-79 44,-19 91,-29 139,-29 50,0 98,10 143,29 45,19 83,46 116,79 33,33 59,73 78,118 19,45 29,93 29,145 0,50 -10,97 -29,140 -19,44 -45,82 -78,114 -33,33 -72,59 -116,78 -45,19 -92,29 -143,29zm-1 -206c19,0 38,-4 55,-12 17,-8 33,-19 47,-33 14,-14 24,-31 32,-50 8,-19 12,-41 12,-64 0,-23 -4,-45 -11,-64 -7,-19 -18,-36 -31,-51 -13,-15 -29,-26 -46,-34 -17,-8 -36,-12 -56,-12 -21,0 -40,4 -57,12 -17,8 -33,19 -46,34 -13,15 -23,32 -31,51 -7,19 -11,41 -11,64 0,23 4,45 11,64 7,19 18,36 31,50 13,14 29,25 46,33 17,8 36,12 55,12zm637 189l-216 0 0 -698 254 0c41,0 79,4 115,12 36,8 67,21 95,39 27,18 49,42 64,70 16,29 23,64 23,105 0,28 -5,56 -14,84 -9,28 -26,51 -50,68 28,21 47,45 55,72 8,27 13,60 13,100l0 146 -221 0 0 -146c0,-30 -5,-51 -14,-63 -9,-12 -26,-17 -49,-17l-16 0 0 -156 16 0c21,0 36,-5 45,-14 9,-9 13,-24 13,-43 0,-20 -5,-34 -15,-43 -10,-9 -30,-13 -60,-13l-38 0 0 496zm718 -200l0 200 -59 0c-49,0 -90,-5 -123,-14 -33,-9 -60,-24 -80,-45 -20,-21 -35,-48 -44,-83 -9,-35 -13,-77 -13,-128l0 -430 218 0 0 408c0,19 1,35 3,47 2,12 6,21 12,27 6,6 14,10 25,13 11,2 24,3 41,3l19 0zm262 -296l0 293 49 0c40,0 73,-11 98,-33 26,-22 38,-59 38,-113 0,-49 -13,-86 -38,-111 -26,-25 -58,-37 -98,-37l-49 0zm-218 496l0 -698 267 0c50,0 97,8 141,24 44,16 81,39 113,69 32,30 57,67 75,110 18,43 27,92 27,147 0,55 -9,104 -27,147 -18,43 -43,80 -75,110 -32,30 -69,52 -113,68 -44,16 -91,23 -141,23l-267 0zm1575 -698l0 384c0,43 -6,85 -16,125 -11,40 -28,75 -50,106 -22,31 -51,55 -85,73 -35,18 -75,27 -123,27 -35,0 -67,-5 -96,-15 -29,-10 -54,-24 -77,-42 -46,38 -104,57 -174,57 -47,0 -88,-9 -123,-27 -35,-18 -63,-43 -85,-73 -22,-31 -39,-66 -50,-106 -11,-40 -16,-81 -16,-125l0 -384 218 0 0 378c0,27 1,49 2,66 2,17 5,31 9,40 5,10 11,16 18,19 8,3 18,5 30,5 12,0 21,-2 29,-5 7,-3 14,-9 18,-18 5,-9 8,-22 10,-38 2,-16 3,-37 3,-63l0 -385 218 0 0 385c0,26 1,47 3,63 2,16 6,29 11,38 5,9 11,15 19,18 8,3 17,5 27,5 11,0 21,-2 29,-5 8,-3 14,-10 19,-19 5,-10 8,-23 10,-40 2,-17 3,-39 3,-66l0 -378 218 0zm69 0l218 0 0 698 -218 0 0 -698zm512 203l0 293 49 0c40,0 73,-11 98,-33 26,-22 38,-59 38,-113 0,-49 -13,-86 -38,-111 -26,-25 -58,-37 -98,-37l-49 0zm-218 496l0 -698 267 0c50,0 97,8 141,24 44,16 81,39 113,69 32,30 57,67 75,110 18,43 27,92 27,147 0,55 -9,104 -27,147 -18,43 -43,80 -75,110 -32,30 -69,52 -113,68 -44,16 -91,23 -141,23l-267 0zm1131 -426l0 125 -184 0c-19,0 -34,4 -47,12 -12,8 -18,20 -18,34 0,34 30,51 89,51l160 0 0 203 -191 0c-91,0 -159,-18 -206,-55 -47,-37 -70,-93 -70,-168 0,-27 3,-51 9,-73 6,-21 19,-44 41,-69 -17,-18 -29,-37 -37,-57 -8,-20 -12,-39 -12,-58 0,-41 7,-75 22,-103 15,-28 34,-50 59,-67 25,-17 54,-29 88,-37 34,-7 70,-11 108,-11l191 0 0 201 -181 0c-25,0 -43,3 -53,8 -10,5 -15,14 -15,27 0,13 5,22 16,28 11,6 28,9 53,9l180 0zm-7121 -1288l-254 0 0 -203 42 0 0 -182c0,-48 6,-92 19,-132 13,-40 31,-75 55,-104 24,-29 54,-52 90,-68 36,-16 76,-25 122,-25 47,0 88,9 124,27 35,18 65,43 88,73 24,31 41,66 53,106 12,40 18,81 18,125l0 384 -218 0 0 -378c0,-27 -1,-49 -4,-66 -3,-17 -7,-31 -13,-40 -6,-10 -13,-16 -22,-19 -9,-3 -19,-5 -31,-5 -12,0 -23,2 -32,5 -9,3 -16,10 -22,19 -6,10 -10,23 -13,40 -3,17 -4,39 -4,66l0 378zm773 16c-49,0 -95,-9 -139,-28 -44,-19 -83,-45 -116,-78 -33,-33 -60,-72 -80,-116 -20,-44 -30,-92 -30,-143 0,-50 10,-98 30,-143 20,-45 47,-83 80,-116 33,-33 72,-59 116,-79 44,-19 91,-29 139,-29 50,0 98,10 143,29 45,19 83,46 116,79 33,33 59,73 78,118 19,45 29,93 29,145 0,50 -10,97 -29,140 -19,44 -45,82 -78,114 -33,33 -72,59 -116,78 -45,19 -92,29 -143,29zm-1 -206c19,0 38,-4 55,-12 17,-8 33,-19 47,-33 14,-14 24,-31 32,-50 8,-19 12,-41 12,-64 0,-23 -4,-45 -11,-64 -7,-19 -18,-36 -31,-51 -13,-15 -29,-26 -46,-34 -17,-8 -36,-12 -56,-12 -21,0 -40,4 -57,12 -17,8 -33,19 -46,34 -13,15 -23,32 -31,51 -7,19 -11,41 -11,64 0,23 4,45 11,64 7,19 18,36 31,50 13,14 29,25 46,33 17,8 36,12 55,12zm421 189l0 -698 530 0 0 200 -311 0 0 299 35 0c22,0 40,-1 53,-3 13,-2 24,-6 31,-10 7,-4 12,-9 15,-15 3,-6 4,-12 4,-19 0,-15 -6,-27 -16,-37 -11,-10 -35,-15 -71,-15l-16 0 0 -124 16 0c106,0 185,15 236,46 51,31 77,82 77,153 0,79 -27,136 -81,171 -54,35 -133,53 -237,53l-264 0zm1208 0l-214 0 0 -154 -149 0 0 154 -215 0 0 -398c0,-44 7,-85 20,-124 14,-38 33,-72 58,-100 25,-28 56,-51 92,-68 36,-17 77,-25 123,-25 46,0 87,8 122,24 36,16 65,39 90,67 24,29 43,63 55,102 12,39 18,82 18,128l0 394zm-364 -339l149 0 0 -62c0,-32 -5,-55 -16,-71 -10,-16 -29,-24 -55,-24 -25,0 -44,8 -58,24 -14,16 -21,40 -21,72l0 61zm652 339l-254 0 0 -203 42 0 0 -182c0,-48 6,-92 19,-132 13,-40 31,-75 55,-104 24,-29 54,-52 90,-68 36,-16 76,-25 122,-25 47,0 88,9 124,27 35,18 65,43 88,73 24,31 41,66 53,106 12,40 18,81 18,125l0 384 -218 0 0 -378c0,-27 -1,-49 -4,-66 -3,-17 -7,-31 -13,-40 -6,-10 -13,-16 -22,-19 -9,-3 -19,-5 -31,-5 -12,0 -23,2 -32,5 -9,3 -16,10 -22,19 -6,10 -10,23 -13,40 -3,17 -4,39 -4,66l0 378zm429 0l0 -698 218 0 0 496 38 0c47,0 71,-16 71,-49 0,-19 -7,-31 -20,-38 -13,-6 -30,-10 -51,-10l0 -197c95,0 169,21 221,62 52,41 78,104 78,188 0,40 -7,75 -22,106 -15,30 -35,56 -62,77 -26,21 -57,37 -93,48 -36,11 -75,16 -118,16l-260 0zm964 -698l218 0 0 698 -218 0 0 -276 -144 0 0 276 -218 0 0 -698 218 0 0 250 144 0 0 -250zm888 0l218 0 0 698 -218 0 0 -698zm-595 698l0 -698 218 0 0 496 38 0c47,0 71,-16 71,-49 0,-19 -7,-31 -20,-38 -13,-6 -30,-10 -51,-10l0 -197c95,0 169,21 221,62 52,41 78,104 78,188 0,40 -7,75 -22,106 -15,30 -35,56 -62,77 -26,21 -57,37 -93,48 -36,11 -75,16 -118,16l-260 0zm1242 -698l218 0 0 698 -327 0c-44,0 -82,-4 -113,-12 -31,-8 -57,-22 -77,-42 -20,-20 -35,-46 -44,-79 -9,-33 -14,-73 -14,-122l0 -444 218 0 0 409c0,37 5,60 14,71 9,10 25,16 49,16l77 0 0 -496zm-13 -163l113 0c-6,46 -25,82 -57,108 -31,26 -68,39 -110,39 -42,0 -79,-13 -110,-39 -31,-26 -50,-62 -57,-108l113 0c5,15 12,25 19,30 8,5 19,7 35,7 15,0 26,-2 34,-7 8,-5 15,-15 20,-30zm783 563l0 -124 16 0c28,0 48,-3 57,-10 10,-6 15,-15 15,-25 0,-13 -5,-23 -15,-30 -10,-7 -29,-11 -57,-11l-50 0 0 299 35 0c22,0 40,-1 53,-3 13,-2 24,-6 31,-10 7,-4 12,-9 15,-15 3,-6 4,-12 4,-19 0,-15 -6,-27 -16,-37 -11,-10 -35,-15 -71,-15l-16 0zm-253 299l0 -698 281 0c91,0 161,18 209,55 48,37 72,90 72,158 0,21 -4,42 -11,62 -7,20 -20,39 -38,56 20,16 37,38 50,65 13,27 20,53 20,78 0,79 -27,136 -81,171 -54,35 -133,53 -237,53l-264 0zm1095 -426l0 125 -184 0c-19,0 -34,4 -47,12 -12,8 -18,20 -18,34 0,34 30,51 89,51l160 0 0 203 -191 0c-91,0 -159,-18 -206,-55 -47,-37 -70,-93 -70,-168 0,-27 3,-51 9,-73 6,-21 19,-44 41,-69 -17,-18 -29,-37 -37,-57 -8,-20 -12,-39 -12,-58 0,-41 7,-75 22,-103 15,-28 34,-50 59,-67 25,-17 54,-29 88,-37 34,-7 70,-11 108,-11l191 0 0 201 -181 0c-25,0 -43,3 -53,8 -10,5 -15,14 -15,27 0,13 5,22 16,28 11,6 28,9 53,9l180 0zm69 426l0 -698 530 0 0 200 -311 0 0 299 35 0c22,0 40,-1 53,-3 13,-2 24,-6 31,-10 7,-4 12,-9 15,-15 3,-6 4,-12 4,-19 0,-15 -6,-27 -16,-37 -11,-10 -35,-15 -71,-15l-16 0 0 -124 16 0c106,0 185,15 236,46 51,31 77,82 77,153 0,79 -27,136 -81,171 -54,35 -133,53 -237,53l-264 0zm883 -448l0 172 -247 0 0 -172 247 0zm523 231l0 215c-16,6 -34,11 -54,14 -20,3 -41,4 -64,4 -50,0 -96,-9 -139,-28 -43,-18 -80,-44 -112,-77 -32,-33 -57,-71 -75,-115 -18,-44 -27,-93 -27,-145 0,-50 10,-98 29,-142 19,-44 45,-83 79,-116 34,-33 73,-59 119,-79 46,-19 95,-29 148,-29 38,0 70,6 96,16l0 212c-17,-8 -35,-14 -51,-18 -17,-4 -33,-5 -49,-5 -46,0 -82,15 -109,46 -27,30 -40,69 -40,114 0,46 13,84 40,114 27,30 61,45 103,45 14,0 30,-2 49,-6 18,-4 38,-11 59,-21zm637 217l-214 0 0 -154 -149 0 0 154 -215 0 0 -398c0,-44 7,-85 20,-124 14,-38 33,-72 58,-100 25,-28 56,-51 92,-68 36,-17 77,-25 123,-25 46,0 87,8 122,24 36,16 65,39 90,67 24,29 43,63 55,102 12,39 18,82 18,128l0 394zm-364 -339l149 0 0 -62c0,-32 -5,-55 -16,-71 -10,-16 -29,-24 -55,-24 -25,0 -44,8 -58,24 -14,16 -21,40 -21,72l0 61zm811 -360l218 0 0 698 -327 0c-44,0 -82,-4 -113,-12 -31,-8 -57,-22 -77,-42 -20,-20 -35,-46 -44,-79 -9,-33 -14,-73 -14,-122l0 -444 218 0 0 409c0,37 5,60 14,71 9,10 25,16 49,16l77 0 0 -496zm-13 -163l113 0c-6,46 -25,82 -57,108 -31,26 -68,39 -110,39 -42,0 -79,-13 -110,-39 -31,-26 -50,-62 -57,-108l113 0c5,15 12,25 19,30 8,5 19,7 35,7 15,0 26,-2 34,-7 8,-5 15,-15 20,-30zm796 163l0 203 -151 0 0 496 -218 0 0 -496 -151 0 0 -203 521 0zm-11148 1555l0 -384c0,-43 6,-85 16,-125 11,-40 28,-75 50,-106 22,-31 51,-55 85,-73 35,-18 76,-27 123,-27 35,0 67,5 96,15 29,10 54,24 77,42 46,-38 104,-57 174,-57 47,0 88,9 123,27 35,18 63,43 85,73 22,31 39,66 50,106 11,40 16,81 16,125l0 384 -218 0 0 -378c0,-27 -1,-49 -3,-66 -2,-17 -5,-31 -10,-40 -5,-10 -11,-16 -18,-19 -8,-3 -18,-5 -30,-5 -11,0 -21,2 -28,5 -7,3 -13,9 -18,18 -5,9 -8,22 -10,38 -2,16 -3,37 -3,63l0 385 -218 0 0 -385c0,-26 -1,-47 -3,-63 -2,-16 -6,-29 -11,-38 -5,-9 -11,-15 -18,-18 -7,-3 -17,-5 -28,-5 -12,0 -21,2 -29,5 -7,3 -14,10 -18,19 -5,10 -8,23 -10,40 -2,17 -3,39 -3,66l0 378 -218 0zm1418 -426l0 125 -184 0c-19,0 -34,4 -47,12 -12,8 -18,20 -18,34 0,34 30,51 89,51l160 0 0 203 -191 0c-91,0 -159,-18 -206,-55 -47,-37 -70,-93 -70,-168 0,-27 3,-51 9,-73 6,-21 19,-44 41,-69 -17,-18 -29,-37 -37,-57 -8,-20 -12,-39 -12,-58 0,-41 7,-75 22,-103 15,-28 34,-50 59,-67 25,-17 54,-29 88,-37 34,-7 70,-11 108,-11l191 0 0 201 -181 0c-25,0 -43,3 -53,8 -10,5 -15,14 -15,27 0,13 5,22 16,28 11,6 28,9 53,9l180 0zm286 -273l0 162c0,39 6,66 16,82 11,16 35,24 72,24l43 0 0 -268 215 0 0 268 43 0c37,0 61,-8 72,-24 11,-16 16,-43 16,-82l0 -162 215 0 0 172c0,39 -5,71 -15,95 -10,24 -27,46 -50,66 28,18 47,40 57,66 10,26 16,62 16,108l0 191 -215 0 0 -179c0,-21 -2,-38 -5,-50 -3,-13 -8,-23 -16,-30 -7,-7 -17,-11 -29,-14 -12,-2 -27,-3 -44,-3l-46 0 0 276 -215 0 0 -276 -47 0c-17,0 -32,1 -44,3 -12,2 -21,7 -29,14 -7,7 -13,17 -16,30 -3,13 -5,30 -5,50l0 179 -214 0 0 -191c0,-46 5,-82 16,-108 10,-26 29,-48 57,-66 -24,-20 -41,-42 -50,-66 -10,-24 -15,-56 -15,-95l0 -172 215 0zm985 320l0 176 139 0 0 -176c0,-27 -1,-49 -4,-66 -3,-17 -7,-31 -13,-40 -6,-10 -13,-16 -22,-19 -9,-3 -19,-5 -32,-5 -12,0 -22,2 -31,5 -9,3 -16,10 -22,19 -6,10 -10,23 -13,40 -3,17 -4,39 -4,66zm404 378l-665 0 0 -203 47 0 0 -182c0,-48 6,-92 19,-132 13,-40 32,-75 56,-104 25,-29 55,-52 91,-68 36,-16 77,-25 123,-25 47,0 88,9 124,27 35,18 65,43 88,73 24,31 41,66 53,106 12,40 18,81 18,125l0 181 47 0 0 203zm-3 -698l214 0 0 173c0,17 4,31 13,44 8,12 24,18 46,18l50 0 0 -235 215 0 0 449c0,46 -6,85 -19,116 -13,32 -31,57 -55,77 -24,20 -54,34 -89,43 -35,9 -75,13 -121,13l-212 0 0 -203 192 0c59,0 89,-17 89,-51l0 -38 -81 0c-85,0 -147,-16 -185,-49 -38,-32 -57,-89 -57,-169l0 -189zm972 0l218 0 0 698 -218 0 0 -276 -144 0 0 276 -218 0 0 -698 218 0 0 250 144 0 0 -250zm869 698l-214 0 0 -154 -149 0 0 154 -215 0 0 -398c0,-44 7,-85 20,-124 14,-38 33,-72 58,-100 25,-28 56,-51 92,-68 36,-17 77,-25 123,-25 46,0 87,8 122,24 36,16 65,39 90,67 24,29 43,63 55,102 12,39 18,82 18,128l0 394zm-364 -339l149 0 0 -62c0,-32 -5,-55 -16,-71 -10,-16 -29,-24 -55,-24 -25,0 -44,8 -58,24 -14,16 -21,40 -21,72l0 61zm692 142l0 -203c21,0 38,-3 51,-10 13,-6 20,-19 20,-37 0,-14 -6,-26 -17,-35 -12,-9 -29,-14 -53,-14l-38 0 0 496 -218 0 0 -698 260 0c43,0 82,5 118,16 36,11 67,27 93,48 26,21 47,47 62,77 15,30 22,66 22,106 0,88 -26,152 -79,194 -53,41 -126,62 -220,62zm691 213c-49,0 -95,-9 -139,-28 -44,-19 -83,-45 -116,-78 -33,-33 -60,-72 -80,-116 -20,-44 -30,-92 -30,-143 0,-50 10,-98 30,-143 20,-45 47,-83 80,-116 33,-33 72,-59 116,-79 44,-19 91,-29 139,-29 50,0 98,10 143,29 45,19 83,46 116,79 33,33 59,73 78,118 19,45 29,93 29,145 0,50 -10,97 -29,140 -19,44 -45,82 -78,114 -33,33 -72,59 -116,78 -45,19 -92,29 -143,29zm-1 -206c19,0 38,-4 55,-12 17,-8 33,-19 47,-33 14,-14 24,-31 32,-50 8,-19 12,-41 12,-64 0,-23 -4,-45 -11,-64 -7,-19 -18,-36 -31,-51 -13,-15 -29,-26 -46,-34 -17,-8 -36,-12 -56,-12 -21,0 -40,4 -57,12 -17,8 -33,19 -46,34 -13,15 -23,32 -31,51 -7,19 -11,41 -11,64 0,23 4,45 11,64 7,19 18,36 31,50 13,14 29,25 46,33 17,8 36,12 55,12zm635 -189l0 176 139 0 0 -176c0,-27 -1,-49 -4,-66 -3,-17 -7,-31 -13,-40 -6,-10 -13,-16 -22,-19 -9,-3 -19,-5 -32,-5 -12,0 -22,2 -31,5 -9,3 -16,10 -22,19 -6,10 -10,23 -13,40 -3,17 -4,39 -4,66zm404 378l-665 0 0 -203 47 0 0 -182c0,-48 6,-92 19,-132 13,-40 32,-75 56,-104 25,-29 55,-52 91,-68 36,-16 77,-25 123,-25 47,0 88,9 124,27 35,18 65,43 88,73 24,31 41,66 53,106 12,40 18,81 18,125l0 181 47 0 0 203zm390 -698l218 0 0 698 -218 0 0 -276 -144 0 0 276 -218 0 0 -698 218 0 0 250 144 0 0 -250zm638 715c-49,0 -95,-9 -139,-28 -44,-19 -83,-45 -116,-78 -33,-33 -60,-72 -80,-116 -20,-44 -30,-92 -30,-143 0,-50 10,-98 30,-143 20,-45 47,-83 80,-116 33,-33 72,-59 116,-79 44,-19 91,-29 139,-29 50,0 98,10 143,29 45,19 83,46 116,79 33,33 59,73 78,118 19,45 29,93 29,145 0,50 -10,97 -29,140 -19,44 -45,82 -78,114 -33,33 -72,59 -116,78 -45,19 -92,29 -143,29zm-1 -206c19,0 38,-4 55,-12 17,-8 33,-19 47,-33 14,-14 24,-31 32,-50 8,-19 12,-41 12,-64 0,-23 -4,-45 -11,-64 -7,-19 -18,-36 -31,-51 -13,-15 -29,-26 -46,-34 -17,-8 -36,-12 -56,-12 -21,0 -40,4 -57,12 -17,8 -33,19 -46,34 -13,15 -23,32 -31,51 -7,19 -11,41 -11,64 0,23 4,45 11,64 7,19 18,36 31,50 13,14 29,25 46,33 17,8 36,12 55,12zm774 -509l218 0 0 698 -327 0c-44,0 -82,-4 -113,-12 -31,-8 -57,-22 -77,-42 -20,-20 -35,-46 -44,-79 -9,-33 -14,-73 -14,-122l0 -444 218 0 0 409c0,37 5,60 14,71 9,10 25,16 49,16l77 0 0 -496zm-13 -163l113 0c-6,46 -25,82 -57,108 -31,26 -68,39 -110,39 -42,0 -79,-13 -110,-39 -31,-26 -50,-62 -57,-108l113 0c5,15 12,25 19,30 8,5 19,7 35,7 15,0 26,-2 34,-7 8,-5 15,-15 20,-30zm876 163l215 0 0 172c0,39 -5,71 -15,95 -10,24 -27,46 -50,66 28,18 47,40 57,66 10,26 16,62 16,108l0 191 -215 0 0 -179c0,-21 -2,-38 -5,-50 -3,-13 -8,-23 -16,-30 -7,-7 -17,-11 -29,-14 -12,-2 -27,-3 -44,-3l-46 0 0 276 -215 0 0 -698 215 0 0 268 43 0c37,0 61,-8 72,-24 11,-16 16,-43 16,-82l0 -162zm629 715c-49,0 -95,-9 -139,-28 -44,-19 -83,-45 -116,-78 -33,-33 -60,-72 -80,-116 -20,-44 -30,-92 -30,-143 0,-50 10,-98 30,-143 20,-45 47,-83 80,-116 33,-33 72,-59 116,-79 44,-19 91,-29 139,-29 50,0 98,10 143,29 45,19 83,46 116,79 33,33 59,73 78,118 19,45 29,93 29,145 0,50 -10,97 -29,140 -19,44 -45,82 -78,114 -33,33 -72,59 -116,78 -45,19 -92,29 -143,29zm-1 -206c19,0 38,-4 55,-12 17,-8 33,-19 47,-33 14,-14 24,-31 32,-50 8,-19 12,-41 12,-64 0,-23 -4,-45 -11,-64 -7,-19 -18,-36 -31,-51 -13,-15 -29,-26 -46,-34 -17,-8 -36,-12 -56,-12 -21,0 -40,4 -57,12 -17,8 -33,19 -46,34 -13,15 -23,32 -31,51 -7,19 -11,41 -11,64 0,23 4,45 11,64 7,19 18,36 31,50 13,14 29,25 46,33 17,8 36,12 55,12zm677 -8l0 -203c21,0 38,-3 51,-10 13,-6 20,-19 20,-37 0,-14 -6,-26 -17,-35 -12,-9 -29,-14 -53,-14l-38 0 0 496 -218 0 0 -698 260 0c43,0 82,5 118,16 36,11 67,27 93,48 26,21 47,47 62,77 15,30 22,66 22,106 0,88 -26,152 -79,194 -53,41 -126,62 -220,62zm558 197l-218 0 0 -385c0,-48 7,-92 20,-132 13,-40 32,-75 57,-104 25,-29 55,-52 92,-68 36,-16 77,-25 123,-25 47,0 88,9 124,27 35,18 65,43 88,73 24,31 41,66 53,106 12,40 18,81 18,125l0 384 -218 0 0 -378c0,-27 -1,-49 -4,-66 -3,-17 -7,-31 -13,-40 -6,-10 -13,-16 -22,-19 -9,-3 -19,-5 -32,-5 -12,0 -22,2 -31,5 -9,3 -16,10 -22,19 -6,10 -10,23 -13,40 -3,17 -4,39 -4,66l0 378z"/>
 </g>
</svg>
